{"glyphs":{"0":{"ha":601,"x_min":103,"x_max":753,"o":"m 676 718 q 753 633 753 718 q 685 438 753 560 q 508 200 617 317 q 333 42 417 100 q 192 -15 249 -15 q 126 15 150 -15 q 103 100 103 46 q 144 263 103 172 q 256 440 185 354 q 473 633 344 549 q 676 718 601 718 m 672 694 q 511 610 614 694 q 310 396 408 525 q 185 204 232 294 q 139 64 139 114 q 153 25 139 40 q 190 10 167 10 q 325 67 244 10 q 492 222 406 124 q 659 456 593 339 q 725 640 725 574 q 672 694 725 694 z "},"1":{"ha":601,"x_min":196,"x_max":836,"o":"m 836 696 l 301 0 l 203 0 l 272 81 l 469 308 l 533 381 l 597 454 l 661 526 l 735 610 q 465 450 582 517 q 207 306 356 388 l 196 326 q 581 544 465 475 q 810 696 696 613 l 836 696 z "},"2":{"ha":601,"x_min":-25,"x_max":700,"o":"m 515 550 l 531 546 q 440 405 500 464 q 325 346 379 346 q 282 364 299 346 q 265 413 265 382 q 376 605 265 510 q 597 700 486 700 q 700 603 700 700 q 617 410 700 504 q 531 331 579 365 q 388 249 482 297 q 197 143 247 174 q 88 65 146 113 q 133 76 118 74 q 168 79 147 79 q 260 63 214 79 q 319 43 307 46 q 353 40 332 40 q 488 146 421 40 l 508 140 q 408 22 456 58 q 303 -14 360 -14 q 251 -6 278 -14 q 197 16 247 -4 q 103 36 146 36 q 48 25 74 36 q -11 -12 22 14 l -25 1 q 35 54 8 33 q 100 103 72 82 q 177 158 139 133 q 274 221 215 183 q 450 336 400 299 q 553 431 500 374 q 636 542 606 489 q 667 629 667 594 q 600 681 667 681 q 474 639 546 681 q 353 536 403 597 q 307 465 325 503 q 289 403 289 428 q 324 365 289 365 q 424 420 367 365 q 515 550 482 475 z "},"3":{"ha":601,"x_min":15,"x_max":699,"o":"m 535 581 l 551 574 q 383 449 476 449 q 331 500 331 449 q 414 639 331 575 q 596 703 497 703 q 670 683 642 703 q 699 629 699 663 q 443 383 699 490 q 528 300 528 383 q 404 103 528 194 q 253 19 335 51 q 111 -12 172 -12 q 43 8 71 -12 q 15 61 15 29 q 31 106 15 88 q 68 124 46 124 q 96 113 85 124 q 107 86 107 101 q 96 63 107 72 q 67 53 85 53 q 50 43 50 53 q 67 18 50 28 q 110 8 83 8 q 253 57 172 8 q 404 186 333 106 q 462 266 439 226 q 485 326 485 306 q 442 364 485 364 q 413 360 425 364 q 361 339 400 356 l 289 303 l 278 319 l 325 343 l 338 350 l 388 375 q 515 447 481 422 q 592 519 550 472 q 660 640 660 596 q 604 683 660 683 q 442 625 522 683 q 379 563 406 599 q 353 501 353 526 q 392 469 353 469 q 464 501 422 469 q 535 581 506 533 z "},"4":{"ha":601,"x_min":25,"x_max":738,"o":"m 429 168 l 313 0 l 213 0 l 372 174 q 218 186 285 186 q 38 147 114 186 l 25 163 q 124 238 90 211 q 288 375 172 278 q 513 572 438 503 q 629 690 588 642 l 738 690 q 587 565 661 625 q 404 424 513 506 l 351 383 q 225 286 288 335 q 129 215 193 263 l 101 194 q 224 207 158 207 q 392 194 313 207 l 568 382 l 597 382 q 535 306 585 367 q 442 188 494 257 l 474 186 q 518 188 510 186 q 560 199 542 194 l 564 179 q 519 168 539 171 q 474 165 499 165 l 429 168 z "},"5":{"ha":601,"x_min":35,"x_max":763,"o":"m 501 633 l 333 422 q 424 472 392 460 q 493 485 457 485 q 561 454 535 485 q 588 372 588 424 q 453 129 588 253 q 292 26 382 67 q 131 -14 203 -14 q 61 7 88 -14 q 35 64 35 28 q 51 106 35 89 q 89 124 67 124 q 114 114 103 124 q 125 89 125 104 q 114 64 125 75 q 86 53 103 53 q 65 42 65 53 q 87 18 65 29 q 133 7 108 7 q 290 65 203 7 q 453 219 378 124 q 519 327 494 275 q 544 415 544 379 q 493 465 544 465 q 380 428 443 465 q 254 325 317 390 l 236 339 l 511 686 q 569 669 540 675 q 626 664 599 664 q 688 670 663 664 q 753 697 713 676 l 763 686 q 672 636 710 650 q 589 622 635 622 q 501 633 557 622 z "},"6":{"ha":601,"x_min":110,"x_max":801,"o":"m 297 328 q 511 439 424 439 q 585 350 585 439 q 545 219 585 288 q 439 94 506 150 q 316 18 385 50 q 203 -14 247 -14 q 134 10 158 -14 q 110 83 110 35 q 208 324 110 178 q 446 578 307 469 q 726 703 606 703 q 781 685 760 703 q 801 638 801 667 q 788 593 801 610 q 749 576 774 576 q 713 608 713 576 q 751 639 713 639 q 772 651 772 639 q 725 682 772 682 q 524 581 646 682 q 297 328 403 481 m 508 419 q 394 374 465 419 q 258 261 322 329 q 146 57 146 140 q 194 8 146 8 q 299 50 239 8 q 425 167 360 92 q 513 289 481 231 q 546 385 546 347 q 508 419 546 419 z "},"7":{"ha":601,"x_min":-12,"x_max":831,"o":"m 804 728 l 831 728 q 607 485 679 565 q 443 296 547 418 q 161 -49 239 54 l 106 -121 l -12 -121 l 19 -86 q 129 31 86 -14 q 240 144 185 88 l 424 333 l 739 657 q 613 622 668 622 q 533 637 575 622 q 480 655 490 651 q 460 658 469 658 q 406 643 431 658 q 344 586 381 628 l 313 586 l 401 688 l 463 763 l 497 763 l 418 669 q 538 697 478 697 q 589 693 572 697 q 649 675 624 682 q 699 668 675 668 q 749 681 726 668 q 804 728 772 693 z "},"8":{"ha":601,"x_min":65,"x_max":733,"o":"m 476 382 q 508 321 500 344 q 517 268 517 297 q 414 79 517 172 q 204 -14 311 -14 q 104 19 143 -14 q 65 106 65 53 q 95 194 65 149 q 181 281 125 239 q 242 318 214 304 q 350 364 269 332 l 393 382 q 367 468 367 428 q 445 628 367 556 q 618 701 524 701 q 733 601 733 701 q 701 513 733 556 q 613 440 669 469 q 553 414 594 431 q 476 382 513 397 m 467 404 l 494 415 q 569 447 549 438 q 640 493 607 465 q 701 608 701 546 q 679 661 701 642 q 619 681 657 681 q 485 630 543 681 q 428 511 428 579 q 440 453 428 482 l 454 425 l 467 404 m 407 350 l 403 360 q 273 306 303 319 q 213 271 243 292 q 103 103 103 197 q 132 35 103 61 q 207 8 161 8 q 372 79 293 8 q 451 229 451 150 q 445 270 451 251 q 418 329 439 289 l 407 350 z "},"9":{"ha":601,"x_min":44,"x_max":735,"o":"m 549 361 q 335 250 418 250 q 260 339 260 250 q 299 469 260 400 q 406 594 339 538 q 528 671 458 639 q 642 703 597 703 q 710 678 686 703 q 735 606 735 654 q 636 365 735 511 q 399 111 538 219 q 119 -14 242 -14 q 65 4 86 -14 q 44 51 44 22 q 59 95 44 78 q 97 113 74 113 q 126 99 115 113 q 133 81 133 89 q 94 50 133 50 q 74 38 74 50 q 121 7 74 7 q 321 107 200 7 q 549 361 442 207 m 650 681 q 419 524 557 681 q 331 401 364 460 q 299 306 299 343 q 336 271 299 271 q 422 299 371 271 q 532 376 472 326 q 651 511 604 439 q 699 632 699 583 q 650 681 699 681 z "}," ":{"ha":347,"x_min":0,"x_max":0,"o":""},"!":{"ha":421,"x_min":25,"x_max":646,"o":"m 172 147 l 156 157 l 249 289 l 385 482 l 513 671 q 576 756 558 738 q 614 774 594 774 q 646 739 646 774 q 608 669 646 715 l 469 504 l 353 365 l 188 167 l 172 147 m 93 100 q 138 61 138 100 q 117 10 138 32 q 68 -12 96 -12 q 25 28 25 -12 q 46 78 25 56 q 93 100 67 100 z "},"\"":{"ha":393,"x_min":450,"x_max":914,"o":"m 482 582 l 450 607 l 683 924 l 729 888 l 482 582 m 667 582 l 635 607 l 868 924 l 914 888 l 667 582 z "},"#":{"ha":943,"x_min":190,"x_max":1003,"o":"m 207 278 l 400 278 l 485 485 l 289 485 l 307 528 l 501 528 l 579 725 l 625 725 l 546 528 l 767 528 l 844 725 l 890 725 l 810 528 l 1003 528 l 986 485 l 794 485 l 710 278 l 903 278 l 886 236 l 694 236 l 613 33 l 567 33 l 649 236 l 428 236 l 346 33 l 300 33 l 382 236 l 190 236 l 207 278 m 444 278 l 667 278 l 749 485 l 528 485 l 444 278 z "},"$":{"ha":601,"x_min":22,"x_max":765,"o":"m 765 801 l 689 703 q 754 601 754 664 q 729 530 754 560 q 669 500 704 500 q 633 535 633 500 q 639 556 633 547 q 669 574 651 574 l 700 574 q 717 584 710 574 q 725 607 725 594 q 674 683 725 657 l 453 394 q 490 303 479 338 q 501 239 501 269 q 417 63 501 135 q 210 -10 332 -10 q 183 -8 194 -10 q 149 -1 172 -7 l 43 -140 l 22 -125 l 124 8 q 44 126 44 51 q 74 211 44 174 q 142 249 103 249 q 174 239 161 249 q 186 213 186 229 q 171 179 186 192 q 132 167 156 167 l 111 171 l 106 172 q 83 159 92 172 q 75 125 75 146 q 140 28 75 61 l 392 357 q 360 433 368 404 q 351 490 351 461 q 424 655 351 590 q 608 719 497 719 q 664 711 638 719 l 746 818 l 765 801 m 440 419 l 649 692 l 608 696 q 469 644 525 696 q 414 517 414 593 q 440 419 414 478 m 403 329 l 167 21 q 218 14 196 14 q 372 71 308 14 q 436 211 436 128 q 403 329 436 264 z "},"%":{"ha":1076,"x_min":146,"x_max":1257,"o":"m 1257 901 l 164 -4 l 146 18 l 1238 924 l 1257 901 m 675 925 q 724 905 706 925 q 743 853 743 885 q 705 733 743 803 q 602 594 667 664 q 478 486 538 525 q 375 447 419 447 q 297 538 297 447 q 422 796 297 667 q 675 925 547 925 m 675 904 q 572 856 636 904 q 442 726 507 807 q 360 606 392 665 q 329 511 329 546 q 372 469 329 469 q 462 506 408 469 q 577 612 515 543 q 678 749 639 681 q 718 858 718 818 q 675 904 718 904 m 1039 461 q 1088 441 1069 461 q 1107 389 1107 421 q 1069 271 1107 340 q 966 132 1031 201 q 842 24 901 63 q 739 -15 783 -15 q 661 75 661 -15 q 787 333 661 204 q 1039 461 913 461 m 1039 440 q 936 393 1000 440 q 806 263 872 346 q 724 142 754 200 q 693 49 693 83 q 736 7 693 7 q 826 44 772 7 q 942 149 879 81 q 1043 286 1004 218 q 1082 394 1082 354 q 1039 440 1082 440 z "},"&":{"ha":857,"x_min":65,"x_max":854,"o":"m 538 403 l 518 394 l 486 381 q 460 252 469 314 q 451 136 451 190 l 551 238 q 706 378 650 338 q 799 419 761 419 q 839 404 824 419 q 854 365 854 389 q 835 308 854 331 q 789 285 817 285 q 751 319 751 285 q 761 344 751 333 q 783 354 771 356 l 804 353 q 828 375 828 350 q 797 399 828 399 q 751 383 778 399 q 683 332 724 368 q 588 243 660 313 l 504 158 l 451 106 q 463 39 451 57 q 503 21 474 21 q 689 161 572 21 l 711 151 q 591 35 653 78 q 478 -8 529 -8 q 394 61 415 -8 q 183 -12 279 -12 q 97 17 129 -12 q 65 97 65 46 q 109 219 65 163 q 232 314 153 275 q 298 341 268 331 q 425 381 328 351 q 527 590 465 517 q 664 664 589 664 q 744 592 744 664 q 660 464 744 521 q 625 443 649 456 q 578 419 601 431 l 558 411 l 538 403 m 493 404 q 651 499 594 446 q 707 607 707 553 q 665 646 707 646 q 493 404 556 646 m 418 354 q 306 296 343 318 q 235 246 269 274 q 142 150 176 199 q 107 65 107 101 q 190 11 107 11 q 390 90 283 11 l 388 129 q 396 232 388 171 q 418 354 404 293 z "},"'":{"ha":208,"x_min":376,"x_max":656,"o":"m 408 582 l 376 607 l 610 924 l 656 888 l 408 582 z "},"(":{"ha":549,"x_min":42,"x_max":968,"o":"m 956 986 l 968 972 q 490 478 707 768 q 238 86 354 293 q 65 -282 122 -121 l 42 -282 q 390 451 167 142 q 956 986 613 760 z "},")":{"ha":549,"x_min":-121,"x_max":806,"o":"m -108 -282 l -121 -268 q 356 226 140 -64 q 608 617 496 415 q 781 986 721 818 l 806 986 q 456 251 676 557 q -108 -282 235 -56 z "},"*":{"ha":611,"x_min":510,"x_max":885,"o":"m 697 731 l 704 731 q 730 732 717 731 q 783 740 743 733 l 810 742 q 851 733 833 742 q 885 708 885 718 q 839 686 885 696 l 813 683 q 786 685 792 683 q 756 696 769 692 q 697 710 718 708 q 708 679 707 682 q 734 626 722 651 q 746 574 746 601 q 741 539 746 553 q 731 524 736 525 q 699 563 721 524 q 685 594 688 583 q 682 644 682 606 q 676 704 682 676 q 654 686 668 699 q 611 647 632 667 q 526 608 572 608 q 510 619 513 608 q 511 624 511 622 q 536 657 517 633 q 560 679 550 674 q 610 699 571 685 q 642 712 624 704 q 664 722 660 719 q 640 738 658 726 q 590 767 608 757 q 549 799 558 785 q 528 832 535 819 q 524 840 526 835 q 539 851 524 851 q 565 846 550 851 q 592 833 579 840 q 613 817 604 825 q 639 783 621 808 q 658 757 653 763 q 678 739 664 751 l 697 824 q 715 872 703 854 q 743 904 726 889 q 753 911 746 907 q 765 875 765 908 q 760 833 765 849 q 729 782 754 817 q 714 760 719 769 q 697 731 708 750 z "},"+":{"ha":601,"x_min":175,"x_max":657,"o":"m 193 378 l 408 378 l 560 597 l 588 597 l 438 378 l 657 378 l 639 353 l 419 353 l 269 133 l 240 133 l 390 353 l 175 353 l 193 378 z "},",":{"ha":349,"x_min":-108,"x_max":156,"o":"m -103 -151 l -108 -133 q -3 -81 -49 -117 q 38 -42 21 -62 q 53 -10 54 -21 l 44 13 l 42 26 q 67 76 42 53 q 118 100 92 100 q 156 63 156 100 q 85 -56 156 3 q -103 -151 14 -114 z "},"-":{"ha":176,"x_min":-6,"x_max":214,"o":"m 214 253 l 171 197 l -6 197 l 38 253 l 214 253 z "},".":{"ha":349,"x_min":43,"x_max":156,"o":"m 114 103 q 143 92 131 103 q 156 65 156 81 q 133 14 156 38 q 83 -10 111 -10 q 43 33 43 -10 q 65 81 43 60 q 114 103 86 103 z "},"/":{"ha":521,"x_min":-229,"x_max":914,"o":"m 860 986 l 914 986 l -172 -282 l -229 -282 l 860 986 z "},":":{"ha":349,"x_min":25,"x_max":392,"o":"m 350 438 q 379 426 367 438 q 392 400 392 415 q 369 349 392 372 q 319 325 347 325 q 279 368 279 325 q 301 416 279 394 q 350 438 322 438 m 96 103 q 125 92 113 103 q 138 65 138 81 q 115 14 138 38 q 65 -10 93 -10 q 25 33 25 -10 q 47 81 25 60 q 96 103 68 103 z "},";":{"ha":349,"x_min":-108,"x_max":414,"o":"m -103 -151 l -108 -133 q -3 -81 -49 -117 q 38 -42 21 -62 q 53 -10 54 -21 l 44 13 l 42 26 q 67 76 42 53 q 118 100 92 100 q 156 63 156 100 q 85 -56 156 3 q -103 -151 14 -114 m 372 438 q 401 426 389 438 q 414 400 414 415 q 392 349 414 372 q 342 325 369 325 q 301 368 301 325 q 323 416 301 394 q 372 438 344 438 z "},"<":{"ha":694,"x_min":139,"x_max":740,"o":"m 740 736 l 740 707 l 171 463 l 740 219 l 740 190 l 139 449 l 139 478 l 740 736 z "},"=":{"ha":601,"x_min":150,"x_max":719,"o":"m 256 443 l 719 443 l 701 418 l 238 418 l 256 443 m 167 315 l 631 315 l 614 290 l 150 290 l 167 315 z "},">":{"ha":694,"x_min":269,"x_max":871,"o":"m 269 190 l 269 219 l 839 463 l 269 707 l 269 736 l 871 478 l 871 449 l 269 190 z "},"?":{"ha":561,"x_min":92,"x_max":763,"o":"m 247 142 l 228 157 q 331 258 288 221 l 404 319 l 438 344 l 469 369 l 501 393 q 664 554 601 467 q 726 704 726 642 q 671 757 726 757 q 550 717 618 757 q 431 613 482 676 q 381 503 381 549 q 414 465 381 465 q 553 567 475 465 l 568 560 q 492 475 536 507 q 406 443 447 443 q 347 503 347 443 q 435 665 347 582 q 551 746 483 714 q 671 778 618 778 q 763 671 763 778 q 753 603 763 640 q 726 535 743 567 q 653 436 697 476 q 524 349 608 396 q 358 247 408 285 q 247 142 307 208 m 161 103 q 207 63 207 103 q 185 10 207 33 q 138 -12 164 -12 q 92 32 92 -12 q 113 81 92 58 q 161 103 133 103 z "},"@":{"ha":1208,"x_min":333,"x_max":1217,"o":"m 1099 610 l 874 311 q 831 251 844 274 q 817 218 817 229 q 832 192 817 203 q 872 181 847 181 q 1094 275 1000 181 q 1189 497 1189 369 q 1078 750 1189 647 q 804 853 967 853 q 490 724 618 853 q 361 411 361 596 q 488 110 361 236 q 792 -15 615 -15 q 1174 219 1042 -15 l 1201 219 q 790 -43 1065 -43 q 468 90 603 -43 q 333 413 333 224 q 469 743 333 606 q 796 881 606 881 q 1094 771 972 881 q 1217 500 1217 661 q 1115 263 1217 363 q 874 163 1014 163 q 789 238 789 163 q 807 311 789 268 q 721 244 744 261 q 668 211 697 226 q 561 175 600 175 q 494 250 494 175 q 531 367 494 301 q 624 481 568 432 q 778 582 693 540 q 917 624 863 624 q 978 569 978 624 l 974 535 l 1028 610 l 1099 610 m 921 604 q 810 555 879 604 q 654 415 740 506 q 561 303 596 356 q 526 224 526 250 q 557 194 526 194 q 656 227 596 194 q 781 317 715 260 q 908 455 858 385 q 958 565 958 525 q 921 604 958 604 z "},"A":{"ha":935,"x_min":14,"x_max":1311,"o":"m 718 58 l 685 0 l 597 0 l 638 64 q 538 94 585 72 q 440 160 490 117 q 349 88 381 111 q 282 44 318 65 q 115 -14 179 -14 q 42 8 69 -14 q 14 69 14 31 q 43 149 14 114 q 111 183 72 183 q 153 144 153 183 q 140 109 153 125 q 108 93 126 93 q 81 104 99 93 l 68 108 q 49 95 58 108 q 39 68 39 82 q 60 26 39 42 q 118 10 82 10 q 190 25 147 10 q 281 68 233 40 q 424 176 333 100 q 301 471 301 321 q 349 620 301 560 q 467 681 397 681 q 603 622 542 681 q 697 460 664 564 q 726 488 711 474 q 801 567 761 525 q 1098 844 986 761 q 1288 926 1210 926 l 1311 926 l 1239 826 l 1164 719 q 1057 568 1067 582 q 953 414 1040 544 l 901 338 l 858 274 l 760 126 l 732 83 q 827 113 790 92 q 907 182 864 133 l 925 168 q 718 58 843 74 m 443 193 q 544 294 494 240 q 639 394 628 382 l 679 438 q 475 647 614 647 q 375 591 417 647 q 333 454 333 535 q 443 193 333 314 m 458 175 q 649 88 554 97 q 692 325 692 208 q 683 407 692 364 q 536 251 585 301 q 458 175 496 210 m 757 488 l 729 457 l 704 432 q 714 340 714 388 q 694 149 714 260 q 774 264 728 199 q 853 376 819 329 q 924 471 888 422 q 1024 597 969 532 l 1075 660 l 1125 722 l 1176 786 l 1271 906 q 1173 870 1225 900 q 1050 779 1121 840 q 883 621 979 718 l 786 518 l 757 488 z "},"B":{"ha":1196,"x_min":38,"x_max":1418,"o":"m 1410 925 l 1418 906 q 1349 878 1378 892 q 1292 846 1321 864 q 1363 689 1363 771 q 1329 578 1363 631 q 1235 490 1296 526 q 1180 465 1210 475 q 1100 447 1150 456 q 1186 303 1186 403 q 1007 51 1186 154 q 908 8 958 24 q 818 -8 858 -8 q 749 9 774 -8 q 725 58 725 26 q 812 190 725 128 q 1026 272 899 251 l 1031 253 q 846 188 910 226 q 776 126 803 161 q 749 63 749 92 q 810 17 749 17 q 926 56 860 17 q 1046 156 993 94 q 1133 349 1133 258 q 1078 439 1133 408 l 1024 435 q 971 454 971 435 q 1008 471 971 471 q 1081 458 1038 471 q 1261 585 1194 488 q 1311 728 1311 657 q 1303 781 1311 760 q 1269 831 1294 801 q 1140 728 1211 794 q 985 554 1053 649 l 878 396 q 697 167 779 246 q 508 42 614 88 q 378 1 451 17 q 243 -14 306 -14 q 94 17 151 -14 q 38 96 38 47 q 71 167 38 135 q 144 199 104 199 q 186 161 186 199 q 172 128 186 142 q 139 114 158 114 q 113 128 129 114 q 96 135 103 135 q 74 124 82 135 q 65 94 65 113 q 113 33 65 56 q 240 10 161 10 q 515 99 392 10 q 679 254 604 161 l 815 426 q 1032 674 933 576 q 1144 768 1072 713 q 1253 846 1215 824 q 1133 904 1197 886 q 976 922 1068 922 q 527 783 735 922 q 319 482 319 643 q 354 403 319 433 q 447 372 389 372 q 727 509 583 372 q 918 818 871 646 l 939 818 q 772 507 894 636 q 615 392 706 436 q 446 347 525 347 q 335 385 378 347 q 293 485 293 424 q 342 627 293 549 q 472 769 392 706 q 710 899 579 854 q 982 943 840 943 q 1275 860 1161 943 q 1338 896 1315 885 q 1410 925 1360 907 z "},"C":{"ha":1038,"x_min":328,"x_max":1393,"o":"m 965 943 l 954 925 q 877 943 908 939 q 800 947 846 947 q 485 865 617 947 q 354 667 354 782 q 404 556 354 594 q 572 497 454 517 q 961 813 758 690 q 1299 936 1164 936 q 1393 864 1393 936 q 1349 760 1393 815 q 1221 650 1304 706 q 950 517 1090 564 q 657 471 810 471 q 507 269 554 351 q 460 122 460 186 q 501 38 460 69 q 614 7 542 7 q 890 96 758 7 q 1022 283 1022 185 q 997 344 1022 321 q 926 367 971 367 q 690 249 808 367 q 635 185 657 215 q 572 86 613 156 l 556 89 q 709 308 610 225 q 914 392 808 392 q 1008 363 971 392 q 1046 286 1046 333 q 907 81 1046 176 q 608 -15 768 -15 q 466 31 517 -15 q 415 163 415 78 q 446 305 415 236 q 556 476 476 374 q 419 517 460 494 q 353 582 378 540 q 328 671 328 624 q 450 888 328 803 q 764 972 572 972 q 965 943 861 972 m 676 493 q 958 542 815 493 q 1213 668 1100 590 q 1330 772 1288 719 q 1372 863 1372 824 q 1296 917 1372 917 q 1171 888 1244 917 q 1024 808 1097 858 q 857 678 935 749 q 676 493 779 607 z "},"D":{"ha":1240,"x_min":186,"x_max":1471,"o":"m 1465 843 l 1471 826 q 1392 780 1429 804 q 1297 710 1356 756 q 1315 647 1310 678 q 1321 583 1321 615 q 1282 378 1321 483 q 1172 185 1243 272 q 789 -12 1014 -12 q 701 -4 740 -12 q 586 29 661 4 q 338 -14 449 -14 q 226 3 267 -14 q 186 50 186 19 q 227 97 186 79 q 338 115 268 115 q 586 56 444 115 q 679 114 644 88 q 764 188 714 140 q 888 325 833 257 l 925 372 l 964 419 l 1001 467 q 1113 588 1056 533 q 1268 722 1169 643 q 1131 866 1215 821 q 915 911 1047 911 q 533 783 689 911 q 424 657 463 724 q 385 526 385 590 q 435 417 385 457 q 571 376 485 376 q 833 477 713 376 q 1001 736 953 578 l 1017 732 q 861 461 986 568 q 574 354 736 354 q 413 407 474 354 q 351 547 351 460 q 508 826 351 710 q 883 942 664 942 q 1127 894 1033 942 q 1286 738 1221 847 q 1465 843 1379 803 m 618 43 q 703 17 663 25 q 790 8 744 8 q 992 60 899 8 q 1165 213 1086 111 q 1264 392 1228 293 q 1300 581 1300 490 q 1281 696 1300 638 q 1183 594 1222 642 q 1051 418 1143 546 q 863 195 940 263 q 618 43 785 128 m 556 44 q 333 93 433 93 q 249 81 282 93 q 217 49 217 68 q 252 19 217 32 q 339 7 288 7 q 556 44 440 7 z "},"E":{"ha":990,"x_min":336,"x_max":1315,"o":"m 717 601 l 736 601 q 789 738 736 669 q 939 860 842 806 q 1084 918 1001 894 q 1226 942 1167 942 q 1315 882 1315 942 q 1269 787 1315 840 q 1149 690 1222 733 q 976 611 1054 636 q 771 581 881 581 q 788 539 774 556 l 829 542 q 876 535 858 542 q 894 519 894 529 q 847 500 894 500 q 778 517 810 500 q 512 358 642 486 q 382 125 382 231 q 429 40 382 71 q 560 10 476 10 q 848 90 718 10 q 978 269 978 171 q 950 326 978 306 q 874 347 922 347 q 684 285 782 347 q 506 115 586 224 l 489 126 q 660 306 560 240 q 867 371 760 371 q 965 343 928 371 q 1003 269 1003 315 q 865 74 1003 163 q 561 -15 728 -15 q 394 31 453 -15 q 336 164 336 76 q 401 344 336 258 q 574 478 465 429 q 659 510 617 497 q 763 535 701 522 l 756 549 l 739 581 l 715 579 q 516 629 594 579 q 438 757 438 679 q 523 914 438 851 q 738 976 608 976 q 907 947 828 976 l 899 933 q 776 950 836 950 q 556 894 646 950 q 467 756 467 838 q 536 644 467 688 q 717 601 606 601 m 774 603 q 996 639 893 603 q 1172 732 1082 669 q 1260 810 1228 769 q 1293 882 1293 851 q 1232 919 1293 919 q 1115 894 1181 919 q 981 822 1050 869 q 811 668 883 757 q 790 640 793 647 q 774 603 786 633 z "},"F":{"ha":968,"x_min":125,"x_max":1550,"o":"m 986 331 l 938 313 q 958 379 946 354 q 1004 453 971 404 l 940 438 l 919 433 q 789 241 833 299 q 683 131 744 183 q 313 -15 513 -15 q 178 17 232 -15 q 125 97 125 49 q 156 169 125 136 q 224 201 188 201 q 251 190 239 201 q 264 164 264 179 q 249 131 264 144 q 215 118 235 118 q 192 126 210 118 l 178 131 q 151 96 151 131 q 194 34 151 58 q 303 10 236 10 q 549 99 433 10 q 828 417 665 189 q 665 374 724 397 q 514 290 606 350 l 504 313 q 653 391 579 363 q 847 443 726 419 q 1036 660 936 563 q 1242 825 1136 757 l 1253 813 q 1094 671 1163 747 q 935 458 1025 594 l 1028 478 q 1095 539 1061 514 q 1143 564 1129 564 q 1154 554 1154 564 q 1116 506 1154 540 q 1038 458 1078 472 q 1004 399 1013 419 q 986 331 996 379 m 1540 908 l 1550 896 q 1335 833 1458 833 q 1178 846 1265 833 q 1005 874 1143 850 q 803 899 867 899 q 496 776 613 899 q 419 615 419 696 q 458 526 419 558 q 565 494 497 494 q 828 594 697 494 q 896 659 865 622 q 967 760 926 696 l 983 751 q 561 468 831 468 q 440 508 486 468 q 394 614 394 549 q 435 740 394 678 q 550 853 475 801 q 874 938 676 938 q 1019 929 956 938 q 1167 904 1104 914 q 1404 876 1346 876 q 1540 908 1489 876 z "},"G":{"ha":992,"x_min":269,"x_max":1319,"o":"m 904 931 l 896 914 q 765 936 833 936 q 528 874 628 936 q 428 724 428 811 q 478 633 428 668 q 626 586 529 597 q 925 828 740 721 q 1228 935 1110 935 q 1294 915 1269 935 q 1319 863 1319 896 q 1273 765 1319 818 q 1150 669 1226 713 q 938 588 1060 619 q 694 557 817 557 q 567 339 567 417 q 668 268 567 268 q 842 315 749 268 q 1099 488 935 363 l 1110 472 q 1045 406 1063 432 q 983 290 1028 381 q 776 67 915 149 q 465 -15 638 -15 q 322 13 375 -15 q 269 88 269 40 q 296 153 269 125 q 358 181 322 181 q 399 147 399 181 q 388 120 399 132 q 361 108 376 108 l 344 113 l 321 121 q 313 117 317 119 q 304 110 308 114 q 293 83 293 99 q 339 28 293 50 q 458 6 385 6 q 726 83 617 6 q 842 194 794 131 l 881 247 l 901 274 q 924 301 914 290 q 983 367 933 313 l 1011 397 q 924 338 943 350 q 871 307 904 325 q 664 244 756 244 q 568 278 603 244 q 533 371 533 311 q 608 564 533 460 q 401 736 401 596 q 499 897 401 831 q 738 963 597 963 q 904 931 831 963 m 715 581 q 1106 673 917 581 q 1296 863 1296 765 q 1278 899 1296 885 q 1231 913 1260 913 q 946 794 1115 913 q 792 660 871 742 l 715 581 z "},"H":{"ha":981,"x_min":74,"x_max":1504,"o":"m 860 471 l 651 418 q 519 256 561 304 q 431 164 478 207 q 260 35 343 83 q 126 -14 176 -14 q 74 32 74 -14 q 244 243 74 115 q 373 327 311 293 q 568 418 435 361 q 700 570 651 518 q 808 678 749 622 q 896 759 861 728 q 978 828 931 790 q 903 807 924 811 q 863 803 883 803 q 801 813 828 803 q 731 851 774 822 q 678 881 700 872 q 632 889 656 889 q 497 836 560 889 q 435 722 435 783 q 461 663 435 685 q 532 640 488 640 q 646 668 597 640 q 744 761 694 696 l 758 753 q 666 653 728 690 q 532 615 604 615 q 444 645 479 615 q 408 719 408 675 q 489 861 408 799 q 671 924 569 924 q 735 914 711 924 q 826 857 758 904 q 904 831 867 831 q 1050 889 963 831 l 1124 942 l 1139 929 q 916 742 988 815 q 701 483 844 669 l 674 447 l 886 500 q 1260 849 1079 715 q 1376 922 1321 894 q 1461 949 1431 949 q 1504 913 1504 949 q 1381 739 1504 850 q 1206 610 1296 663 q 967 496 1115 557 q 735 199 811 310 q 660 47 660 88 q 693 15 660 15 q 974 190 769 15 l 990 175 q 806 35 875 78 q 693 -8 736 -8 q 629 67 629 -8 q 687 240 629 138 q 860 471 744 342 m 538 382 q 200 178 319 286 q 103 31 103 90 q 126 6 103 6 q 199 29 157 6 q 289 97 240 53 q 392 201 350 154 q 538 382 428 243 m 996 531 q 1368 763 1229 626 q 1444 848 1415 808 q 1472 910 1472 888 q 1453 928 1472 928 q 1367 892 1424 928 q 1246 799 1310 856 q 1135 688 1196 753 q 996 531 1074 622 z "},"I":{"ha":771,"x_min":-94,"x_max":1296,"o":"m 1067 649 l 1081 635 q 1057 610 1067 618 q 1025 586 1047 601 q 905 513 953 535 q 789 481 857 492 l 732 379 q 469 81 619 176 q 113 -14 318 -14 q -38 17 18 -14 q -94 100 -94 47 q -65 168 -94 139 q 6 197 -36 197 q 46 163 46 197 q 34 133 46 146 q 7 119 22 119 q -24 132 -3 119 l -36 136 q -58 123 -47 136 q -69 96 -69 110 q -20 32 -69 57 q 111 7 29 7 q 353 66 246 7 q 563 256 461 125 q 722 486 622 332 q 557 644 557 515 q 633 803 557 736 q 839 890 708 869 q 956 908 904 901 q 1028 914 1007 914 l 1051 915 l 1138 921 q 1178 924 1167 921 q 1233 943 1206 933 q 1281 953 1261 953 q 1296 943 1296 953 q 1264 926 1296 933 l 1232 918 l 1200 911 q 1108 865 1161 903 q 1000 772 1054 828 q 906 663 946 717 q 804 507 865 608 q 943 558 878 524 q 1067 649 1008 592 m 738 508 q 1142 904 911 785 l 1031 894 q 872 874 944 894 q 749 821 814 857 q 630 728 671 779 q 589 625 589 678 q 624 549 589 576 q 738 508 658 521 z "},"J":{"ha":690,"x_min":-136,"x_max":1246,"o":"m 986 653 l 1001 640 q 711 493 896 519 l 603 324 q 546 239 564 264 q 488 158 510 190 q 572 194 549 182 q 653 238 586 201 l 667 244 l 678 225 q 588 178 638 201 q 463 122 538 154 q 186 -128 324 -39 q -60 -217 49 -217 q -115 -200 -94 -217 q -136 -156 -136 -183 q -92 -66 -136 -111 q 32 15 -47 -21 q 115 49 68 32 q 214 82 172 69 l 364 122 q 422 196 383 146 q 488 281 454 236 l 618 463 l 640 493 q 478 653 478 529 q 545 801 478 733 q 719 896 613 869 q 812 915 769 908 q 919 921 854 921 l 1040 926 l 1110 928 q 1141 935 1125 928 q 1182 949 1157 943 q 1228 954 1207 954 q 1246 944 1246 954 q 1215 924 1246 936 q 1154 913 1183 913 q 1131 910 1138 913 q 1096 892 1114 901 q 729 518 917 794 q 986 653 860 535 m 343 94 q 144 33 213 58 q 17 -28 76 7 q -110 -158 -110 -103 q -58 -194 -110 -194 q 142 -111 33 -194 q 222 -38 175 -85 q 343 94 268 8 m 656 517 q 874 758 785 676 q 1086 907 963 839 l 958 901 q 644 822 776 901 q 511 638 511 742 q 549 556 511 589 q 656 517 588 524 z "},"K":{"ha":1090,"x_min":69,"x_max":1522,"o":"m 1250 921 l 1261 906 q 1058 746 1168 844 q 954 642 1001 694 q 861 529 907 590 l 822 475 l 742 356 l 701 294 q 476 69 608 153 q 215 -14 344 -14 q 110 14 150 -14 q 69 89 69 42 q 101 163 69 131 q 171 196 132 196 q 199 186 188 196 q 210 161 210 176 q 197 132 210 144 q 167 119 185 119 l 147 124 l 131 128 q 96 83 96 128 q 126 29 96 50 q 210 8 157 8 q 399 74 310 8 q 499 164 454 114 q 635 335 543 214 q 782 519 715 442 q 907 651 843 590 q 958 700 938 682 q 1038 764 1003 740 l 1090 800 l 1117 819 l 1150 843 q 1048 804 1078 813 q 982 796 1018 796 q 908 807 936 796 q 829 856 879 818 q 701 904 765 904 q 528 847 604 904 q 451 718 451 790 q 487 640 451 668 q 583 611 522 611 q 817 721 719 611 l 831 713 q 727 617 790 651 q 592 583 664 583 q 472 619 519 583 q 425 713 425 656 q 515 867 425 800 q 725 933 606 933 q 808 921 776 933 q 915 858 840 908 q 1021 826 963 826 q 1153 864 1082 826 l 1250 921 m 1472 882 l 1472 894 q 1461 907 1472 907 q 1410 878 1438 907 q 1307 749 1382 850 q 1115 535 1196 599 q 936 457 1033 471 q 975 363 975 418 q 951 263 975 307 q 849 129 928 219 q 789 29 789 61 q 817 8 789 8 q 940 56 860 8 q 1119 186 1021 103 l 1135 168 l 1096 139 q 1003 69 1040 94 q 935 26 965 43 q 814 -17 857 -17 q 751 53 751 -17 q 772 132 751 92 q 847 235 793 172 q 921 334 900 297 q 942 403 942 371 q 913 453 942 433 q 889 450 904 450 q 840 467 840 450 q 875 481 840 481 q 919 469 901 481 q 956 475 942 469 q 999 498 971 481 q 1046 531 1028 515 q 1092 576 1056 539 l 1114 600 l 1167 661 l 1193 690 q 1377 877 1310 819 q 1483 935 1444 935 q 1522 903 1522 935 q 1513 880 1522 889 q 1490 871 1504 871 q 1472 882 1472 871 z "},"L":{"ha":1046,"x_min":19,"x_max":1465,"o":"m 1021 943 l 1017 925 q 924 942 982 935 q 829 949 867 949 q 549 870 663 949 q 436 678 436 792 q 529 526 436 582 q 783 471 622 471 l 840 472 q 984 655 918 581 q 1132 800 1050 729 q 1274 899 1204 864 q 1396 935 1344 935 q 1465 868 1465 935 q 1407 735 1465 810 q 1249 593 1349 660 q 910 456 1099 492 l 838 340 q 504 53 725 158 q 704 11 625 11 q 855 52 778 11 q 1044 192 932 93 l 1060 178 q 848 26 940 71 q 654 -18 756 -18 q 550 -10 592 -18 q 432 25 508 -1 q 183 -14 294 -14 q 63 3 107 -14 q 19 49 19 19 q 66 104 19 82 q 186 126 113 126 q 268 119 222 126 q 351 101 314 113 l 471 64 q 632 185 571 119 q 825 451 693 250 q 701 453 746 451 q 599 472 657 456 q 458 552 508 497 q 408 681 408 607 q 530 887 408 801 q 822 972 651 972 q 922 964 865 972 q 1021 943 979 956 m 922 479 q 1086 529 1018 500 q 1236 614 1154 558 q 1384 747 1326 676 q 1442 868 1442 818 q 1394 914 1442 914 q 1157 776 1297 914 q 1052 661 1096 717 q 922 479 1008 606 m 394 40 q 359 51 378 44 q 319 65 340 58 q 230 89 279 79 q 144 99 181 99 q 74 85 103 99 q 46 53 46 72 q 83 19 46 32 q 183 7 119 7 q 267 13 233 7 q 394 40 300 18 z "},"M":{"ha":1022,"x_min":-76,"x_max":1385,"o":"m 681 310 l 761 410 q 897 569 818 482 q 1040 722 975 657 q 1363 939 1256 939 l 1385 938 q 1251 785 1315 864 q 1081 567 1186 706 q 992 447 1014 478 q 886 299 958 401 l 806 186 q 732 40 732 79 q 758 14 732 14 q 1033 182 829 14 l 1047 165 q 878 40 958 88 q 760 -8 799 -8 q 697 58 697 -8 q 747 214 697 122 q 906 439 797 306 q 1034 591 972 521 q 1206 779 1096 661 l 1343 921 q 1247 878 1289 906 q 1124 776 1204 850 q 1033 686 1083 739 q 918 560 983 633 q 776 393 825 454 l 738 343 l 697 293 l 657 243 q 451 17 515 67 q 393 -10 417 -10 q 357 33 357 -10 q 414 203 357 103 q 596 451 471 304 q 917 801 746 631 q 1044 921 979 864 q 970 896 999 910 q 896 847 942 882 q 772 742 832 800 q 619 586 711 685 l 578 542 q 456 408 476 431 q 297 231 424 374 q 106 38 169 89 q -8 -14 42 -14 q -58 6 -40 -14 q -76 57 -76 25 q -54 123 -76 93 q -4 153 -32 153 q 28 125 28 153 q -25 81 28 81 q -42 71 -35 81 q -49 49 -49 61 q -3 11 -49 11 q 99 64 36 11 q 242 207 151 110 l 326 301 l 417 401 q 826 820 681 697 q 1061 943 972 943 l 1089 940 q 858 679 1000 854 q 449 135 621 386 q 419 93 426 104 q 397 56 404 69 l 389 28 q 403 14 389 14 q 435 31 413 14 q 463 54 449 40 q 525 119 490 81 q 604 213 560 158 q 622 236 614 224 q 681 310 642 263 z "},"N":{"ha":922,"x_min":-57,"x_max":1393,"o":"m 565 549 l 596 593 q 772 808 686 724 q 925 922 851 888 q 890 861 901 886 q 864 793 878 836 l 835 681 l 822 629 l 811 578 l 800 526 q 726 289 775 411 q 613 58 676 167 q 754 222 674 117 q 789 272 775 253 q 879 401 864 379 l 1018 608 q 1202 848 1126 772 q 1333 924 1278 924 q 1376 907 1360 924 q 1393 864 1393 890 q 1376 810 1393 833 q 1335 788 1358 788 q 1313 797 1322 788 q 1304 817 1304 806 q 1343 850 1304 843 q 1365 871 1365 856 q 1354 893 1365 883 q 1326 903 1343 903 q 1204 821 1279 903 q 1064 640 1142 751 l 999 543 l 928 436 q 782 225 843 307 q 650 65 721 143 q 588 2 604 15 q 553 -14 572 -11 q 611 101 588 40 q 626 151 617 118 q 642 213 635 183 l 654 260 l 665 307 l 676 354 q 761 659 728 572 q 874 868 794 746 q 728 725 789 797 q 521 453 667 653 q 223 91 335 196 q 21 -14 111 -14 q -35 6 -14 -14 q -57 61 -57 26 q -33 127 -57 99 q 22 156 -8 156 q 56 124 56 156 q 10 82 56 86 q -28 49 -28 82 q 24 7 -28 7 q 127 42 72 7 q 256 157 182 76 q 431 365 331 238 l 533 506 l 565 549 z "},"O":{"ha":871,"x_min":182,"x_max":1200,"o":"m 893 632 l 908 624 q 788 444 867 518 q 640 369 710 369 q 564 450 564 369 q 595 554 564 499 q 679 654 626 610 q 808 736 738 704 q 932 768 878 768 q 1008 741 981 768 q 1035 665 1035 714 q 979 480 1035 585 q 821 260 924 375 q 583 58 707 132 q 356 -15 458 -15 q 227 31 272 -15 q 182 164 182 78 q 257 416 182 286 q 476 669 332 546 q 774 867 619 793 q 1047 940 928 940 q 1159 908 1118 940 q 1200 818 1200 875 q 1183 749 1200 783 q 1134 687 1167 715 q 1076 658 1101 658 l 1060 663 q 1143 728 1111 685 q 1175 819 1175 772 q 1141 892 1175 865 q 1050 919 1107 919 q 768 824 922 919 q 472 564 614 729 q 356 417 410 492 q 271 292 301 343 q 221 128 221 204 q 257 38 221 69 q 357 6 293 6 q 649 128 485 6 q 903 398 793 236 q 1014 663 1014 560 q 933 749 1014 749 q 810 709 876 749 q 679 596 744 669 q 592 435 592 496 q 644 390 592 390 q 776 460 704 390 q 893 632 847 529 z "},"P":{"ha":1083,"x_min":88,"x_max":1364,"o":"m 1364 939 l 1364 917 l 1274 858 q 1351 679 1351 781 q 1260 474 1351 569 q 1064 379 1169 379 q 990 440 990 379 q 1013 499 990 471 q 1075 546 1035 526 l 1083 529 q 1013 440 1013 490 q 1063 401 1013 401 q 1230 499 1149 401 q 1311 704 1311 597 q 1253 844 1311 796 q 1197 797 1218 817 q 1143 740 1176 778 q 1044 617 1088 678 q 903 399 1001 557 q 727 164 806 242 q 539 40 649 86 q 413 -1 472 11 q 286 -14 354 -14 q 88 97 88 -14 q 118 167 88 136 q 190 197 149 197 q 239 157 239 197 q 194 118 239 118 q 165 131 183 118 q 160 133 164 132 q 153 135 157 133 q 125 122 136 135 q 114 89 114 108 q 159 31 114 53 q 279 8 204 8 q 549 97 432 8 q 851 446 665 186 q 996 635 943 575 q 1129 768 1049 696 q 1185 817 1164 799 q 1239 858 1207 835 q 1000 918 1146 918 q 557 796 743 918 q 402 653 458 731 q 346 507 346 576 q 376 431 346 458 q 463 403 407 403 q 713 522 585 403 q 913 824 840 642 l 931 818 q 743 501 874 628 q 475 375 613 375 q 362 410 403 375 q 321 508 321 446 q 381 666 321 583 q 543 815 440 749 q 982 939 736 939 q 1134 924 1071 939 q 1257 872 1197 908 q 1308 906 1297 899 q 1364 939 1338 925 z "},"Q":{"ha":886,"x_min":182,"x_max":1200,"o":"m 893 632 l 908 624 q 788 444 867 518 q 640 369 710 369 q 564 450 564 369 q 595 554 564 499 q 679 654 626 610 q 808 736 738 704 q 932 768 878 768 q 1008 741 981 768 q 1035 665 1035 714 q 979 480 1035 585 q 821 260 924 375 q 722 162 769 203 q 593 64 674 121 q 693 0 638 0 q 789 35 733 0 q 900 131 844 69 l 918 119 q 781 6 856 49 q 643 -36 707 -36 q 574 -22 599 -36 q 532 31 550 -8 q 356 -15 429 -15 q 227 31 272 -15 q 182 164 182 78 q 257 416 182 286 q 476 669 332 546 q 774 867 619 793 q 1047 940 928 940 q 1159 908 1118 940 q 1200 818 1200 875 q 1183 749 1200 783 q 1134 687 1167 715 q 1076 658 1101 658 l 1060 663 q 1143 728 1111 685 q 1175 819 1175 772 q 1141 892 1175 865 q 1050 919 1107 919 q 768 824 922 919 q 472 564 614 729 q 356 417 410 492 q 271 292 301 343 q 221 128 221 204 q 257 38 221 69 q 357 6 293 6 q 525 53 439 6 q 483 135 507 113 q 418 158 460 158 q 353 144 388 158 q 276 97 319 129 l 265 113 q 344 163 301 144 q 429 181 386 181 q 514 161 483 181 q 581 82 544 142 q 698 168 657 133 q 800 269 739 203 q 957 485 900 381 q 1014 663 1014 589 q 933 749 1014 749 q 810 709 876 749 q 679 596 744 669 q 592 435 592 496 q 644 390 592 390 q 776 460 704 390 q 893 632 847 529 z "},"R":{"ha":1175,"x_min":46,"x_max":1394,"o":"m 1388 924 l 1394 906 q 1324 876 1351 889 q 1267 844 1296 863 q 1322 699 1322 779 q 1044 419 1322 478 q 1063 343 1063 379 q 1015 204 1063 269 l 960 136 l 946 119 l 931 103 l 917 86 q 878 26 878 42 q 903 8 878 8 q 1035 56 951 8 q 1215 186 1119 104 l 1231 169 q 1035 31 1118 76 q 897 -14 951 -14 q 844 49 844 -14 q 868 133 844 92 q 960 247 892 174 q 1033 383 1033 329 q 1025 419 1033 396 l 1014 419 q 929 450 929 419 q 954 465 929 465 q 1036 436 999 465 q 1204 558 1132 465 q 1276 746 1276 651 q 1246 832 1276 789 q 1069 683 1138 760 q 869 408 1001 607 q 691 180 769 258 q 507 49 613 101 q 242 -14 379 -14 q 99 18 151 -14 q 46 106 46 50 q 78 178 46 143 q 146 213 110 213 q 189 176 189 213 q 175 144 189 160 q 146 129 161 129 l 118 139 l 106 143 q 83 131 93 143 q 74 100 74 118 q 118 35 74 60 q 235 10 163 10 q 515 115 378 10 q 679 279 594 176 l 808 443 q 1026 688 925 592 q 1231 849 1126 785 q 1117 901 1181 885 q 964 918 1054 918 q 730 885 842 918 q 530 789 618 851 q 390 649 442 726 q 339 501 339 571 q 374 424 339 453 q 465 394 408 394 q 620 441 538 394 q 765 561 703 488 q 851 688 817 622 q 907 831 886 753 l 928 825 q 757 499 875 615 q 617 404 696 440 q 468 368 539 368 q 356 406 399 368 q 313 506 313 443 q 377 676 313 586 q 547 831 442 765 q 963 938 725 938 q 1126 921 1064 938 q 1251 860 1189 904 q 1388 924 1321 903 z "},"S":{"ha":976,"x_min":18,"x_max":1475,"o":"m 907 457 l 900 446 l 885 422 q 800 294 825 331 q 743 221 775 258 q 268 -14 546 -14 q 87 23 156 -14 q 18 119 18 60 q 50 193 18 161 q 126 225 82 225 q 172 188 172 225 q 158 156 172 168 q 125 143 144 143 q 93 158 113 143 l 78 163 q 53 150 64 163 q 42 119 42 138 q 99 40 42 71 q 249 10 157 10 q 528 111 396 10 q 821 451 660 213 l 776 451 q 506 513 606 451 q 406 679 406 574 q 526 890 406 804 q 819 975 646 975 q 905 969 868 975 q 1011 946 942 964 l 1007 925 q 825 949 915 949 q 545 870 661 949 q 429 681 429 792 q 522 528 429 583 q 779 472 615 472 l 836 472 q 913 576 875 525 q 986 665 951 628 q 1208 861 1097 789 q 1397 933 1319 933 q 1453 915 1431 933 q 1475 869 1475 897 q 1290 621 1475 756 q 907 457 1104 486 m 919 479 q 1256 626 1093 513 q 1397 753 1344 689 q 1450 864 1450 818 q 1397 913 1450 913 q 1178 801 1300 913 q 919 479 1056 690 z "},"T":{"ha":910,"x_min":107,"x_max":1535,"o":"m 1526 908 l 1535 896 q 1317 833 1440 833 q 1203 842 1267 833 q 964 879 1139 850 q 782 899 851 899 q 503 799 614 899 q 401 617 401 708 q 549 493 401 493 q 770 563 665 493 q 944 757 875 632 l 961 754 q 793 549 907 629 q 553 468 679 468 q 425 507 474 468 q 376 611 376 546 q 522 843 376 739 q 858 935 650 935 q 1144 906 957 935 q 1302 882 1244 889 q 1388 875 1360 875 q 1463 882 1433 875 q 1526 908 1492 889 m 1224 825 l 1233 814 l 1217 800 q 1126 721 1160 753 q 1043 632 1085 681 q 911 450 983 564 l 885 410 l 860 369 l 833 331 q 585 74 719 161 q 294 -14 450 -14 q 158 15 208 -14 q 107 96 107 44 q 139 167 107 133 q 208 200 171 200 q 247 161 247 200 q 235 131 247 143 q 203 118 222 118 q 188 119 192 118 q 169 129 178 125 l 160 132 q 131 96 131 132 q 176 33 131 58 q 290 8 221 8 q 556 118 433 8 q 639 200 604 163 q 738 321 674 238 l 869 492 q 1037 680 951 599 q 1224 825 1122 761 z "},"U":{"ha":1050,"x_min":354,"x_max":1451,"o":"m 1365 921 l 1451 921 l 1181 567 l 988 314 l 900 200 q 811 82 831 111 q 792 33 792 53 q 819 7 792 7 q 953 57 865 7 q 1138 188 1042 107 l 1151 171 l 1086 121 q 933 23 1008 61 q 814 -15 857 -15 q 771 1 788 -15 q 754 46 754 18 q 774 119 754 82 q 856 239 793 156 l 935 347 l 892 304 q 615 57 715 128 q 440 -14 515 -14 q 374 58 374 -14 q 405 167 374 113 q 526 328 436 222 l 764 606 q 874 747 849 706 q 899 828 899 788 q 862 892 899 867 q 765 917 825 917 q 500 824 624 917 q 376 624 376 731 q 399 565 376 586 q 460 544 421 544 q 557 576 504 544 q 654 660 610 607 q 744 851 719 736 l 764 849 q 653 615 739 707 q 457 524 567 524 q 383 551 413 524 q 354 624 354 579 q 482 839 354 742 q 765 936 610 936 q 893 899 844 936 q 942 799 942 861 q 928 726 942 760 q 875 639 914 692 q 821 569 853 608 q 750 483 789 529 l 521 218 q 434 107 463 151 q 406 40 406 63 q 444 7 406 7 q 590 65 501 7 q 804 244 679 124 q 922 363 854 292 q 1028 479 990 435 q 1196 690 1078 538 q 1300 829 1251 763 q 1365 921 1344 889 z "},"V":{"ha":1049,"x_min":321,"x_max":1624,"o":"m 1119 932 l 1132 918 l 1093 882 q 1048 836 1078 867 q 982 765 1018 806 q 817 532 910 685 q 708 357 738 401 q 644 265 679 313 q 540 142 594 199 q 422 28 486 85 l 396 4 q 553 53 490 26 q 690 135 615 81 q 926 344 813 222 q 990 421 929 347 q 1036 472 1022 456 l 1072 514 l 1107 557 l 1142 600 q 1387 861 1288 779 q 1558 943 1486 943 q 1624 893 1624 943 q 1609 856 1624 872 q 1578 840 1594 840 q 1547 868 1547 840 q 1565 892 1547 883 q 1582 906 1582 900 q 1556 922 1582 922 q 1417 857 1500 922 q 1203 638 1324 782 l 1161 588 l 1126 544 l 1092 503 l 1057 460 q 847 233 951 328 q 638 74 743 138 q 501 11 576 38 q 376 -15 425 -15 l 351 -14 q 400 33 386 18 q 443 83 414 49 q 527 199 485 135 q 663 419 569 264 q 787 605 738 544 q 949 768 836 665 l 1028 842 q 854 786 931 786 q 781 800 811 786 q 707 857 751 814 q 596 913 650 913 q 424 849 504 913 q 344 713 344 786 q 376 644 344 671 q 463 618 408 618 q 585 654 524 618 q 692 754 646 690 l 707 746 q 463 596 621 596 q 360 626 399 596 q 321 710 321 657 q 411 867 321 796 q 614 938 501 938 q 698 922 667 938 q 785 854 729 907 q 875 810 833 810 q 1119 932 982 810 z "},"W":{"ha":1269,"x_min":339,"x_max":1801,"o":"m 1114 917 l 1128 900 l 1069 849 q 933 706 976 761 q 818 536 889 651 q 710 365 742 413 q 639 267 678 317 q 530 144 596 211 q 392 11 464 76 q 496 51 458 32 q 592 118 533 71 q 675 193 639 158 q 751 275 717 235 q 886 447 800 333 q 1192 790 1050 664 q 1413 917 1333 917 l 1449 910 l 1404 868 q 1307 764 1365 833 q 1234 670 1267 717 q 1146 536 1201 624 q 988 305 1056 396 q 856 147 921 214 l 760 54 l 706 8 q 849 69 793 36 q 984 174 906 103 q 1171 372 1063 244 l 1294 524 l 1336 575 l 1376 626 q 1514 783 1443 711 q 1638 893 1585 856 q 1747 936 1696 936 q 1786 924 1771 936 q 1801 890 1801 911 q 1786 854 1801 869 q 1750 839 1771 839 q 1724 864 1724 839 q 1747 890 1724 881 q 1753 895 1750 892 q 1757 900 1756 899 q 1736 914 1757 914 q 1684 897 1717 914 q 1619 853 1651 881 q 1432 658 1539 786 l 1354 563 l 1272 463 q 922 91 1056 196 q 657 -14 789 -14 q 781 124 731 57 q 916 323 832 190 q 1073 549 1000 456 q 1253 751 1146 642 q 1331 829 1293 794 q 1410 900 1368 864 q 1333 874 1368 893 q 1247 813 1299 854 q 901 433 1094 686 q 756 250 806 307 q 642 135 707 193 q 485 22 558 58 q 339 -14 411 -14 q 400 49 385 32 q 444 101 424 74 q 558 258 504 176 l 614 347 l 644 396 l 674 443 q 765 572 714 508 q 868 690 815 636 l 975 790 l 1015 828 q 919 788 954 799 q 844 776 885 776 q 786 787 807 776 q 704 849 765 797 q 599 900 643 900 q 446 840 518 900 q 374 713 374 781 q 403 647 374 671 q 483 624 432 624 q 595 651 542 624 q 692 732 649 679 l 706 724 q 615 633 675 668 q 492 599 556 599 q 389 629 428 599 q 350 710 350 660 q 433 858 350 792 q 622 925 517 925 q 702 908 668 925 q 776 850 736 892 q 822 811 804 821 q 868 801 840 801 q 1114 917 974 801 z "},"X":{"ha":1021,"x_min":129,"x_max":1496,"o":"m 786 832 l 806 832 q 706 624 789 704 q 506 543 622 543 q 410 575 447 543 q 372 657 372 607 q 492 847 372 763 q 761 932 611 932 q 981 738 981 932 q 971 640 981 707 q 1245 866 1128 799 q 1440 933 1363 933 q 1496 883 1496 933 q 1449 774 1496 835 q 1314 649 1401 714 q 869 438 1157 535 q 797 340 831 388 q 731 240 757 283 q 678 138 697 189 q 658 51 658 86 q 706 4 658 4 q 824 49 749 4 q 996 178 900 94 l 1011 164 q 704 -18 800 -18 q 625 97 625 -18 q 650 225 625 150 q 409 45 524 107 q 203 -17 294 -17 q 129 38 129 -17 q 326 253 129 135 q 549 361 417 307 l 668 404 l 703 417 l 736 428 l 786 446 q 841 518 818 485 q 893 602 864 551 q 935 692 922 653 q 947 771 947 731 q 901 874 947 836 q 772 911 856 911 q 515 832 631 911 q 399 656 399 753 q 428 590 399 615 q 507 565 457 565 q 681 643 599 565 q 786 832 763 721 m 892 468 q 1114 556 1019 513 q 1282 651 1208 600 q 1419 772 1363 707 q 1475 875 1475 836 q 1435 914 1475 914 q 1314 876 1385 914 q 1161 771 1243 839 q 1037 649 1096 715 q 892 468 978 583 m 751 399 l 765 415 q 337 234 519 346 q 154 40 154 122 q 203 4 154 4 q 445 102 306 4 q 722 364 585 200 l 751 399 z "},"Y":{"ha":1035,"x_min":158,"x_max":1504,"o":"m 1057 208 l 1069 192 q 1014 151 1054 178 q 910 88 944 107 q 854 58 875 69 q 813 38 833 47 q 747 14 793 29 q 612 -144 668 -87 q 492 -242 556 -200 q 244 -335 347 -335 q 158 -278 158 -335 q 202 -193 158 -239 q 324 -107 246 -147 q 476 -44 375 -79 l 610 -3 l 663 14 l 732 106 l 767 153 l 832 242 q 889 318 861 281 q 947 400 910 347 q 878 333 893 347 q 801 265 849 306 q 511 111 615 111 q 432 185 432 111 q 594 463 432 297 l 725 597 q 849 743 814 692 q 883 832 883 794 q 739 917 883 917 q 458 828 592 917 q 324 640 324 739 q 407 569 324 569 q 598 648 497 569 q 754 842 699 726 l 771 836 q 705 715 738 760 q 617 628 672 671 q 407 547 508 547 q 328 572 358 547 q 297 640 297 597 q 440 842 297 746 q 743 938 583 938 q 910 821 910 938 q 863 667 910 747 q 711 483 815 586 q 640 413 676 450 q 591 360 619 392 q 540 303 563 329 q 496 249 508 267 q 461 172 461 200 q 474 144 461 156 q 507 133 486 133 q 782 279 611 133 q 883 369 839 328 q 986 471 926 411 l 1122 614 l 1172 665 l 1221 718 l 1269 769 q 1350 853 1333 836 q 1426 926 1381 885 l 1504 926 l 1396 814 q 1144 538 1215 621 q 968 313 1064 443 l 857 164 q 812 105 835 135 q 769 46 789 75 q 902 106 836 69 q 1057 208 968 143 m 640 -15 l 567 -39 l 451 -76 q 267 -171 347 -111 q 188 -276 188 -231 q 239 -312 188 -312 q 427 -241 331 -312 q 640 -15 524 -169 z "},"Z":{"ha":1101,"x_min":107,"x_max":1446,"o":"m 1082 474 l 1088 463 q 1012 429 1049 439 q 924 419 975 419 l 885 421 q 728 224 804 297 q 518 68 651 150 q 767 39 676 39 q 992 78 917 39 q 1106 218 1067 118 l 1125 213 q 995 44 1086 103 q 775 -15 904 -15 q 665 -5 718 -15 q 479 44 611 6 q 239 -15 356 -15 q 142 0 178 -15 q 107 43 107 15 q 152 93 107 74 q 271 113 197 113 q 354 106 311 113 q 490 76 397 99 q 586 156 546 115 q 685 269 626 196 q 803 429 760 365 l 767 432 q 647 399 696 432 l 636 410 q 703 457 667 443 q 797 471 740 471 l 833 469 q 922 585 894 551 q 1001 675 949 619 q 1056 731 1036 711 q 1093 765 1076 751 q 967 785 1029 765 q 825 843 919 799 q 722 885 757 875 q 646 894 688 894 q 485 840 556 894 q 414 717 414 786 q 449 649 414 674 q 543 624 483 624 q 667 653 607 624 q 767 735 726 682 l 779 725 q 546 599 689 599 q 433 631 476 599 q 390 715 390 663 q 481 867 390 801 q 689 932 571 932 q 788 919 744 932 q 904 868 831 907 q 1025 810 992 822 q 1118 788 1058 797 q 1274 890 1196 851 q 1404 929 1351 929 q 1446 897 1446 929 q 1349 806 1446 850 q 1146 761 1253 761 l 1125 761 q 1092 725 1106 742 q 1056 680 1085 715 q 1018 629 1028 644 q 933 501 983 576 l 907 463 l 983 458 q 1022 460 1014 458 q 1082 474 1031 461 m 1149 783 q 1333 821 1243 783 q 1422 899 1422 858 q 1404 910 1422 910 q 1288 875 1358 910 q 1149 783 1217 840 m 451 56 q 264 90 342 90 q 172 78 210 90 q 133 46 133 65 q 161 17 133 28 q 233 6 189 6 q 340 18 285 6 q 451 56 394 31 z "},"[":{"ha":549,"x_min":-44,"x_max":1017,"o":"m 858 958 l 29 -253 l 175 -253 l 161 -282 l -44 -282 l 821 986 l 1017 986 l 1000 958 l 858 958 z "},"\\":{"ha":788,"x_min":482,"x_max":901,"o":"m 529 986 l 901 -282 l 854 -282 l 482 986 l 529 986 z "},"]":{"ha":549,"x_min":-186,"x_max":875,"o":"m -28 -254 l 800 957 l 656 957 l 669 986 l 875 986 l 10 -282 l -186 -282 l -169 -254 l -28 -254 z "},"^":{"ha":694,"x_min":275,"x_max":846,"o":"m 311 546 l 275 546 l 542 926 l 579 926 l 846 546 l 808 546 l 558 904 l 311 546 z "},"_":{"ha":694,"x_min":-232,"x_max":463,"o":"m -232 -115 l 463 -115 l 463 -144 l -232 -144 l -232 -115 z "},"`":{"ha":694,"x_min":451,"x_max":596,"o":"m 554 649 l 596 496 l 568 496 l 451 649 l 554 649 z "},"a":{"ha":615,"x_min":57,"x_max":674,"o":"m 663 421 l 436 122 q 394 60 407 83 q 381 24 381 38 q 403 4 381 4 q 508 56 433 4 q 661 182 582 107 l 674 169 q 594 97 643 138 q 510 32 546 57 q 401 -15 440 -15 q 353 47 353 -15 q 369 122 353 78 l 294 63 q 201 8 249 31 q 122 -14 153 -14 q 57 61 57 -14 q 203 301 57 175 q 347 397 269 360 q 479 435 425 435 q 540 381 540 435 l 536 346 l 590 421 l 663 421 m 483 415 q 372 366 442 415 q 217 226 303 317 q 124 114 158 167 q 89 35 89 61 q 121 6 89 6 q 321 110 196 6 q 464 256 407 179 q 521 378 521 332 q 483 415 521 415 z "},"b":{"ha":524,"x_min":58,"x_max":900,"o":"m 563 194 l 565 172 q 525 165 544 165 q 449 211 468 165 l 397 156 q 256 36 335 85 q 125 -12 176 -12 q 58 54 58 -12 q 93 163 58 101 q 221 340 128 224 q 431 587 328 474 q 619 776 535 700 q 762 885 704 851 q 863 918 819 918 q 900 885 900 918 q 750 682 900 814 q 649 600 710 647 q 533 514 589 553 l 407 431 l 385 415 l 361 400 l 338 385 l 221 236 q 142 132 153 147 q 111 85 131 117 q 92 36 92 53 q 126 8 92 8 q 270 72 183 8 q 442 238 357 135 l 440 253 q 453 315 440 281 q 486 378 465 349 q 522 417 501 400 q 554 433 542 433 q 574 413 574 433 q 564 378 574 401 q 540 332 554 354 q 501 275 526 310 q 468 229 482 249 q 519 186 476 186 q 563 194 529 186 m 374 433 q 606 592 513 521 q 764 726 700 663 q 840 815 813 775 q 867 878 867 854 q 849 896 867 896 q 700 800 804 896 q 522 610 642 747 l 374 433 z "},"c":{"ha":425,"x_min":61,"x_max":532,"o":"m 454 190 l 468 172 q 365 92 408 124 q 288 42 322 61 q 131 -14 188 -14 q 61 65 61 -14 q 111 208 61 135 q 254 351 161 282 q 369 417 308 392 q 475 442 431 442 q 516 427 500 442 q 532 389 532 413 q 510 328 532 356 q 460 300 488 300 q 424 331 424 300 q 435 358 424 347 q 467 369 447 369 q 508 397 508 374 q 476 421 508 421 q 257 275 394 421 q 138 131 182 194 q 94 38 94 67 q 128 7 94 7 q 276 60 189 7 q 358 113 322 88 q 454 190 393 138 z "},"d":{"ha":610,"x_min":60,"x_max":979,"o":"m 979 833 l 444 136 q 381 29 381 51 q 404 7 381 7 q 492 46 436 7 q 657 179 549 85 l 669 165 q 515 38 593 90 q 401 -14 438 -14 q 349 47 349 -14 q 371 133 349 83 q 290 62 322 86 q 221 18 258 38 q 124 -15 161 -15 q 60 68 60 -15 q 101 188 60 124 q 215 311 142 251 q 354 399 282 365 q 479 432 426 432 q 535 376 535 432 l 531 347 l 901 833 l 979 833 m 478 413 q 375 367 440 413 q 232 240 310 322 q 94 35 94 96 q 126 3 94 3 q 217 36 160 3 q 336 125 275 69 q 466 265 415 196 q 517 371 517 333 q 478 413 517 413 z "},"e":{"ha":436,"x_min":60,"x_max":524,"o":"m 490 186 l 504 168 q 299 33 393 81 q 136 -14 204 -14 q 60 61 60 -14 q 236 332 60 192 q 360 407 294 378 q 475 436 426 436 q 524 401 524 436 q 433 285 524 344 q 175 174 342 226 q 96 38 96 86 q 136 6 96 6 q 476 176 260 6 l 490 186 m 199 201 q 319 247 269 224 q 408 299 368 269 q 474 356 449 328 q 499 403 499 385 q 479 419 499 419 q 357 360 433 419 q 199 201 281 300 z "},"f":{"ha":369,"x_min":-278,"x_max":874,"o":"m 160 132 l -206 -371 l -278 -371 l 118 174 q 108 206 108 193 q 123 247 108 229 q 182 299 138 265 l 224 329 l 276 396 q 383 532 344 482 q 451 617 428 589 q 676 841 574 760 q 833 922 778 922 q 874 883 874 922 q 675 621 874 807 q 564 521 593 546 q 411 400 504 469 l 383 379 l 357 358 l 282 300 l 174 151 q 243 132 206 132 q 317 143 282 132 q 397 182 353 154 l 407 163 q 240 110 315 110 q 200 114 215 110 q 160 132 185 118 m 335 372 q 455 460 404 419 q 592 578 506 501 q 793 783 742 713 q 840 878 840 849 q 819 897 840 897 q 642 767 763 897 q 335 372 521 636 z "},"g":{"ha":614,"x_min":-182,"x_max":671,"o":"m 671 421 l 353 10 q 506 81 444 47 q 660 179 567 115 l 671 163 q 499 55 558 86 q 328 -21 440 24 q 189 -181 247 -121 q 72 -283 131 -240 q -126 -369 -43 -369 q -182 -324 -182 -369 q -64 -176 -182 -258 q 258 -18 54 -94 l 375 131 q 287 67 311 82 q 256 47 263 51 q 128 4 178 4 q 63 76 63 4 q 107 198 63 135 q 238 325 151 261 q 367 399 299 371 q 485 428 435 428 q 543 379 543 428 l 536 336 l 603 421 l 671 421 m 218 -67 l 232 -50 q -31 -183 75 -108 q -115 -258 -85 -222 q -146 -321 -146 -294 q -112 -347 -146 -347 q -44 -325 -86 -347 q 38 -267 -3 -303 q 101 -203 58 -246 q 144 -157 125 -178 q 181 -117 163 -136 q 204 -85 196 -97 l 218 -67 m 483 407 q 265 276 406 407 q 142 142 189 204 q 96 51 96 81 q 132 24 96 24 q 338 126 206 24 q 473 258 422 192 q 524 371 524 325 q 483 407 524 407 z "},"h":{"ha":604,"x_min":-40,"x_max":843,"o":"m 335 393 l 207 224 q 544 436 439 436 q 589 385 589 436 q 531 265 589 332 l 415 131 q 359 60 375 85 q 343 22 343 36 q 369 7 343 7 q 426 24 389 7 q 503 67 464 40 q 566 112 542 93 q 654 185 590 131 l 668 169 q 363 -14 458 -14 q 308 40 308 -14 q 326 108 308 74 q 382 188 343 142 l 515 343 q 545 381 538 369 q 553 401 553 393 q 536 415 553 415 q 466 395 507 415 q 358 325 425 375 q 210 199 278 267 q 67 33 151 139 l 40 0 l -40 0 l 317 463 q 613 802 490 689 q 807 915 736 915 q 843 885 843 915 q 800 780 843 843 q 679 647 757 717 q 593 575 639 611 q 482 492 547 539 l 335 393 m 490 599 l 369 440 q 681 685 549 554 q 813 878 813 815 q 796 896 813 896 q 760 883 783 896 q 713 851 736 871 q 490 599 626 776 z "},"i":{"ha":289,"x_min":31,"x_max":496,"o":"m 346 421 l 117 119 q 90 86 106 106 q 75 64 82 76 q 58 22 58 36 q 78 6 58 6 q 188 56 114 6 q 290 139 235 89 l 308 156 l 339 182 l 353 168 q 182 28 246 69 q 75 -14 118 -14 q 31 40 31 -14 q 47 115 31 79 q 111 213 64 151 l 269 421 l 346 421 m 458 661 q 496 624 496 661 q 476 582 496 601 q 433 563 457 563 q 408 574 419 563 q 397 601 397 586 q 415 643 397 625 q 458 661 433 661 z "},"j":{"ha":301,"x_min":-390,"x_max":506,"o":"m 331 186 l 343 168 q 129 35 186 68 q 6 -31 72 1 q -218 -287 -133 -214 q -350 -360 -303 -360 q -390 -322 -390 -360 q -365 -252 -390 -290 q -287 -172 -339 -214 q -76 -39 -226 -122 l 276 421 l 354 421 l 35 4 q 117 50 75 26 q 178 86 165 78 l 203 103 l 331 186 m -100 -75 q -286 -203 -214 -135 q -358 -321 -358 -271 q -342 -337 -358 -337 q -249 -270 -311 -337 q -100 -75 -187 -203 m 468 660 q 506 624 506 660 q 485 578 506 599 q 442 558 465 558 q 415 569 426 558 q 404 597 404 581 q 424 640 404 621 q 468 660 443 660 z "},"k":{"ha":585,"x_min":-36,"x_max":871,"o":"m 347 401 l 236 257 q 326 331 293 307 q 402 379 358 354 q 488 418 446 404 q 563 432 531 432 q 617 390 617 432 q 589 332 617 363 q 513 279 561 301 q 369 243 465 257 q 421 182 421 224 q 358 54 421 132 q 343 21 343 35 q 360 7 343 7 q 469 60 388 7 q 632 186 550 113 l 644 169 q 474 39 556 90 q 357 -12 393 -12 q 300 40 300 -12 q 360 167 300 88 q 378 207 378 192 q 366 228 378 222 q 315 233 354 233 l 303 233 l 308 250 l 321 251 q 422 277 374 258 q 519 332 471 296 q 561 369 544 350 q 578 401 578 389 q 556 414 578 414 q 454 385 517 414 q 331 308 392 356 q 200 194 251 249 q 65 32 149 140 l 40 0 l -36 0 l 303 438 q 509 681 408 575 q 692 851 610 788 q 832 915 774 915 q 871 881 871 915 q 842 802 871 849 q 761 707 813 756 q 624 592 703 651 q 538 529 565 549 q 429 456 479 489 l 347 401 m 483 576 l 388 454 q 590 594 510 535 q 722 703 669 653 q 809 802 775 753 q 843 876 843 851 q 824 896 843 896 q 692 811 782 896 q 483 576 601 726 z "},"l":{"ha":382,"x_min":51,"x_max":883,"o":"m 314 342 l 290 325 q 201 211 242 265 q 136 121 185 189 q 83 26 83 47 q 107 6 83 6 q 372 186 174 6 l 386 169 q 238 47 311 100 q 104 -14 153 -14 q 51 50 51 -14 q 76 139 51 93 q 175 285 100 185 q 301 443 224 350 q 453 617 374 529 q 684 834 582 758 q 844 910 786 910 q 883 878 883 910 q 757 692 883 810 q 539 507 650 592 q 478 460 508 483 q 363 376 432 426 l 339 360 l 314 342 m 332 382 q 574 561 468 476 q 744 713 679 646 q 851 871 851 822 q 833 890 851 890 q 633 749 774 890 q 566 674 600 714 q 467 553 532 635 l 332 382 z "},"m":{"ha":863,"x_min":-31,"x_max":925,"o":"m 354 421 l 217 233 q 397 385 324 336 q 514 435 469 435 q 561 385 561 435 q 554 338 561 361 q 524 263 547 314 q 793 432 708 432 q 842 378 842 432 q 826 305 842 336 q 761 217 811 274 l 665 106 q 623 51 632 65 q 614 24 614 36 q 636 6 614 6 q 744 53 669 6 q 911 183 818 101 l 925 167 q 741 27 808 68 q 632 -14 674 -14 q 583 43 583 -14 q 599 115 583 82 q 665 204 615 147 l 746 297 q 810 397 810 372 q 790 413 810 413 q 609 312 731 413 q 376 67 488 211 l 325 0 l 250 0 l 440 250 q 513 351 494 321 q 532 397 532 381 q 513 415 532 415 q 322 301 454 415 q 78 43 189 188 l 44 0 l -31 0 l 286 421 l 354 421 z "},"n":{"ha":599,"x_min":-29,"x_max":661,"o":"m 357 421 l 222 235 q 329 330 288 296 q 408 387 371 364 q 477 422 446 410 q 529 435 508 435 q 578 386 578 435 q 504 239 578 325 l 401 117 q 340 22 340 43 q 361 6 340 6 q 475 55 397 6 q 647 186 553 104 l 661 169 q 470 28 539 69 q 361 -14 401 -14 q 310 40 310 -14 q 374 182 310 106 l 478 306 q 524 361 510 343 q 544 401 544 388 q 526 417 544 417 q 331 307 467 417 q 106 78 194 197 l 47 0 l -29 0 l 289 421 l 357 421 z "},"o":{"ha":519,"x_min":61,"x_max":531,"o":"m 531 201 l 531 179 l 499 175 q 438 201 465 175 q 356 109 386 139 q 297 56 326 79 q 143 -15 204 -15 q 61 65 61 -15 q 97 184 61 121 q 199 306 133 247 q 336 401 264 365 q 463 438 408 438 q 518 386 518 438 q 500 307 518 351 q 451 221 482 263 q 506 199 472 199 l 531 201 m 426 225 l 422 253 q 440 316 422 288 q 492 358 458 344 l 497 385 q 468 417 497 417 q 371 374 431 417 q 242 257 311 332 q 140 131 179 192 q 100 42 100 71 q 140 6 100 6 q 206 24 167 6 q 286 75 244 42 q 426 225 350 125 z "},"p":{"ha":600,"x_min":-297,"x_max":665,"o":"m 363 421 l 228 243 q 536 433 432 433 q 586 388 586 433 q 567 319 586 357 q 510 238 547 282 l 415 128 q 360 60 375 82 q 346 25 346 38 q 365 6 346 6 q 521 85 407 6 l 619 158 l 653 186 l 665 171 l 600 118 q 450 16 501 44 q 363 -12 399 -12 q 318 46 318 -12 q 332 111 318 81 q 382 183 346 142 l 503 322 q 543 372 533 357 q 553 400 553 388 q 535 415 553 415 q 357 328 471 415 q 215 201 275 264 q 74 35 154 139 l -217 -347 l -297 -347 l 293 421 l 363 421 z "},"q":{"ha":613,"x_min":4,"x_max":668,"o":"m 668 421 l 268 -100 l 657 183 l 668 168 l 224 -157 l 75 -347 l 4 -347 l 360 118 q 122 -14 207 -14 q 60 61 60 -14 q 196 294 60 179 q 348 393 267 354 q 486 432 429 432 q 539 381 539 432 l 532 335 l 596 421 l 668 421 m 481 414 q 382 373 443 414 q 248 259 321 332 q 133 126 175 186 q 90 35 90 65 q 124 4 90 4 q 221 38 163 4 q 351 133 279 71 q 519 376 519 279 q 481 414 519 414 z "},"r":{"ha":408,"x_min":-29,"x_max":574,"o":"m 81 44 l 46 0 l -29 0 l 293 421 l 369 421 l 122 101 l 439 349 q 487 418 465 401 q 550 435 508 435 l 574 435 q 532 394 546 410 q 505 359 518 378 q 485 324 492 340 q 482 315 483 321 q 517 290 482 297 q 485 283 497 283 q 439 322 443 283 l 81 44 z "},"s":{"ha":389,"x_min":-6,"x_max":401,"o":"m 324 397 l 68 176 l 56 193 l 326 422 q 356 485 338 458 q 390 511 374 511 q 401 499 401 511 q 385 460 401 483 q 339 411 368 436 l 336 374 l 339 329 l 344 256 q 217 46 344 135 q 136 3 179 19 q 64 -14 93 -14 q -6 46 -6 -14 q 10 92 -6 74 q 49 111 26 111 q 86 76 86 111 q 59 42 86 49 q 32 22 32 35 q 61 3 32 3 q 151 42 103 3 q 240 145 200 81 q 297 263 279 210 q 324 397 315 317 z "},"t":{"ha":342,"x_min":57,"x_max":583,"o":"m 424 494 l 147 131 q 99 61 114 86 q 85 24 85 36 q 106 4 85 4 q 213 57 136 4 q 361 181 289 110 l 376 165 q 205 28 269 71 q 103 -14 140 -14 q 57 47 57 -14 q 76 126 57 85 q 147 232 96 167 l 347 494 l 242 494 l 251 514 l 361 514 l 465 650 l 542 650 l 438 514 l 583 514 l 572 494 l 424 494 z "},"u":{"ha":578,"x_min":33,"x_max":635,"o":"m 622 421 l 435 168 q 385 100 424 153 q 356 56 369 79 q 343 24 343 33 q 364 6 343 6 q 457 50 394 6 q 519 96 490 72 q 622 182 542 114 l 635 168 q 456 27 518 68 q 360 -14 394 -14 q 314 46 314 -14 q 319 86 314 67 q 343 150 325 106 q 196 31 267 75 q 81 -14 125 -14 q 33 39 33 -14 q 51 119 33 79 q 114 214 69 158 l 276 421 l 356 421 l 114 111 q 61 26 61 43 q 86 6 61 6 q 261 100 147 6 q 478 329 375 194 l 547 421 l 622 421 z "},"v":{"ha":513,"x_min":56,"x_max":535,"o":"m 357 421 l 135 129 q 85 36 85 65 q 124 4 85 4 q 259 66 179 4 q 424 236 339 128 l 424 244 q 454 372 424 311 q 517 432 485 432 q 535 408 535 432 q 511 331 535 376 q 443 231 488 285 q 499 192 458 192 l 532 194 l 532 176 q 496 169 511 169 q 428 213 451 169 q 266 49 350 111 q 124 -14 182 -14 q 74 4 92 -14 q 56 56 56 22 q 77 140 56 94 q 146 247 99 185 l 279 421 l 357 421 z "},"w":{"ha":792,"x_min":42,"x_max":814,"o":"m 363 421 l 143 140 q 85 63 99 85 q 71 26 71 40 q 94 6 71 6 q 255 88 149 6 q 442 274 361 171 l 557 421 l 631 421 l 435 165 q 360 39 360 68 q 400 6 360 6 q 533 68 454 6 q 699 242 613 131 q 728 374 699 317 q 796 432 757 432 q 814 413 814 432 q 783 321 814 374 q 758 282 771 299 q 721 233 738 254 q 774 189 729 189 l 807 193 l 813 175 q 768 169 790 169 q 703 214 721 169 q 535 44 614 103 q 394 -14 456 -14 q 331 72 331 -14 q 344 140 331 100 q 203 28 272 71 q 92 -14 133 -14 q 42 40 42 -14 q 58 114 42 78 q 122 211 75 150 l 281 421 l 363 421 z "},"x":{"ha":639,"x_min":54,"x_max":719,"o":"m 644 186 l 656 169 q 468 28 533 68 q 361 -12 403 -12 q 316 9 329 -12 q 303 83 303 31 q 203 12 256 39 q 113 -15 151 -15 q 54 42 54 -15 q 78 103 54 76 q 133 129 101 129 q 172 94 172 129 q 161 67 172 79 q 133 54 150 54 l 124 56 l 100 60 q 78 33 78 60 q 114 4 78 4 q 281 113 182 4 q 412 278 360 199 q 464 388 464 357 q 429 414 464 414 q 359 394 399 414 q 283 342 319 374 q 231 289 257 318 q 160 208 199 254 l 142 222 q 306 387 240 339 q 435 435 372 435 q 478 418 461 435 q 494 374 494 401 q 489 333 494 354 q 663 433 590 433 q 719 379 719 433 q 698 320 719 346 q 647 294 676 294 q 611 328 611 294 q 621 354 611 343 q 646 365 631 365 l 672 364 q 686 371 679 364 q 693 388 693 378 q 661 414 693 414 q 590 381 629 414 q 482 264 550 349 q 421 186 435 204 q 383 132 407 168 q 339 35 339 64 q 365 7 339 7 q 485 63 403 7 q 644 186 531 93 z "},"y":{"ha":588,"x_min":-193,"x_max":642,"o":"m 632 179 l 642 164 q 479 63 553 101 q 299 -17 406 25 q 206 -135 235 -101 q 140 -204 178 -168 q -10 -322 63 -281 q -137 -364 -82 -364 q -193 -322 -193 -364 q -28 -142 -193 -246 q 126 -61 36 -101 q 156 -47 146 -51 q 199 -29 178 -36 l 214 -24 l 231 -17 l 365 164 q 208 33 278 78 q 94 -12 138 -12 q 43 47 43 -12 q 132 226 43 115 l 286 421 l 365 421 l 114 101 q 82 56 90 72 q 74 28 74 40 q 97 7 74 7 q 166 31 124 7 q 265 100 208 54 q 403 225 349 168 q 525 374 457 282 l 560 421 l 638 421 l 319 13 q 632 179 472 68 m 207 -47 q -42 -176 50 -107 q -126 -255 -94 -215 q -158 -321 -158 -294 q -128 -344 -158 -344 q 8 -275 -69 -344 q 207 -47 86 -206 z "},"z":{"ha":588,"x_min":29,"x_max":667,"o":"m 535 343 l 243 119 q 353 144 308 144 q 390 132 375 144 q 406 100 406 119 q 375 42 406 71 q 364 26 369 36 q 361 24 364 25 q 374 15 369 15 q 410 30 383 15 q 464 64 436 44 q 504 93 492 83 q 568 144 524 108 l 589 161 l 594 167 l 600 171 l 607 175 l 618 160 q 535 90 579 124 q 446 29 490 56 q 335 -14 375 -14 q 292 18 292 -14 q 336 89 292 44 q 353 114 353 108 q 338 125 353 125 q 281 115 317 125 q 211 90 246 106 q 143 51 176 74 q 74 0 126 40 q 46 -14 56 -14 q 29 -1 29 -14 q 40 16 29 6 q 74 40 50 26 l 169 94 l 496 343 q 432 332 458 332 q 386 338 401 332 q 354 360 371 343 l 126 172 l 115 188 l 346 378 l 346 392 q 364 435 346 415 q 401 454 382 454 q 425 431 425 454 q 375 371 425 403 q 436 350 397 350 q 473 352 458 350 q 522 365 488 354 q 650 440 607 440 q 667 428 667 440 q 624 380 667 407 q 535 343 581 353 z "},"{":{"ha":549,"x_min":39,"x_max":990,"o":"m 757 814 l 586 563 q 488 438 525 472 q 407 397 451 403 q 422 357 422 378 q 372 244 422 318 l 139 -101 q 96 -200 96 -167 q 116 -236 96 -225 q 186 -247 136 -247 l 161 -282 l 153 -282 q 39 -210 39 -282 q 53 -153 39 -185 q 111 -60 68 -122 l 321 251 q 372 353 372 329 q 340 399 372 381 l 354 417 q 438 444 404 417 q 531 561 471 472 l 688 793 l 719 843 q 822 964 783 942 q 968 986 861 986 l 990 986 l 965 950 q 852 935 879 950 q 776 844 825 919 l 757 814 z "},"|":{"ha":694,"x_min":463,"x_max":490,"o":"m 463 926 l 490 926 l 490 -232 l 463 -232 l 463 926 z "},"}":{"ha":549,"x_min":-172,"x_max":797,"o":"m 557 396 l 543 376 q 460 349 493 376 q 367 232 426 321 l 150 -90 q 16 -256 56 -231 q -149 -282 -24 -282 l -172 -282 l -151 -253 q -23 -232 -56 -253 q 79 -110 10 -211 l 310 232 q 408 356 369 321 q 490 397 446 392 q 475 438 475 414 q 525 549 475 474 l 697 806 q 743 911 743 872 q 723 946 743 935 q 653 957 703 957 l 674 986 l 685 986 q 797 914 797 986 q 783 858 797 889 q 725 764 768 826 l 576 543 q 525 440 525 465 q 557 396 525 414 z "},"~":{"ha":926,"x_min":624,"x_max":1283,"o":"m 647 838 l 624 851 q 797 982 699 982 q 865 968 826 982 q 963 921 903 954 q 1052 876 1022 888 q 1110 865 1082 865 q 1188 892 1154 865 q 1260 983 1222 919 l 1283 969 q 1203 869 1243 900 q 1111 839 1164 839 q 1046 851 1076 839 q 919 915 1015 864 q 796 957 840 957 q 719 930 753 957 q 647 838 685 903 z "},"":{"ha":410,"x_min":-124,"x_max":114,"o":"m -119 -128 l -124 -112 q -28 -65 -72 -99 q 8 -30 -8 -50 q 22 -1 24 -10 l 14 19 l 11 33 q 33 76 11 56 q 81 97 56 97 q 114 63 114 97 q 48 -42 114 13 q -119 -128 -18 -97 z "},"":{"ha":601,"x_min":-292,"x_max":1047,"o":"m 481 457 l 167 28 q 64 -110 110 -51 q -3 -193 18 -168 q -203 -308 -108 -308 q -267 -283 -242 -308 q -292 -218 -292 -258 q -274 -166 -292 -186 q -229 -146 -257 -146 q -196 -181 -196 -146 q -218 -210 -196 -204 q -247 -221 -240 -215 q -254 -240 -254 -226 q -197 -289 -254 -289 q -112 -251 -153 -289 l -96 -233 l -83 -215 l -69 -197 l -57 -179 l 404 457 l 204 457 l 204 483 l 422 483 l 442 507 q 747 854 665 779 q 928 946 846 946 q 1015 910 983 946 q 1047 813 1047 874 q 996 663 1047 731 q 882 594 944 594 q 824 618 846 594 q 801 678 801 642 q 886 835 801 754 l 903 824 q 828 674 828 739 q 843 629 828 646 q 885 613 858 613 q 978 677 936 613 q 1021 819 1021 742 q 997 898 1021 868 q 932 928 972 928 q 805 865 874 928 q 607 631 736 801 l 496 483 l 708 483 l 708 457 l 481 457 z "},"":{"ha":511,"x_min":-108,"x_max":318,"o":"m -104 -126 l -108 -110 q -12 -64 -56 -96 q 23 -28 7 -49 q 38 1 39 -8 l 29 21 l 26 35 q 49 78 26 57 q 96 99 71 99 q 129 64 129 99 q 64 -40 129 14 q -104 -126 -1 -94 m 85 -126 l 81 -110 q 176 -64 133 -96 q 212 -28 196 -49 q 226 1 228 -8 l 218 21 l 215 35 q 238 78 215 57 q 285 99 260 99 q 318 64 318 99 q 253 -40 318 14 q 85 -126 188 -94 z "},"":{"ha":1044,"x_min":43,"x_max":851,"o":"m 114 103 q 143 92 131 103 q 156 65 156 81 q 133 14 156 38 q 83 -10 111 -10 q 43 33 43 -10 q 65 81 43 60 q 114 103 86 103 m 463 103 q 492 92 479 103 q 504 65 504 81 q 482 14 504 38 q 432 -10 460 -10 q 392 33 392 -10 q 413 81 392 60 q 463 103 435 103 m 810 103 q 839 92 826 103 q 851 65 851 81 q 829 14 851 38 q 779 -10 807 -10 q 739 33 739 -10 q 760 81 739 60 q 810 103 782 103 z "},"":{"ha":601,"x_min":-10,"x_max":871,"o":"m 642 640 l 657 640 q 703 644 678 640 q 762 658 729 649 q 811 669 794 667 q 836 674 828 672 q 871 639 871 674 q 857 600 871 615 q 821 585 843 585 q 775 590 799 585 q 713 608 740 601 q 628 621 671 621 q 610 596 618 607 q 586 558 594 575 l 574 539 l 558 508 l 542 479 l 526 449 q 461 344 496 388 q 388 261 418 296 q 268 121 321 186 q 167 -10 222 64 l 89 -117 l 65 -150 l 40 -185 l 17 -218 l -10 -218 l 122 -32 l 183 51 q 252 152 226 111 q 329 282 278 193 q 381 361 364 340 q 486 475 397 382 q 533 526 519 510 q 606 619 547 543 q 522 611 554 619 q 465 593 514 608 q 428 586 442 586 q 394 621 394 586 q 410 659 394 644 q 451 674 426 674 q 521 658 474 674 q 573 644 556 649 q 619 639 590 639 q 664 711 651 689 q 704 789 676 733 q 767 898 744 872 q 822 924 790 924 q 856 899 856 924 q 833 846 856 875 q 803 810 817 825 q 734 742 789 794 q 642 640 679 690 z "},"":{"ha":1093,"x_min":103,"x_max":1244,"o":"m 1244 807 l 1174 722 q 1075 825 1144 786 q 906 864 1006 864 q 653 790 778 864 q 454 600 529 717 l 1072 600 l 999 513 l 403 513 l 383 467 l 371 425 l 926 425 l 853 338 l 358 338 q 428 142 358 213 q 631 71 497 71 q 815 108 722 71 q 986 208 908 144 l 943 90 q 776 15 872 46 q 592 -17 679 -17 q 347 62 438 -17 q 256 281 256 140 q 260 338 256 308 l 103 338 l 176 425 l 275 425 l 289 468 l 307 513 l 167 513 l 240 600 l 356 600 q 615 857 453 763 q 951 951 776 951 q 1131 912 1050 951 q 1244 807 1213 872 z "},"":{"ha":694,"x_min":385,"x_max":679,"o":"m 654 646 l 679 483 l 654 483 l 603 568 l 438 483 l 385 483 l 654 646 z "},"":{"ha":1436,"x_min":146,"x_max":1617,"o":"m 1257 901 l 164 -4 l 146 18 l 1238 924 l 1257 901 m 675 925 q 724 905 706 925 q 743 853 743 885 q 705 733 743 803 q 602 594 667 664 q 478 486 538 525 q 375 447 419 447 q 297 538 297 447 q 422 796 297 667 q 675 925 547 925 m 675 904 q 572 856 636 904 q 442 726 507 807 q 360 606 392 665 q 329 511 329 546 q 372 469 329 469 q 462 506 408 469 q 577 612 515 543 q 678 749 639 681 q 718 858 718 818 q 675 904 718 904 m 1039 461 q 1088 441 1069 461 q 1107 389 1107 421 q 1069 271 1107 340 q 966 132 1031 201 q 842 24 901 63 q 739 -15 783 -15 q 661 75 661 -15 q 787 333 661 204 q 1039 461 913 461 m 1039 440 q 936 393 1000 440 q 806 263 872 346 q 724 142 754 200 q 693 49 693 83 q 736 7 693 7 q 826 44 772 7 q 942 149 879 81 q 1043 286 1004 218 q 1082 394 1082 354 q 1039 440 1082 440 m 1549 461 q 1598 441 1579 461 q 1617 389 1617 421 q 1578 271 1617 340 q 1476 132 1540 201 q 1351 24 1411 63 q 1247 -15 1292 -15 q 1169 75 1169 -15 q 1295 333 1169 204 q 1549 461 1421 461 m 1549 440 q 1444 392 1510 440 q 1314 263 1379 344 q 1232 142 1263 200 q 1201 49 1201 83 q 1244 7 1201 7 q 1334 44 1281 7 q 1451 149 1388 81 q 1553 286 1514 218 q 1592 394 1592 354 q 1549 440 1592 440 z "},"":{"ha":976,"x_min":18,"x_max":1529,"o":"m 907 457 l 900 446 l 885 422 q 800 294 825 331 q 743 221 775 258 q 268 -14 546 -14 q 87 23 156 -14 q 18 119 18 60 q 50 193 18 161 q 126 225 82 225 q 172 188 172 225 q 158 156 172 168 q 125 143 144 143 q 93 158 113 143 l 78 163 q 53 150 64 163 q 42 119 42 138 q 99 40 42 71 q 249 10 157 10 q 528 111 396 10 q 821 451 660 213 l 776 451 q 506 513 606 451 q 406 679 406 574 q 526 890 406 804 q 819 975 646 975 q 905 969 868 975 q 1011 946 942 964 l 1007 925 q 825 949 915 949 q 545 870 661 949 q 429 681 429 792 q 522 528 429 583 q 779 472 615 472 l 836 472 q 913 576 875 525 q 986 665 951 628 q 1208 861 1097 789 q 1397 933 1319 933 q 1453 915 1431 933 q 1475 869 1475 897 q 1290 621 1475 756 q 907 457 1104 486 m 919 479 q 1256 626 1093 513 q 1397 753 1344 689 q 1450 864 1450 818 q 1397 913 1450 913 q 1178 801 1300 913 q 919 479 1056 690 m 1254 989 l 1229 1154 l 1254 1154 l 1307 1067 l 1475 1154 l 1529 1154 l 1254 989 z "},"":{"ha":367,"x_min":85,"x_max":410,"o":"m 143 46 l 85 219 l 399 392 l 410 372 l 157 215 l 163 51 l 143 46 z "},"":{"ha":1336,"x_min":172,"x_max":1613,"o":"m 1356 771 l 1363 756 q 1279 651 1279 700 q 1313 619 1279 619 q 1388 639 1344 619 q 1475 693 1432 658 q 1558 781 1526 733 q 1590 864 1590 828 q 1526 913 1590 913 q 1278 813 1408 913 q 1164 696 1206 756 q 1122 589 1122 636 q 1144 535 1122 563 l 1181 539 q 1254 515 1254 539 q 1214 499 1254 499 q 1139 517 1175 499 q 879 349 1007 481 q 751 118 751 217 q 796 35 751 64 q 924 6 840 6 q 1207 89 1074 6 q 1340 268 1340 172 q 1239 346 1340 346 q 1047 282 1149 346 q 872 115 946 218 l 858 125 q 1229 367 1013 367 q 1361 268 1361 367 q 1228 74 1361 161 q 931 -14 1094 -14 q 763 31 821 -14 q 706 163 706 76 l 711 211 l 669 169 q 488 26 568 68 q 319 -15 407 -15 q 211 28 250 -15 q 172 150 172 71 q 265 422 172 275 q 514 696 357 568 q 788 868 649 806 q 1036 931 928 931 q 1138 900 1100 931 q 1175 815 1175 869 l 1174 783 q 1334 892 1239 850 q 1518 933 1429 933 q 1613 864 1613 933 q 1575 758 1613 813 q 1472 661 1538 704 q 1388 617 1432 635 q 1317 600 1344 600 q 1258 647 1258 600 q 1285 710 1258 676 q 1356 771 1313 744 m 867 615 l 882 611 q 763 438 842 511 q 618 364 685 364 q 568 385 588 364 q 549 439 549 406 q 668 649 549 546 q 911 751 788 751 q 979 728 951 751 q 1007 668 1007 704 l 1000 621 q 1156 814 1156 699 q 1124 884 1156 858 q 1035 910 1093 910 q 770 820 917 910 q 478 569 624 731 q 211 107 211 276 q 242 32 211 61 q 322 3 272 3 q 519 69 418 3 q 750 283 619 135 q 922 507 851 400 q 986 669 986 600 q 908 732 986 732 q 778 689 849 732 q 649 574 707 646 q 575 428 575 483 q 621 383 575 383 q 867 615 744 383 m 1099 664 q 1044 624 1061 635 q 994 600 1028 614 q 883 411 964 521 q 991 483 944 460 q 1124 531 1038 506 q 1090 613 1090 572 q 1099 664 1090 632 z "},"":{"ha":410,"x_min":497,"x_max":735,"o":"m 729 944 l 735 929 q 639 882 678 911 q 602 846 617 865 q 589 817 588 826 l 596 797 l 599 785 q 576 740 599 761 q 529 719 554 719 q 497 754 497 719 q 563 859 497 806 q 729 944 628 913 z "},"":{"ha":410,"x_min":469,"x_max":707,"o":"m 474 715 l 469 731 q 565 778 521 744 q 601 813 585 793 q 615 842 617 833 l 607 863 l 604 876 q 626 919 604 899 q 674 940 649 940 q 707 906 707 940 q 641 801 707 856 q 474 715 575 746 z "},"":{"ha":599,"x_min":497,"x_max":924,"o":"m 918 940 l 924 924 q 828 876 869 908 q 791 840 806 860 q 778 811 776 821 l 785 793 l 788 779 q 765 735 788 756 q 718 714 743 714 q 686 749 686 714 q 752 855 686 800 q 918 940 818 910 m 729 940 l 735 924 q 639 876 681 908 q 602 840 617 860 q 589 811 588 821 l 596 793 l 599 779 q 576 735 599 756 q 529 714 554 714 q 497 749 497 714 q 563 855 497 800 q 729 940 629 910 z "},"":{"ha":599,"x_min":469,"x_max":896,"o":"m 474 715 l 469 731 q 565 778 521 744 q 601 813 585 793 q 615 842 617 833 l 607 863 l 604 876 q 626 919 604 899 q 674 940 649 940 q 707 906 707 940 q 641 801 707 856 q 474 715 575 746 m 663 715 l 658 731 q 754 778 710 744 q 790 813 774 793 q 804 842 806 833 l 796 863 l 793 876 q 815 919 793 899 q 863 940 838 940 q 896 906 896 940 q 830 801 896 856 q 663 715 764 746 z "},"":{"ha":926,"x_min":457,"x_max":842,"o":"m 651 663 q 786 607 731 663 q 842 471 842 551 q 786 335 842 392 q 651 278 731 278 q 513 334 569 278 q 457 471 457 390 q 513 606 457 550 q 651 663 569 663 z "},"":{"ha":601,"x_min":113,"x_max":463,"o":"m 463 250 l 424 201 l 113 201 l 150 250 l 463 250 z "},"":{"ha":606,"x_min":-3,"x_max":639,"o":"m 639 250 l 601 201 l -3 201 l 35 250 l 639 250 z "},"":{"ha":694,"x_min":439,"x_max":751,"o":"m 718 603 l 751 603 q 621 500 671 500 q 597 506 608 500 q 570 529 586 511 q 540 547 554 547 q 475 501 514 547 l 439 501 q 568 601 528 601 q 589 597 581 601 q 617 573 597 592 q 651 554 636 554 q 718 603 674 554 z "},"":{"ha":1197,"x_min":274,"x_max":1581,"o":"m 1128 917 l 1136 906 q 1001 867 1075 867 q 929 873 975 867 q 801 892 883 879 q 681 906 719 906 q 523 855 592 906 q 454 740 454 804 q 477 688 454 707 q 539 669 500 669 q 672 710 611 669 q 776 826 732 750 l 792 824 q 690 700 760 750 q 547 650 621 650 q 465 674 496 650 q 435 739 435 697 q 464 820 435 779 q 544 890 493 861 q 728 932 615 932 q 899 914 776 932 q 992 900 968 903 q 1044 897 1017 897 q 1128 917 1093 897 m 946 867 l 956 857 l 918 828 q 870 782 896 808 q 820 725 844 756 q 760 639 796 694 l 714 568 q 386 363 581 363 q 305 381 336 363 q 274 431 274 400 q 293 474 274 453 q 336 494 313 494 q 363 472 363 494 q 333 442 363 442 q 314 449 326 442 l 308 450 q 293 431 293 450 q 318 394 293 408 q 385 381 343 381 q 544 446 471 381 q 653 565 589 485 l 675 593 l 693 618 l 713 643 l 732 667 q 837 781 786 733 q 946 867 888 829 m 1365 485 l 1376 471 q 1270 392 1315 419 q 1200 365 1225 365 q 1161 408 1161 365 q 1190 500 1161 447 q 1286 635 1219 553 q 1383 747 1332 690 q 1467 838 1422 792 l 1543 917 q 1421 833 1494 901 q 1296 704 1371 786 q 1238 636 1253 656 q 1140 517 1214 607 q 1036 399 1072 433 q 979 365 1000 365 q 956 396 956 365 q 1100 643 956 472 q 1363 917 1229 797 q 1288 878 1328 906 q 1192 797 1249 851 q 1133 739 1158 765 q 1064 664 1094 696 l 925 510 q 807 392 844 421 q 738 363 769 363 q 696 407 696 363 q 710 449 696 431 q 743 467 724 467 q 763 447 763 467 q 729 419 763 419 q 717 401 717 419 q 742 382 717 382 q 814 424 769 382 q 992 614 858 465 q 1240 865 1154 793 q 1379 936 1325 936 l 1403 935 q 1310 835 1357 889 q 1183 678 1264 781 q 1007 442 1088 557 q 979 389 979 401 l 985 383 q 1019 407 996 383 q 1104 501 1051 438 l 1199 618 q 1327 764 1257 690 q 1444 875 1397 838 q 1561 935 1518 935 l 1581 932 q 1442 770 1515 863 q 1278 549 1369 678 q 1213 456 1231 482 q 1194 425 1203 442 q 1186 397 1186 408 q 1200 383 1186 383 q 1365 485 1242 383 z "},"":{"ha":389,"x_min":-6,"x_max":636,"o":"m 324 397 l 68 176 l 56 193 l 326 422 q 356 485 338 458 q 390 511 374 511 q 401 499 401 511 q 385 460 401 483 q 339 411 368 436 l 336 374 l 339 329 l 344 256 q 217 46 344 135 q 136 3 179 19 q 64 -14 93 -14 q -6 46 -6 -14 q 10 92 -6 74 q 49 111 26 111 q 86 76 86 111 q 59 42 86 49 q 32 22 32 35 q 61 3 32 3 q 151 42 103 3 q 240 145 200 81 q 297 263 279 210 q 324 397 315 317 m 368 533 l 342 676 l 368 676 l 413 606 l 583 676 l 636 676 l 368 533 z "},"":{"ha":367,"x_min":-14,"x_max":311,"o":"m 253 392 l 311 218 l -3 46 l -14 65 l 238 224 l 232 386 l 253 392 z "},"":{"ha":733,"x_min":61,"x_max":835,"o":"m 789 183 l 803 167 q 605 35 706 86 q 438 -15 504 -15 q 361 60 361 -15 q 378 131 361 90 q 122 -14 219 -14 q 61 61 61 -14 q 221 314 61 186 q 351 396 281 363 q 467 429 422 429 q 536 375 536 429 q 518 307 536 354 q 789 433 676 433 q 835 399 835 433 q 737 283 835 343 q 483 181 639 222 q 418 96 442 135 q 394 36 394 57 q 438 4 394 4 q 599 53 504 4 q 789 183 693 101 m 472 410 q 242 250 399 410 q 131 121 171 178 q 90 35 90 64 q 126 6 90 6 q 226 40 167 6 q 353 136 286 74 q 475 270 435 213 q 515 372 515 328 q 472 410 515 410 m 506 207 q 717 297 626 239 q 807 403 807 356 q 788 417 807 417 q 728 399 765 417 q 646 349 690 381 q 580 291 611 322 q 506 207 549 260 z "},"":{"ha":1035,"x_min":158,"x_max":1504,"o":"m 1057 208 l 1069 192 q 1014 151 1054 178 q 910 88 944 107 q 854 58 875 69 q 813 38 833 47 q 747 14 793 29 q 612 -144 668 -87 q 492 -242 556 -200 q 244 -335 347 -335 q 158 -278 158 -335 q 202 -193 158 -239 q 324 -107 246 -147 q 476 -44 375 -79 l 610 -3 l 663 14 l 732 106 l 767 153 l 832 242 q 889 318 861 281 q 947 400 910 347 q 878 333 893 347 q 801 265 849 306 q 511 111 615 111 q 432 185 432 111 q 594 463 432 297 l 725 597 q 849 743 814 692 q 883 832 883 794 q 739 917 883 917 q 458 828 592 917 q 324 640 324 739 q 407 569 324 569 q 598 648 497 569 q 754 842 699 726 l 771 836 q 705 715 738 760 q 617 628 672 671 q 407 547 508 547 q 328 572 358 547 q 297 640 297 597 q 440 842 297 746 q 743 938 583 938 q 910 821 910 938 q 863 667 910 747 q 711 483 815 586 q 640 413 676 450 q 591 360 619 392 q 540 303 563 329 q 496 249 508 267 q 461 172 461 200 q 474 144 461 156 q 507 133 486 133 q 782 279 611 133 q 883 369 839 328 q 986 471 926 411 l 1122 614 l 1172 665 l 1221 718 l 1269 769 q 1350 853 1333 836 q 1426 926 1381 885 l 1504 926 l 1396 814 q 1144 538 1215 621 q 968 313 1064 443 l 857 164 q 812 105 835 135 q 769 46 789 75 q 902 106 836 69 q 1057 208 968 143 m 640 -15 l 567 -39 l 451 -76 q 267 -171 347 -111 q 188 -276 188 -231 q 239 -312 188 -312 q 427 -241 331 -312 q 640 -15 524 -169 m 1101 1119 q 1129 1110 1118 1119 q 1140 1085 1140 1100 q 1119 1035 1140 1057 q 1071 1013 1099 1013 q 1033 1050 1033 1013 q 1054 1099 1033 1078 q 1101 1119 1075 1119 m 1310 1119 q 1338 1110 1326 1119 q 1349 1085 1349 1100 q 1328 1035 1349 1057 q 1279 1013 1307 1013 q 1242 1050 1242 1013 q 1263 1099 1242 1078 q 1310 1119 1283 1119 z "},"":{"ha":694,"x_min":0,"x_max":0,"o":""},"":{"ha":429,"x_min":-156,"x_max":465,"o":"m 318 322 l 335 313 l 242 181 l 106 -12 l 74 -60 l -22 -201 q -85 -285 -67 -267 q -124 -304 -104 -304 q -156 -269 -156 -304 q -147 -240 -156 -257 q -118 -200 -139 -224 l -103 -182 l -72 -146 l -42 -108 l -10 -72 l 21 -35 l 138 104 q 206 189 199 181 q 303 303 249 239 l 318 322 m 422 481 q 465 440 465 481 q 444 390 465 413 q 397 368 424 368 q 353 407 353 368 q 374 458 353 436 q 422 481 394 481 z "},"":{"ha":601,"x_min":140,"x_max":676,"o":"m 676 681 l 610 589 q 651 536 651 579 q 630 476 651 503 q 581 449 608 449 q 546 481 546 449 q 599 517 546 510 q 628 546 628 517 q 599 569 628 569 q 510 538 558 569 q 388 432 461 506 q 264 287 310 353 q 218 185 218 221 q 254 154 218 154 q 391 203 306 154 q 576 338 476 253 l 590 322 q 250 135 371 135 l 238 135 l 161 15 l 140 28 l 214 142 q 182 213 182 168 q 313 447 182 324 q 582 589 443 569 l 657 694 l 676 681 z "},"":{"ha":892,"x_min":-153,"x_max":1114,"o":"m 722 260 l 458 260 q 353 145 400 188 q 236 63 307 103 q 478 10 394 10 q 796 176 631 10 l 813 163 q 439 -19 635 -19 q 315 -8 374 -19 q 175 31 256 3 q -25 -12 83 -12 q -119 2 -86 -12 q -153 43 -153 17 q -111 94 -153 75 q -3 114 -69 114 q 92 107 58 114 q 206 72 125 100 q 296 157 257 114 q 374 260 335 200 l 167 260 l 167 286 l 389 286 q 461 399 425 342 q 507 463 468 408 q 752 718 629 629 q 982 807 875 807 q 1079 776 1044 807 q 1114 688 1114 746 q 1029 490 1114 588 q 858 393 944 393 q 786 467 786 393 q 915 644 786 561 l 928 628 q 842 546 875 590 q 808 467 808 501 q 822 428 808 443 q 856 414 835 414 q 928 440 889 414 q 1006 511 968 465 q 1066 607 1043 557 q 1089 693 1089 657 q 1062 762 1089 738 q 986 786 1035 786 q 793 706 894 786 q 682 590 740 664 q 551 400 624 515 q 510 335 526 361 q 476 286 493 310 l 722 286 l 722 260 m 150 42 q 47 75 88 65 q -31 85 6 85 q -98 74 -72 85 q -124 47 -124 64 q -97 18 -124 28 q -15 8 -69 8 q 58 14 31 8 q 150 42 85 19 z "},"":{"ha":738,"x_min":103,"x_max":889,"o":"m 103 342 l 118 360 l 192 360 l 206 378 l 129 378 l 144 396 l 219 396 q 332 510 271 458 q 562 663 443 606 q 772 719 681 719 q 858 695 828 719 q 889 626 889 671 q 840 526 889 568 q 794 503 814 503 l 782 506 q 846 556 821 522 q 871 626 871 590 q 844 683 871 663 q 774 704 818 704 q 556 632 674 704 q 329 431 439 560 l 301 396 l 628 396 l 611 378 l 286 378 l 272 360 l 596 360 l 581 342 l 257 342 q 174 221 199 265 q 136 94 136 153 q 164 25 136 50 q 240 0 192 0 q 347 25 288 0 q 465 94 406 50 q 505 127 485 110 q 542 160 525 144 l 553 149 q 390 28 471 71 q 239 -15 308 -15 q 140 21 175 -15 q 106 122 106 57 q 125 231 106 175 q 181 342 144 288 l 103 342 z "},"":{"ha":694,"x_min":-71,"x_max":974,"o":"m 701 346 l 613 232 l 732 232 l 732 206 l 593 206 l 422 -17 q 274 -193 333 -132 q 151 -299 215 -254 q -15 -364 57 -364 q -71 -321 -71 -364 q 94 -142 -71 -247 q 165 -101 124 -122 q 250 -61 206 -81 l 322 -31 l 338 -24 l 354 -17 l 489 164 q 331 33 401 78 q 218 -12 261 -12 q 169 43 169 -12 q 186 113 169 76 q 244 206 203 150 l 125 206 l 125 232 l 264 232 l 353 346 l 226 346 l 226 372 l 372 372 l 532 581 q 593 672 576 640 q 610 731 610 703 q 543 786 610 786 q 419 744 490 786 q 297 642 347 701 q 251 571 269 608 q 233 508 233 533 q 268 471 233 471 q 368 525 313 471 q 460 656 424 579 l 475 651 q 384 510 444 569 q 269 451 324 451 q 226 469 243 451 q 210 518 210 488 q 319 710 210 614 q 542 806 429 806 q 643 710 643 806 q 586 549 643 624 l 450 372 l 647 372 l 897 699 l 974 699 l 721 372 l 838 372 l 838 346 l 701 346 m 626 346 l 431 346 l 343 233 l 533 233 q 587 297 565 271 q 626 346 608 324 m 507 206 l 322 206 l 242 100 q 208 53 217 68 q 200 25 200 38 q 222 7 200 7 q 338 60 261 7 q 507 206 415 114 m 331 -47 q 81 -176 174 -107 q -3 -255 29 -215 q -36 -319 -36 -294 q -6 -344 -36 -344 q 131 -274 50 -344 q 331 -47 211 -203 z "},"":{"ha":694,"x_min":463,"x_max":490,"o":"m 463 926 l 490 926 l 490 482 l 463 482 l 463 926 m 463 213 l 490 213 l 490 -232 l 463 -232 l 463 213 z "},"":{"ha":571,"x_min":-54,"x_max":800,"o":"m 736 653 l 743 653 q 771 688 771 653 q 726 725 771 725 q 624 646 664 725 q 586 531 607 608 l 563 436 q 519 277 536 324 q 479 196 503 231 q 215 82 400 82 q 21 -61 115 -61 q -54 15 -54 -61 q -31 78 -54 49 q 22 107 -7 107 q 58 74 58 107 q 49 49 58 60 q 28 36 39 38 l 13 39 l 0 42 q -19 31 -11 42 q -26 7 -26 21 q -12 -24 -26 -11 q 22 -36 1 -36 q 92 -8 58 -36 q 150 72 126 21 q 185 167 168 111 q 229 332 203 222 q 285 492 256 442 q 372 574 315 542 q 519 610 438 610 l 549 608 q 731 749 619 749 q 781 730 763 749 q 800 681 800 711 q 778 619 800 647 q 728 592 756 592 q 692 626 692 592 q 700 646 692 636 q 718 656 708 656 l 736 653 m 225 104 l 250 104 q 403 178 349 104 q 450 270 431 214 q 500 453 469 326 q 519 533 513 510 q 539 589 526 557 l 515 590 q 375 531 425 590 q 335 463 350 501 q 292 317 321 424 q 261 203 274 246 q 225 104 243 142 z "},"":{"ha":694,"x_min":464,"x_max":722,"o":"m 526 600 q 557 572 557 600 q 538 527 557 547 q 497 507 519 507 q 464 538 464 507 q 483 581 464 563 q 526 600 501 600 m 692 600 q 722 568 722 600 q 704 526 722 546 q 663 507 686 507 q 629 538 629 507 q 649 581 629 561 q 692 600 668 600 z "},"":{"ha":1197,"x_min":325,"x_max":1281,"o":"m 868 718 l 858 703 q 768 717 813 717 q 589 671 665 717 q 513 563 513 625 q 635 469 513 489 q 858 644 736 574 q 1057 715 979 715 q 1114 672 1114 715 q 975 524 1114 599 q 686 449 836 449 q 574 260 574 324 q 596 213 574 229 q 660 196 618 196 q 818 244 743 196 q 893 347 893 293 q 840 392 893 392 q 638 233 733 392 l 622 236 q 713 364 656 317 q 833 411 769 411 q 891 394 869 411 q 913 349 913 376 q 832 232 913 286 q 656 178 751 178 q 572 205 601 178 q 542 279 542 232 q 621 453 542 354 q 492 564 492 476 q 563 688 492 639 q 747 736 635 736 q 868 718 804 736 m 703 468 q 964 538 832 468 q 1096 671 1096 608 q 1054 699 1096 699 q 896 638 989 699 q 703 468 803 576 m 801 940 q 1140 801 1000 940 q 1281 463 1281 663 q 1140 125 1281 265 q 801 -15 1000 -15 q 465 124 604 -15 q 325 461 325 264 q 464 800 325 660 q 801 940 603 940 m 801 913 q 483 781 614 913 q 353 461 353 649 q 484 144 353 275 q 801 13 615 13 q 1121 144 989 13 q 1253 463 1253 276 q 1121 781 1253 649 q 801 913 989 913 z "},"":{"ha":401,"x_min":167,"x_max":883,"o":"m 167 426 l 186 453 l 617 453 l 597 426 l 167 426 m 883 928 l 689 672 q 649 617 657 629 q 640 594 640 604 q 657 578 640 578 q 700 591 675 578 q 785 646 725 604 l 797 628 q 708 571 738 586 q 656 556 678 556 q 613 611 613 556 q 625 667 613 635 q 555 612 574 625 q 513 586 536 599 q 421 556 454 556 q 363 621 363 556 q 404 738 363 675 q 511 847 446 801 q 724 939 643 939 q 778 892 778 939 l 776 871 l 817 928 l 883 928 m 728 918 q 633 876 694 918 q 501 760 572 833 q 424 666 453 710 q 394 600 394 622 q 418 578 394 578 q 501 605 451 578 q 607 681 551 632 q 717 797 676 740 q 757 888 757 853 q 728 918 757 918 z "},"":{"ha":561,"x_min":85,"x_max":603,"o":"m 336 47 l 279 219 l 593 392 l 603 374 l 351 215 l 358 53 l 336 47 m 143 46 l 85 219 l 399 392 l 410 372 l 157 215 l 163 51 l 143 46 z "},"":{"ha":694,"x_min":46,"x_max":647,"o":"m 619 0 l 619 344 l 46 344 l 46 371 l 647 371 l 647 0 l 619 0 z "},"":{"ha":601,"x_min":175,"x_max":656,"o":"m 193 378 l 656 378 l 639 353 l 175 353 l 193 378 z "},"":{"ha":1197,"x_min":325,"x_max":1281,"o":"m 908 657 l 925 653 q 822 463 894 533 q 656 392 750 392 q 588 413 614 392 q 563 471 563 435 q 600 568 563 518 q 700 656 638 618 q 943 715 803 715 q 1154 579 1154 715 q 994 421 1154 456 q 1003 381 1003 403 q 992 326 1003 349 q 943 263 981 304 q 911 228 917 235 q 896 203 896 210 q 907 196 903 196 q 984 222 936 196 q 1089 297 1032 249 l 1101 283 q 904 178 972 178 q 871 215 871 178 q 885 265 871 240 q 940 330 900 289 q 981 403 981 371 l 976 419 q 935 425 951 419 q 919 440 919 431 q 938 451 919 451 q 986 436 963 451 q 1081 503 1039 451 q 1122 606 1122 554 q 1106 650 1122 628 q 1006 569 1044 611 q 890 415 968 528 q 787 287 832 331 q 681 214 742 243 q 619 190 651 200 q 567 181 586 181 q 507 200 532 181 q 482 247 482 219 q 501 290 482 271 q 543 310 521 310 q 571 288 571 310 q 563 268 571 278 q 543 258 554 258 q 526 264 531 261 l 519 265 q 504 243 504 265 q 522 213 504 226 q 563 200 539 200 q 682 256 606 200 q 744 310 717 281 q 851 438 764 331 q 978 576 922 524 q 1093 664 1033 628 q 1031 690 1065 682 q 943 699 996 699 q 694 628 804 699 q 583 469 583 558 q 603 428 583 443 q 654 413 622 413 q 806 483 732 413 q 908 657 879 554 m 801 940 q 1140 801 1000 940 q 1281 463 1281 663 q 1140 125 1281 265 q 801 -15 1000 -15 q 465 124 604 -15 q 325 461 325 264 q 464 800 325 660 q 801 940 603 940 m 801 913 q 483 781 614 913 q 353 461 353 649 q 484 144 353 275 q 801 13 615 13 q 1121 144 989 13 q 1253 463 1253 276 q 1121 781 1253 649 q 801 913 989 913 z "},"":{"ha":694,"x_min":378,"x_max":699,"o":"m 699 574 l 668 536 l 378 536 l 407 574 l 699 574 z "},"":{"ha":611,"x_min":514,"x_max":885,"o":"m 700 903 q 831 849 778 903 q 885 718 885 796 q 831 588 885 642 q 699 533 776 533 q 568 588 622 533 q 514 718 514 642 q 568 849 514 794 q 700 903 622 903 m 699 861 q 597 819 639 861 q 556 718 556 778 q 597 617 556 658 q 700 575 639 575 q 801 617 760 575 q 843 718 843 658 q 801 819 843 778 q 699 861 760 861 z "},"":{"ha":601,"x_min":17,"x_max":646,"o":"m 182 378 l 399 378 l 549 597 l 578 597 l 426 378 l 646 378 l 629 353 l 410 353 l 260 133 l 231 133 l 381 353 l 165 353 l 182 378 m 35 81 l 497 81 l 481 56 l 17 56 l 35 81 z "},"":{"ha":403,"x_min":217,"x_max":668,"o":"m 546 706 l 564 701 q 507 612 546 649 q 429 575 468 575 q 389 619 389 575 q 457 736 389 679 q 599 793 525 793 q 668 728 668 793 q 624 619 668 668 q 476 518 579 571 q 365 460 394 476 q 308 422 336 443 l 347 426 q 376 425 365 426 q 408 417 388 424 q 464 404 453 404 q 542 468 503 404 l 563 461 q 428 363 500 363 q 402 365 414 363 q 358 380 390 368 q 299 392 325 392 q 266 386 278 392 q 231 361 254 381 l 217 374 q 299 439 247 401 q 404 508 351 476 q 509 576 475 551 q 571 631 543 600 q 635 740 635 699 q 592 772 635 772 q 519 749 561 772 q 450 692 478 725 q 415 618 415 647 q 436 596 415 596 q 493 628 461 596 q 546 706 525 660 z "},"":{"ha":403,"x_min":242,"x_max":667,"o":"m 558 725 l 576 717 q 464 635 528 635 q 426 672 426 635 q 481 756 426 717 q 597 794 535 794 q 649 782 631 794 q 667 744 667 769 q 631 669 667 706 q 525 606 594 633 q 569 551 569 597 q 483 425 569 488 q 307 363 397 363 q 260 376 279 363 q 242 411 242 389 q 253 440 242 428 q 282 453 264 453 q 301 446 293 453 q 310 428 310 439 q 279 404 310 404 l 275 399 q 286 389 275 393 q 314 385 297 385 q 397 413 350 385 q 487 488 444 440 q 529 564 529 536 q 504 585 529 585 q 408 547 482 585 l 397 563 l 435 582 l 442 585 l 451 590 l 463 594 l 472 600 q 532 633 501 617 q 593 682 569 656 q 631 747 628 721 q 596 774 631 774 q 499 740 546 774 q 453 675 453 706 q 475 656 453 656 q 517 674 496 656 q 558 725 538 692 z "},"":{"ha":694,"x_min":565,"x_max":825,"o":"m 825 649 l 604 496 l 565 496 l 693 649 l 825 649 z "},"":{"ha":740,"x_min":39,"x_max":1207,"o":"m 39 -232 l 536 429 l 517 429 q 374 525 374 429 q 435 686 374 594 q 583 839 496 778 q 918 926 708 926 l 1207 926 l 1188 901 l 1121 901 l 268 -232 l 240 -232 l 1094 901 l 919 901 l 67 -232 l 39 -232 z "},"":{"ha":311,"x_min":121,"x_max":233,"o":"m 192 317 q 221 306 208 317 q 233 279 233 294 q 211 228 233 251 q 161 204 189 204 q 121 247 121 204 q 142 295 121 274 q 192 317 164 317 z "},"":{"ha":694,"x_min":103,"x_max":324,"o":"m 108 -296 l 103 -275 q 194 -219 150 -258 q 239 -157 239 -181 l 236 -149 q 231 -124 231 -132 q 251 -81 231 -100 q 296 -62 271 -62 q 324 -97 324 -62 q 265 -197 324 -142 q 201 -251 228 -233 q 117 -292 174 -268 l 108 -296 z "},"":{"ha":403,"x_min":344,"x_max":753,"o":"m 753 790 l 429 371 l 358 371 q 479 511 471 501 q 635 686 525 564 l 667 722 q 356 550 514 633 l 344 568 q 585 699 507 654 q 729 790 664 744 l 753 790 z "},"":{"ha":401,"x_min":154,"x_max":819,"o":"m 817 724 l 819 703 l 800 700 q 731 738 756 700 q 661 658 683 682 q 613 615 639 635 q 479 556 536 556 q 408 625 408 556 q 437 719 408 665 q 508 814 465 772 q 635 906 568 869 q 751 942 703 942 q 788 931 775 942 q 801 899 801 919 q 746 757 801 836 q 803 722 765 722 l 817 724 m 719 761 l 715 783 q 731 838 715 814 q 775 875 747 863 l 779 896 q 757 919 779 919 q 676 885 725 919 q 565 786 628 851 q 480 681 514 732 q 446 607 446 629 q 476 578 446 578 q 588 626 524 578 q 719 761 651 674 m 154 426 l 174 453 l 604 453 l 585 426 l 154 426 z "},"":{"ha":561,"x_min":-14,"x_max":504,"o":"m 253 392 l 311 218 l -4 47 l -14 64 l 238 222 l 231 386 l 253 392 m 446 392 l 504 218 l 190 46 l 181 65 l 432 224 l 426 386 l 446 392 z "},"":{"ha":1153,"x_min":275,"x_max":1197,"o":"m 754 790 l 431 371 l 360 371 q 503 539 431 454 q 636 686 568 610 l 668 722 q 514 635 603 683 q 357 550 443 596 l 346 568 q 589 700 513 656 q 729 790 665 744 l 754 790 m 1197 839 l 293 -65 l 275 -43 l 1178 863 l 1197 839 m 974 99 l 906 0 l 832 0 l 926 103 q 835 108 883 108 q 722 86 771 108 l 710 99 q 774 145 751 128 q 874 228 796 163 q 988 325 933 278 q 1081 417 1049 379 l 1160 417 q 1072 344 1111 375 q 968 264 1007 292 q 779 126 874 194 q 846 131 813 131 q 947 125 899 131 l 1053 235 l 1079 235 l 988 119 l 1003 121 q 1024 121 1013 121 q 1058 126 1040 124 l 1064 108 q 997 99 1024 99 l 974 99 z "},"":{"ha":1153,"x_min":275,"x_max":1197,"o":"m 754 790 l 431 371 l 360 371 q 503 539 431 454 q 636 686 568 610 l 668 722 q 514 635 603 683 q 357 550 443 596 l 346 568 q 589 700 513 656 q 729 790 665 744 l 754 790 m 1197 839 l 293 -65 l 275 -43 l 1178 863 l 1197 839 m 1013 336 l 1031 331 q 974 241 1013 278 q 896 204 935 204 q 867 217 878 204 q 856 249 856 229 q 924 367 856 310 q 1065 424 992 424 q 1135 357 1135 424 q 1090 249 1135 297 q 943 147 1046 200 q 831 88 860 104 q 775 51 803 72 q 814 57 799 57 q 875 46 842 57 q 908 37 892 40 q 932 33 924 33 q 970 46 954 33 q 1010 97 986 58 l 1031 90 q 894 -8 968 -8 q 868 -6 879 -8 q 821 13 857 -3 q 767 22 794 22 q 697 -10 733 22 l 683 3 q 765 70 718 36 q 871 139 813 104 q 979 206 953 188 q 1038 260 1006 225 q 1101 371 1101 331 q 1058 403 1101 403 q 985 379 1026 403 q 917 321 944 356 q 882 247 882 279 q 903 225 882 225 q 960 258 928 225 q 1013 336 993 292 z "},"":{"ha":1153,"x_min":242,"x_max":1196,"o":"m 558 725 l 576 717 q 464 635 528 635 q 426 672 426 635 q 481 756 426 717 q 597 794 535 794 q 649 782 631 794 q 667 744 667 769 q 631 669 667 706 q 525 606 594 633 q 569 551 569 597 q 483 425 569 488 q 307 363 397 363 q 260 376 279 363 q 242 411 242 389 q 253 440 242 428 q 282 453 264 453 q 301 446 293 453 q 310 428 310 439 q 279 404 310 404 l 275 399 q 286 389 275 393 q 314 385 297 385 q 397 413 350 385 q 487 488 444 440 q 529 564 529 536 q 504 585 529 585 q 408 547 482 585 l 397 563 l 435 582 l 442 585 l 451 590 l 463 594 l 472 600 q 532 633 501 617 q 593 682 569 656 q 631 747 628 721 q 596 774 631 774 q 499 740 546 774 q 453 675 453 706 q 475 656 453 656 q 517 674 496 656 q 558 725 538 692 m 1196 839 l 293 -65 l 275 -43 l 1178 863 l 1196 839 m 972 99 l 906 0 l 832 0 l 926 103 q 835 108 883 108 q 722 86 771 108 l 710 99 q 774 145 751 128 q 874 228 796 163 q 988 325 933 278 q 1081 417 1049 379 l 1160 417 q 1072 344 1111 375 q 968 264 1007 292 q 779 126 874 194 l 844 131 q 947 125 899 131 l 1053 235 l 1079 235 l 988 119 l 1003 121 q 1024 121 1013 121 q 1058 126 1040 124 l 1064 108 q 997 99 1024 99 l 972 99 z "},"":{"ha":579,"x_min":-143,"x_max":526,"o":"m 372 331 l 392 317 q 338 260 358 281 q 291 217 322 244 q 251 182 260 189 q 215 153 229 163 l 182 129 l 150 104 l 118 79 q -44 -83 19 3 q -107 -231 -107 -169 q -51 -283 -107 -283 q 69 -243 1 -283 q 188 -139 138 -203 q 239 -29 239 -75 q 206 7 239 7 q 67 -93 144 7 l 51 -86 q 128 -2 83 -33 q 214 29 172 29 q 272 -31 272 29 q 185 -192 272 -108 q 69 -272 136 -240 q -51 -304 1 -304 q -143 -199 -143 -304 q 96 125 -143 -6 q 264 227 218 193 q 372 331 310 261 m 481 488 q 526 443 526 488 q 505 394 526 415 q 456 372 483 372 q 424 383 436 372 q 411 413 411 394 q 433 465 411 442 q 481 488 454 488 z "},"":{"ha":935,"x_min":14,"x_max":1342,"o":"m 718 58 l 685 0 l 597 0 l 638 64 q 538 94 585 72 q 440 160 490 117 q 349 88 381 111 q 282 44 318 65 q 115 -14 179 -14 q 42 8 69 -14 q 14 69 14 31 q 43 149 14 114 q 111 183 72 183 q 153 144 153 183 q 140 109 153 125 q 108 93 126 93 q 81 104 99 93 l 68 108 q 49 95 58 108 q 39 68 39 82 q 60 26 39 42 q 118 10 82 10 q 190 25 147 10 q 281 68 233 40 q 424 176 333 100 q 301 471 301 321 q 349 620 301 560 q 467 681 397 681 q 603 622 542 681 q 697 460 664 564 q 726 488 711 474 q 801 567 761 525 q 1098 844 986 761 q 1288 926 1210 926 l 1311 926 l 1239 826 l 1164 719 q 1057 568 1067 582 q 953 414 1040 544 l 901 338 l 858 274 l 760 126 l 732 83 q 827 113 790 92 q 907 182 864 133 l 925 168 q 718 58 843 74 m 443 193 q 544 294 494 240 q 639 394 628 382 l 679 438 q 475 647 614 647 q 375 591 417 647 q 333 454 333 535 q 443 193 333 314 m 458 175 q 649 88 554 97 q 692 325 692 208 q 683 407 692 364 q 536 251 585 301 q 458 175 496 210 m 757 488 l 729 457 l 704 432 q 714 340 714 388 q 694 149 714 260 q 774 264 728 199 q 853 376 819 329 q 924 471 888 422 q 1024 597 969 532 l 1075 660 l 1125 722 l 1176 786 l 1271 906 q 1173 870 1225 900 q 1050 779 1121 840 q 883 621 979 718 l 786 518 l 757 488 m 1286 1139 l 1342 992 l 1313 992 l 1169 1139 l 1286 1139 z "},"":{"ha":935,"x_min":14,"x_max":1468,"o":"m 718 58 l 685 0 l 597 0 l 638 64 q 538 94 585 72 q 440 160 490 117 q 349 88 381 111 q 282 44 318 65 q 115 -14 179 -14 q 42 8 69 -14 q 14 69 14 31 q 43 149 14 114 q 111 183 72 183 q 153 144 153 183 q 140 109 153 125 q 108 93 126 93 q 81 104 99 93 l 68 108 q 49 95 58 108 q 39 68 39 82 q 60 26 39 42 q 118 10 82 10 q 190 25 147 10 q 281 68 233 40 q 424 176 333 100 q 301 471 301 321 q 349 620 301 560 q 467 681 397 681 q 603 622 542 681 q 697 460 664 564 q 726 488 711 474 q 801 567 761 525 q 1098 844 986 761 q 1288 926 1210 926 l 1311 926 l 1239 826 l 1164 719 q 1057 568 1067 582 q 953 414 1040 544 l 901 338 l 858 274 l 760 126 l 732 83 q 827 113 790 92 q 907 182 864 133 l 925 168 q 718 58 843 74 m 443 193 q 544 294 494 240 q 639 394 628 382 l 679 438 q 475 647 614 647 q 375 591 417 647 q 333 454 333 535 q 443 193 333 314 m 458 175 q 649 88 554 97 q 692 325 692 208 q 683 407 692 364 q 536 251 585 301 q 458 175 496 210 m 757 488 l 729 457 l 704 432 q 714 340 714 388 q 694 149 714 260 q 774 264 728 199 q 853 376 819 329 q 924 471 888 422 q 1024 597 969 532 l 1075 660 l 1125 722 l 1176 786 l 1271 906 q 1173 870 1225 900 q 1050 779 1121 840 q 883 621 979 718 l 786 518 l 757 488 m 1468 1138 l 1264 990 l 1228 990 l 1351 1138 l 1468 1138 z "},"":{"ha":935,"x_min":14,"x_max":1383,"o":"m 718 58 l 685 0 l 597 0 l 638 64 q 538 94 585 72 q 440 160 490 117 q 349 88 381 111 q 282 44 318 65 q 115 -14 179 -14 q 42 8 69 -14 q 14 69 14 31 q 43 149 14 114 q 111 183 72 183 q 153 144 153 183 q 140 109 153 125 q 108 93 126 93 q 81 104 99 93 l 68 108 q 49 95 58 108 q 39 68 39 82 q 60 26 39 42 q 118 10 82 10 q 190 25 147 10 q 281 68 233 40 q 424 176 333 100 q 301 471 301 321 q 349 620 301 560 q 467 681 397 681 q 603 622 542 681 q 697 460 664 564 q 726 488 711 474 q 801 567 761 525 q 1098 844 986 761 q 1288 926 1210 926 l 1311 926 l 1239 826 l 1164 719 q 1057 568 1067 582 q 953 414 1040 544 l 901 338 l 858 274 l 760 126 l 732 83 q 827 113 790 92 q 907 182 864 133 l 925 168 q 718 58 843 74 m 443 193 q 544 294 494 240 q 639 394 628 382 l 679 438 q 475 647 614 647 q 375 591 417 647 q 333 454 333 535 q 443 193 333 314 m 458 175 q 649 88 554 97 q 692 325 692 208 q 683 407 692 364 q 536 251 585 301 q 458 175 496 210 m 757 488 l 729 457 l 704 432 q 714 340 714 388 q 694 149 714 260 q 774 264 728 199 q 853 376 819 329 q 924 471 888 422 q 1024 597 969 532 l 1075 660 l 1125 722 l 1176 786 l 1271 906 q 1173 870 1225 900 q 1050 779 1121 840 q 883 621 979 718 l 786 518 l 757 488 m 1358 1163 l 1383 997 l 1358 997 l 1306 1085 l 1139 997 l 1083 997 l 1358 1163 z "},"":{"ha":935,"x_min":14,"x_max":1435,"o":"m 718 58 l 685 0 l 597 0 l 638 64 q 538 94 585 72 q 440 160 490 117 q 349 88 381 111 q 282 44 318 65 q 115 -14 179 -14 q 42 8 69 -14 q 14 69 14 31 q 43 149 14 114 q 111 183 72 183 q 153 144 153 183 q 140 109 153 125 q 108 93 126 93 q 81 104 99 93 l 68 108 q 49 95 58 108 q 39 68 39 82 q 60 26 39 42 q 118 10 82 10 q 190 25 147 10 q 281 68 233 40 q 424 176 333 100 q 301 471 301 321 q 349 620 301 560 q 467 681 397 681 q 603 622 542 681 q 697 460 664 564 q 726 488 711 474 q 801 567 761 525 q 1098 844 986 761 q 1288 926 1210 926 l 1311 926 l 1239 826 l 1164 719 q 1057 568 1067 582 q 953 414 1040 544 l 901 338 l 858 274 l 760 126 l 732 83 q 827 113 790 92 q 907 182 864 133 l 925 168 q 718 58 843 74 m 443 193 q 544 294 494 240 q 639 394 628 382 l 679 438 q 475 647 614 647 q 375 591 417 647 q 333 454 333 535 q 443 193 333 314 m 458 175 q 649 88 554 97 q 692 325 692 208 q 683 407 692 364 q 536 251 585 301 q 458 175 496 210 m 757 488 l 729 457 l 704 432 q 714 340 714 388 q 694 149 714 260 q 774 264 728 199 q 853 376 819 329 q 924 471 888 422 q 1024 597 969 532 l 1075 660 l 1125 722 l 1176 786 l 1271 906 q 1173 870 1225 900 q 1050 779 1121 840 q 883 621 979 718 l 786 518 l 757 488 m 1401 1118 l 1435 1118 q 1365 1043 1401 1072 q 1303 1014 1328 1014 q 1257 1038 1282 1014 q 1233 1058 1239 1054 q 1219 1061 1226 1061 q 1192 1051 1208 1061 q 1153 1017 1176 1040 l 1117 1017 q 1251 1117 1204 1117 q 1278 1110 1268 1117 q 1300 1089 1289 1099 q 1333 1069 1319 1069 q 1365 1084 1344 1069 q 1401 1118 1385 1099 z "},"":{"ha":935,"x_min":14,"x_max":1438,"o":"m 718 58 l 685 0 l 597 0 l 638 64 q 538 94 585 72 q 440 160 490 117 q 349 88 381 111 q 282 44 318 65 q 115 -14 179 -14 q 42 8 69 -14 q 14 69 14 31 q 43 149 14 114 q 111 183 72 183 q 153 144 153 183 q 140 109 153 125 q 108 93 126 93 q 81 104 99 93 l 68 108 q 49 95 58 108 q 39 68 39 82 q 60 26 39 42 q 118 10 82 10 q 190 25 147 10 q 281 68 233 40 q 424 176 333 100 q 301 471 301 321 q 349 620 301 560 q 467 681 397 681 q 603 622 542 681 q 697 460 664 564 q 726 488 711 474 q 801 567 761 525 q 1098 844 986 761 q 1288 926 1210 926 l 1311 926 l 1239 826 l 1164 719 q 1057 568 1067 582 q 953 414 1040 544 l 901 338 l 858 274 l 760 126 l 732 83 q 827 113 790 92 q 907 182 864 133 l 925 168 q 718 58 843 74 m 443 193 q 544 294 494 240 q 639 394 628 382 l 679 438 q 475 647 614 647 q 375 591 417 647 q 333 454 333 535 q 443 193 333 314 m 458 175 q 649 88 554 97 q 692 325 692 208 q 683 407 692 364 q 536 251 585 301 q 458 175 496 210 m 757 488 l 729 457 l 704 432 q 714 340 714 388 q 694 149 714 260 q 774 264 728 199 q 853 376 819 329 q 924 471 888 422 q 1024 597 969 532 l 1075 660 l 1125 722 l 1176 786 l 1271 906 q 1173 870 1225 900 q 1050 779 1121 840 q 883 621 979 718 l 786 518 l 757 488 m 1190 1119 q 1218 1110 1207 1119 q 1229 1085 1229 1100 q 1208 1035 1229 1057 q 1160 1013 1188 1013 q 1122 1050 1122 1013 q 1143 1099 1122 1078 q 1190 1119 1164 1119 m 1399 1119 q 1426 1110 1415 1119 q 1438 1085 1438 1100 q 1417 1035 1438 1057 q 1368 1013 1396 1013 q 1331 1050 1331 1013 q 1351 1099 1331 1078 q 1399 1119 1372 1119 z "},"":{"ha":935,"x_min":14,"x_max":1376,"o":"m 718 58 l 685 0 l 597 0 l 638 64 q 538 94 585 72 q 440 160 490 117 q 349 88 381 111 q 282 44 318 65 q 115 -14 179 -14 q 42 8 69 -14 q 14 69 14 31 q 43 149 14 114 q 111 183 72 183 q 153 144 153 183 q 140 109 153 125 q 108 93 126 93 q 81 104 99 93 l 68 108 q 49 95 58 108 q 39 68 39 82 q 60 26 39 42 q 118 10 82 10 q 190 25 147 10 q 281 68 233 40 q 424 176 333 100 q 301 471 301 321 q 349 620 301 560 q 467 681 397 681 q 603 622 542 681 q 697 460 664 564 q 726 488 711 474 q 801 567 761 525 q 1098 844 986 761 q 1288 926 1210 926 l 1311 926 l 1239 826 l 1164 719 q 1057 568 1067 582 q 953 414 1040 544 l 901 338 l 858 274 l 760 126 l 732 83 q 827 113 790 92 q 907 182 864 133 l 925 168 q 718 58 843 74 m 443 193 q 544 294 494 240 q 639 394 628 382 l 679 438 q 475 647 614 647 q 375 591 417 647 q 333 454 333 535 q 443 193 333 314 m 458 175 q 649 88 554 97 q 692 325 692 208 q 683 407 692 364 q 536 251 585 301 q 458 175 496 210 m 757 488 l 729 457 l 704 432 q 714 340 714 388 q 694 149 714 260 q 774 264 728 199 q 853 376 819 329 q 924 471 888 422 q 1024 597 969 532 l 1075 660 l 1125 722 l 1176 786 l 1271 906 q 1173 870 1225 900 q 1050 779 1121 840 q 883 621 979 718 l 786 518 l 757 488 m 1283 1172 q 1349 1145 1322 1172 q 1376 1079 1376 1118 q 1349 1013 1376 1040 q 1283 986 1322 986 q 1217 1013 1244 986 q 1190 1079 1190 1040 q 1217 1145 1190 1118 q 1283 1172 1244 1172 m 1283 1142 q 1239 1124 1257 1142 q 1221 1079 1221 1106 q 1239 1035 1221 1053 q 1283 1017 1257 1017 q 1328 1035 1310 1017 q 1346 1079 1346 1053 q 1328 1124 1346 1106 q 1283 1142 1310 1142 z "},"":{"ha":1350,"x_min":167,"x_max":1603,"o":"m 733 114 l 664 0 l 585 0 l 624 63 q 435 122 517 63 q 386 68 388 69 q 338 25 365 47 q 236 -19 282 -19 q 187 3 207 -19 q 167 61 167 26 q 190 139 167 106 q 247 172 214 172 q 272 160 261 172 q 283 133 283 149 q 271 97 283 114 q 243 81 258 81 l 228 83 l 219 85 q 199 54 199 85 q 240 6 199 6 q 316 36 275 6 q 415 139 357 67 q 303 295 343 211 q 263 463 263 379 q 309 616 263 557 q 429 675 356 675 q 567 611 504 675 q 664 436 629 547 q 1271 951 1117 951 l 1292 950 l 1225 851 q 1358 918 1296 897 q 1486 939 1421 939 q 1603 872 1603 939 q 1569 777 1603 828 q 1479 685 1535 726 q 1386 633 1435 653 q 1303 614 1338 614 q 1242 661 1242 614 q 1273 730 1242 692 q 1343 785 1304 768 l 1351 769 q 1264 661 1264 713 q 1300 633 1264 633 q 1392 660 1338 633 q 1489 728 1446 688 q 1553 804 1526 763 q 1579 872 1579 846 q 1503 919 1579 919 q 1256 818 1383 919 q 1149 707 1188 764 q 1110 606 1110 650 q 1157 532 1110 563 l 1200 536 q 1265 517 1265 536 q 1229 500 1265 500 q 1187 503 1200 500 q 1146 517 1174 506 q 929 386 1038 486 q 813 242 861 322 q 765 111 765 161 q 810 36 765 65 q 925 7 854 7 q 1110 39 1021 7 q 1265 131 1200 71 q 1350 267 1350 204 q 1249 347 1350 347 q 1055 283 1157 347 q 879 114 953 218 l 865 122 q 1029 301 926 232 q 1236 371 1132 371 q 1336 344 1300 371 q 1372 269 1372 318 q 1236 74 1372 161 q 931 -14 1100 -14 q 733 114 757 -14 m 638 404 l 647 415 q 618 500 632 469 q 581 560 604 531 q 436 640 515 640 q 334 588 374 640 q 294 456 294 536 q 431 157 294 290 l 443 171 l 454 185 l 465 199 q 545 295 525 274 q 593 350 565 317 l 629 393 l 638 404 m 653 386 l 556 269 l 451 142 q 532 97 492 111 q 633 83 572 83 q 665 281 665 181 q 653 386 665 329 m 672 408 q 685 342 682 367 q 688 278 688 317 q 685 213 688 240 q 672 133 682 185 q 790 315 736 239 q 1001 603 843 390 q 1135 779 1086 717 q 1253 926 1179 836 q 1208 913 1229 922 q 1150 876 1188 903 q 847 600 1029 792 l 728 471 l 672 408 m 1074 619 l 1074 633 l 961 464 q 1043 506 1013 494 q 1132 529 1074 518 q 1074 619 1074 565 z "},"":{"ha":1038,"x_min":328,"x_max":1393,"o":"m 965 943 l 954 925 q 877 943 908 939 q 800 947 846 947 q 485 865 617 947 q 354 667 354 782 q 404 556 354 594 q 572 497 454 517 q 961 813 758 690 q 1299 936 1164 936 q 1393 864 1393 936 q 1349 760 1393 815 q 1221 650 1304 706 q 950 517 1090 564 q 657 471 810 471 q 507 269 554 351 q 460 122 460 186 q 501 38 460 69 q 614 7 542 7 q 890 96 758 7 q 1022 283 1022 185 q 997 344 1022 321 q 926 367 971 367 q 690 249 808 367 q 635 185 657 215 q 572 86 613 156 l 556 89 q 709 308 610 225 q 914 392 808 392 q 1008 363 971 392 q 1046 286 1046 333 q 907 81 1046 176 q 608 -15 768 -15 q 466 31 517 -15 q 415 163 415 78 q 446 305 415 236 q 556 476 476 374 q 419 517 460 494 q 353 582 378 540 q 328 671 328 624 q 450 888 328 803 q 764 972 572 972 q 965 943 861 972 m 676 493 q 958 542 815 493 q 1213 668 1100 590 q 1330 772 1288 719 q 1372 863 1372 824 q 1296 917 1372 917 q 1171 888 1244 917 q 1024 808 1097 858 q 857 678 935 749 q 676 493 779 607 m 365 -314 l 360 -297 q 433 -267 414 -278 q 478 -233 451 -257 q 506 -200 493 -219 q 518 -171 518 -181 q 510 -149 515 -161 l 507 -135 q 529 -85 507 -108 q 578 -61 551 -61 q 619 -99 619 -61 q 540 -226 619 -158 q 365 -314 460 -293 z "},"":{"ha":990,"x_min":336,"x_max":1315,"o":"m 717 601 l 736 601 q 789 738 736 669 q 939 860 842 806 q 1084 918 1001 894 q 1226 942 1167 942 q 1315 882 1315 942 q 1269 787 1315 840 q 1149 690 1222 733 q 976 611 1054 636 q 771 581 881 581 q 788 539 774 556 l 829 542 q 876 535 858 542 q 894 519 894 529 q 847 500 894 500 q 778 517 810 500 q 512 358 642 486 q 382 125 382 231 q 429 40 382 71 q 560 10 476 10 q 848 90 718 10 q 978 269 978 171 q 950 326 978 306 q 874 347 922 347 q 684 285 782 347 q 506 115 586 224 l 489 126 q 660 306 560 240 q 867 371 760 371 q 965 343 928 371 q 1003 269 1003 315 q 865 74 1003 163 q 561 -15 728 -15 q 394 31 453 -15 q 336 164 336 76 q 401 344 336 258 q 574 478 465 429 q 659 510 617 497 q 763 535 701 522 l 756 549 l 739 581 l 715 579 q 516 629 594 579 q 438 757 438 679 q 523 914 438 851 q 738 976 608 976 q 907 947 828 976 l 899 933 q 776 950 836 950 q 556 894 646 950 q 467 756 467 838 q 536 644 467 688 q 717 601 606 601 m 774 603 q 996 639 893 603 q 1172 732 1082 669 q 1260 810 1228 769 q 1293 882 1293 851 q 1232 919 1293 919 q 1115 894 1181 919 q 981 822 1050 869 q 811 668 883 757 q 790 640 793 647 q 774 603 786 633 m 1157 1139 l 1213 992 l 1183 992 l 1040 1139 l 1157 1139 z "},"":{"ha":990,"x_min":336,"x_max":1367,"o":"m 717 601 l 736 601 q 789 738 736 669 q 939 860 842 806 q 1084 918 1001 894 q 1226 942 1167 942 q 1315 882 1315 942 q 1269 787 1315 840 q 1149 690 1222 733 q 976 611 1054 636 q 771 581 881 581 q 788 539 774 556 l 829 542 q 876 535 858 542 q 894 519 894 529 q 847 500 894 500 q 778 517 810 500 q 512 358 642 486 q 382 125 382 231 q 429 40 382 71 q 560 10 476 10 q 848 90 718 10 q 978 269 978 171 q 950 326 978 306 q 874 347 922 347 q 684 285 782 347 q 506 115 586 224 l 489 126 q 660 306 560 240 q 867 371 760 371 q 965 343 928 371 q 1003 269 1003 315 q 865 74 1003 163 q 561 -15 728 -15 q 394 31 453 -15 q 336 164 336 76 q 401 344 336 258 q 574 478 465 429 q 659 510 617 497 q 763 535 701 522 l 756 549 l 739 581 l 715 579 q 516 629 594 579 q 438 757 438 679 q 523 914 438 851 q 738 976 608 976 q 907 947 828 976 l 899 933 q 776 950 836 950 q 556 894 646 950 q 467 756 467 838 q 536 644 467 688 q 717 601 606 601 m 774 603 q 996 639 893 603 q 1172 732 1082 669 q 1260 810 1228 769 q 1293 882 1293 851 q 1232 919 1293 919 q 1115 894 1181 919 q 981 822 1050 869 q 811 668 883 757 q 790 640 793 647 q 774 603 786 633 m 1367 1138 l 1163 990 l 1126 990 l 1250 1138 l 1367 1138 z "},"":{"ha":990,"x_min":336,"x_max":1315,"o":"m 717 601 l 736 601 q 789 738 736 669 q 939 860 842 806 q 1084 918 1001 894 q 1226 942 1167 942 q 1315 882 1315 942 q 1269 787 1315 840 q 1149 690 1222 733 q 976 611 1054 636 q 771 581 881 581 q 788 539 774 556 l 829 542 q 876 535 858 542 q 894 519 894 529 q 847 500 894 500 q 778 517 810 500 q 512 358 642 486 q 382 125 382 231 q 429 40 382 71 q 560 10 476 10 q 848 90 718 10 q 978 269 978 171 q 950 326 978 306 q 874 347 922 347 q 684 285 782 347 q 506 115 586 224 l 489 126 q 660 306 560 240 q 867 371 760 371 q 965 343 928 371 q 1003 269 1003 315 q 865 74 1003 163 q 561 -15 728 -15 q 394 31 453 -15 q 336 164 336 76 q 401 344 336 258 q 574 478 465 429 q 659 510 617 497 q 763 535 701 522 l 756 549 l 739 581 l 715 579 q 516 629 594 579 q 438 757 438 679 q 523 914 438 851 q 738 976 608 976 q 907 947 828 976 l 899 933 q 776 950 836 950 q 556 894 646 950 q 467 756 467 838 q 536 644 467 688 q 717 601 606 601 m 774 603 q 996 639 893 603 q 1172 732 1082 669 q 1260 810 1228 769 q 1293 882 1293 851 q 1232 919 1293 919 q 1115 894 1181 919 q 981 822 1050 869 q 811 668 883 757 q 790 640 793 647 q 774 603 786 633 m 1265 1163 l 1290 997 l 1265 997 l 1213 1085 l 1046 997 l 990 997 l 1265 1163 z "},"":{"ha":990,"x_min":336,"x_max":1315,"o":"m 717 601 l 736 601 q 789 738 736 669 q 939 860 842 806 q 1084 918 1001 894 q 1226 942 1167 942 q 1315 882 1315 942 q 1269 787 1315 840 q 1149 690 1222 733 q 976 611 1054 636 q 771 581 881 581 q 788 539 774 556 l 829 542 q 876 535 858 542 q 894 519 894 529 q 847 500 894 500 q 778 517 810 500 q 512 358 642 486 q 382 125 382 231 q 429 40 382 71 q 560 10 476 10 q 848 90 718 10 q 978 269 978 171 q 950 326 978 306 q 874 347 922 347 q 684 285 782 347 q 506 115 586 224 l 489 126 q 660 306 560 240 q 867 371 760 371 q 965 343 928 371 q 1003 269 1003 315 q 865 74 1003 163 q 561 -15 728 -15 q 394 31 453 -15 q 336 164 336 76 q 401 344 336 258 q 574 478 465 429 q 659 510 617 497 q 763 535 701 522 l 756 549 l 739 581 l 715 579 q 516 629 594 579 q 438 757 438 679 q 523 914 438 851 q 738 976 608 976 q 907 947 828 976 l 899 933 q 776 950 836 950 q 556 894 646 950 q 467 756 467 838 q 536 644 467 688 q 717 601 606 601 m 774 603 q 996 639 893 603 q 1172 732 1082 669 q 1260 810 1228 769 q 1293 882 1293 851 q 1232 919 1293 919 q 1115 894 1181 919 q 981 822 1050 869 q 811 668 883 757 q 790 640 793 647 q 774 603 786 633 m 1060 1119 q 1088 1110 1076 1119 q 1099 1085 1099 1100 q 1078 1035 1099 1057 q 1029 1013 1057 1013 q 992 1050 992 1013 q 1013 1099 992 1078 q 1060 1119 1033 1119 m 1268 1119 q 1296 1110 1285 1119 q 1307 1085 1307 1100 q 1286 1035 1307 1057 q 1238 1013 1265 1013 q 1200 1050 1200 1013 q 1221 1099 1200 1078 q 1268 1119 1242 1119 z "},"":{"ha":771,"x_min":-94,"x_max":1296,"o":"m 1067 649 l 1081 635 q 1057 610 1067 618 q 1025 586 1047 601 q 905 513 953 535 q 789 481 857 492 l 732 379 q 469 81 619 176 q 113 -14 318 -14 q -38 17 18 -14 q -94 100 -94 47 q -65 168 -94 139 q 6 197 -36 197 q 46 163 46 197 q 34 133 46 146 q 7 119 22 119 q -24 132 -3 119 l -36 136 q -58 123 -47 136 q -69 96 -69 110 q -20 32 -69 57 q 111 7 29 7 q 353 66 246 7 q 563 256 461 125 q 722 486 622 332 q 557 644 557 515 q 633 803 557 736 q 839 890 708 869 q 956 908 904 901 q 1028 914 1007 914 l 1051 915 l 1138 921 q 1178 924 1167 921 q 1233 943 1206 933 q 1281 953 1261 953 q 1296 943 1296 953 q 1264 926 1296 933 l 1232 918 l 1200 911 q 1108 865 1161 903 q 1000 772 1054 828 q 906 663 946 717 q 804 507 865 608 q 943 558 878 524 q 1067 649 1008 592 m 738 508 q 1142 904 911 785 l 1031 894 q 872 874 944 894 q 749 821 814 857 q 630 728 671 779 q 589 625 589 678 q 624 549 589 576 q 738 508 658 521 m 1047 1139 l 1103 992 l 1074 992 l 931 1139 l 1047 1139 z "},"":{"ha":771,"x_min":-94,"x_max":1296,"o":"m 1067 649 l 1081 635 q 1057 610 1067 618 q 1025 586 1047 601 q 905 513 953 535 q 789 481 857 492 l 732 379 q 469 81 619 176 q 113 -14 318 -14 q -38 17 18 -14 q -94 100 -94 47 q -65 168 -94 139 q 6 197 -36 197 q 46 163 46 197 q 34 133 46 146 q 7 119 22 119 q -24 132 -3 119 l -36 136 q -58 123 -47 136 q -69 96 -69 110 q -20 32 -69 57 q 111 7 29 7 q 353 66 246 7 q 563 256 461 125 q 722 486 622 332 q 557 644 557 515 q 633 803 557 736 q 839 890 708 869 q 956 908 904 901 q 1028 914 1007 914 l 1051 915 l 1138 921 q 1178 924 1167 921 q 1233 943 1206 933 q 1281 953 1261 953 q 1296 943 1296 953 q 1264 926 1296 933 l 1232 918 l 1200 911 q 1108 865 1161 903 q 1000 772 1054 828 q 906 663 946 717 q 804 507 865 608 q 943 558 878 524 q 1067 649 1008 592 m 738 508 q 1142 904 911 785 l 1031 894 q 872 874 944 894 q 749 821 814 857 q 630 728 671 779 q 589 625 589 678 q 624 549 589 576 q 738 508 658 521 m 1256 1138 l 1051 990 l 1015 990 l 1139 1138 l 1256 1138 z "},"":{"ha":771,"x_min":-94,"x_max":1296,"o":"m 1067 649 l 1081 635 q 1057 610 1067 618 q 1025 586 1047 601 q 905 513 953 535 q 789 481 857 492 l 732 379 q 469 81 619 176 q 113 -14 318 -14 q -38 17 18 -14 q -94 100 -94 47 q -65 168 -94 139 q 6 197 -36 197 q 46 163 46 197 q 34 133 46 146 q 7 119 22 119 q -24 132 -3 119 l -36 136 q -58 123 -47 136 q -69 96 -69 110 q -20 32 -69 57 q 111 7 29 7 q 353 66 246 7 q 563 256 461 125 q 722 486 622 332 q 557 644 557 515 q 633 803 557 736 q 839 890 708 869 q 956 908 904 901 q 1028 914 1007 914 l 1051 915 l 1138 921 q 1178 924 1167 921 q 1233 943 1206 933 q 1281 953 1261 953 q 1296 943 1296 953 q 1264 926 1296 933 l 1232 918 l 1200 911 q 1108 865 1161 903 q 1000 772 1054 828 q 906 663 946 717 q 804 507 865 608 q 943 558 878 524 q 1067 649 1008 592 m 738 508 q 1142 904 911 785 l 1031 894 q 872 874 944 894 q 749 821 814 857 q 630 728 671 779 q 589 625 589 678 q 624 549 589 576 q 738 508 658 521 m 1128 1163 l 1153 997 l 1128 997 l 1075 1085 l 908 997 l 853 997 l 1128 1163 z "},"":{"ha":771,"x_min":-94,"x_max":1296,"o":"m 1067 649 l 1081 635 q 1057 610 1067 618 q 1025 586 1047 601 q 905 513 953 535 q 789 481 857 492 l 732 379 q 469 81 619 176 q 113 -14 318 -14 q -38 17 18 -14 q -94 100 -94 47 q -65 168 -94 139 q 6 197 -36 197 q 46 163 46 197 q 34 133 46 146 q 7 119 22 119 q -24 132 -3 119 l -36 136 q -58 123 -47 136 q -69 96 -69 110 q -20 32 -69 57 q 111 7 29 7 q 353 66 246 7 q 563 256 461 125 q 722 486 622 332 q 557 644 557 515 q 633 803 557 736 q 839 890 708 869 q 956 908 904 901 q 1028 914 1007 914 l 1051 915 l 1138 921 q 1178 924 1167 921 q 1233 943 1206 933 q 1281 953 1261 953 q 1296 943 1296 953 q 1264 926 1296 933 l 1232 918 l 1200 911 q 1108 865 1161 903 q 1000 772 1054 828 q 906 663 946 717 q 804 507 865 608 q 943 558 878 524 q 1067 649 1008 592 m 738 508 q 1142 904 911 785 l 1031 894 q 872 874 944 894 q 749 821 814 857 q 630 728 671 779 q 589 625 589 678 q 624 549 589 576 q 738 508 658 521 m 1001 1119 q 1029 1110 1018 1119 q 1040 1085 1040 1100 q 1019 1035 1040 1057 q 971 1013 999 1013 q 933 1050 933 1013 q 954 1099 933 1078 q 1001 1119 975 1119 m 1172 1119 q 1200 1110 1189 1119 q 1211 1085 1211 1100 q 1190 1035 1211 1057 q 1142 1013 1169 1013 q 1104 1050 1104 1013 q 1125 1099 1104 1078 q 1172 1119 1146 1119 z "},"":{"ha":1240,"x_min":154,"x_max":1439,"o":"m 715 306 l 704 317 q 774 364 736 350 q 874 378 813 378 l 897 376 l 933 422 q 1069 579 1013 524 q 1236 722 1125 635 q 1099 866 1183 821 q 882 911 1014 911 q 501 783 657 911 q 353 525 353 661 q 403 417 353 457 q 539 376 453 376 q 801 477 681 376 q 969 736 921 578 l 985 732 q 829 461 954 568 q 543 354 704 354 q 380 406 440 354 q 319 547 319 458 q 476 826 319 710 q 850 942 632 942 q 1095 894 1001 942 q 1254 738 1189 847 q 1433 843 1347 803 l 1439 826 q 1359 781 1390 801 q 1265 710 1328 760 q 1283 646 1278 676 q 1289 583 1289 615 q 1250 378 1289 483 q 1140 185 1211 272 q 757 -12 982 -12 q 668 -4 708 -12 q 553 29 628 4 q 306 -14 418 -14 q 154 53 154 -14 q 194 99 154 82 q 306 115 235 115 q 422 101 363 115 q 553 56 481 88 q 710 167 642 106 q 865 338 778 228 l 835 339 q 715 306 764 339 m 1150 381 l 1156 369 q 1080 336 1117 346 q 992 326 1043 326 l 953 328 q 802 174 874 229 q 586 43 731 118 q 672 17 631 25 q 757 8 713 8 q 1133 213 978 8 q 1232 392 1196 293 q 1268 579 1268 490 q 1249 696 1268 638 q 1128 564 1179 631 l 1019 418 l 994 385 l 983 368 l 1046 365 q 1090 367 1081 365 q 1150 381 1121 374 m 524 44 q 303 93 396 93 q 216 82 247 93 q 185 50 185 71 q 217 18 185 29 q 308 7 250 7 q 524 44 411 7 z "},"":{"ha":922,"x_min":-57,"x_max":1393,"o":"m 565 549 l 596 593 q 772 808 686 724 q 925 922 851 888 q 890 861 901 886 q 864 793 878 836 l 835 681 l 822 629 l 811 578 l 800 526 q 726 289 775 411 q 613 58 676 167 q 754 222 674 117 q 789 272 775 253 q 879 401 864 379 l 1018 608 q 1202 848 1126 772 q 1333 924 1278 924 q 1376 907 1360 924 q 1393 864 1393 890 q 1376 810 1393 833 q 1335 788 1358 788 q 1313 797 1322 788 q 1304 817 1304 806 q 1343 850 1304 843 q 1365 871 1365 856 q 1354 893 1365 883 q 1326 903 1343 903 q 1204 821 1279 903 q 1064 640 1142 751 l 999 543 l 928 436 q 782 225 843 307 q 650 65 721 143 q 588 2 604 15 q 553 -14 572 -11 q 611 101 588 40 q 626 151 617 118 q 642 213 635 183 l 654 260 l 665 307 l 676 354 q 761 659 728 572 q 874 868 794 746 q 728 725 789 797 q 521 453 667 653 q 223 91 335 196 q 21 -14 111 -14 q -35 6 -14 -14 q -57 61 -57 26 q -33 127 -57 99 q 22 156 -8 156 q 56 124 56 156 q 10 82 56 86 q -28 49 -28 82 q 24 7 -28 7 q 127 42 72 7 q 256 157 182 76 q 431 365 331 238 l 533 506 l 565 549 m 1257 1118 l 1290 1118 q 1220 1043 1257 1072 q 1158 1014 1183 1014 q 1113 1038 1138 1014 q 1088 1058 1094 1054 q 1075 1061 1082 1061 q 1048 1051 1064 1061 q 1008 1017 1032 1040 l 972 1017 q 1107 1117 1060 1117 q 1133 1110 1124 1117 q 1156 1089 1144 1099 q 1189 1069 1175 1069 q 1220 1084 1200 1069 q 1257 1118 1240 1099 z "},"":{"ha":871,"x_min":182,"x_max":1200,"o":"m 893 632 l 908 624 q 788 444 867 518 q 640 369 710 369 q 564 450 564 369 q 595 554 564 499 q 679 654 626 610 q 808 736 738 704 q 932 768 878 768 q 1008 741 981 768 q 1035 665 1035 714 q 979 480 1035 585 q 821 260 924 375 q 583 58 707 132 q 356 -15 458 -15 q 227 31 272 -15 q 182 164 182 78 q 257 416 182 286 q 476 669 332 546 q 774 867 619 793 q 1047 940 928 940 q 1159 908 1118 940 q 1200 818 1200 875 q 1183 749 1200 783 q 1134 687 1167 715 q 1076 658 1101 658 l 1060 663 q 1143 728 1111 685 q 1175 819 1175 772 q 1141 892 1175 865 q 1050 919 1107 919 q 768 824 922 919 q 472 564 614 729 q 356 417 410 492 q 271 292 301 343 q 221 128 221 204 q 257 38 221 69 q 357 6 293 6 q 649 128 485 6 q 903 398 793 236 q 1014 663 1014 560 q 933 749 1014 749 q 810 709 876 749 q 679 596 744 669 q 592 435 592 496 q 644 390 592 390 q 776 460 704 390 q 893 632 847 529 m 1079 1139 l 1135 992 l 1106 992 l 963 1139 l 1079 1139 z "},"":{"ha":871,"x_min":182,"x_max":1269,"o":"m 893 632 l 908 624 q 788 444 867 518 q 640 369 710 369 q 564 450 564 369 q 595 554 564 499 q 679 654 626 610 q 808 736 738 704 q 932 768 878 768 q 1008 741 981 768 q 1035 665 1035 714 q 979 480 1035 585 q 821 260 924 375 q 583 58 707 132 q 356 -15 458 -15 q 227 31 272 -15 q 182 164 182 78 q 257 416 182 286 q 476 669 332 546 q 774 867 619 793 q 1047 940 928 940 q 1159 908 1118 940 q 1200 818 1200 875 q 1183 749 1200 783 q 1134 687 1167 715 q 1076 658 1101 658 l 1060 663 q 1143 728 1111 685 q 1175 819 1175 772 q 1141 892 1175 865 q 1050 919 1107 919 q 768 824 922 919 q 472 564 614 729 q 356 417 410 492 q 271 292 301 343 q 221 128 221 204 q 257 38 221 69 q 357 6 293 6 q 649 128 485 6 q 903 398 793 236 q 1014 663 1014 560 q 933 749 1014 749 q 810 709 876 749 q 679 596 744 669 q 592 435 592 496 q 644 390 592 390 q 776 460 704 390 q 893 632 847 529 m 1269 1138 l 1065 990 l 1029 990 l 1153 1138 l 1269 1138 z "},"":{"ha":871,"x_min":182,"x_max":1200,"o":"m 893 632 l 908 624 q 788 444 867 518 q 640 369 710 369 q 564 450 564 369 q 595 554 564 499 q 679 654 626 610 q 808 736 738 704 q 932 768 878 768 q 1008 741 981 768 q 1035 665 1035 714 q 979 480 1035 585 q 821 260 924 375 q 583 58 707 132 q 356 -15 458 -15 q 227 31 272 -15 q 182 164 182 78 q 257 416 182 286 q 476 669 332 546 q 774 867 619 793 q 1047 940 928 940 q 1159 908 1118 940 q 1200 818 1200 875 q 1183 749 1200 783 q 1134 687 1167 715 q 1076 658 1101 658 l 1060 663 q 1143 728 1111 685 q 1175 819 1175 772 q 1141 892 1175 865 q 1050 919 1107 919 q 768 824 922 919 q 472 564 614 729 q 356 417 410 492 q 271 292 301 343 q 221 128 221 204 q 257 38 221 69 q 357 6 293 6 q 649 128 485 6 q 903 398 793 236 q 1014 663 1014 560 q 933 749 1014 749 q 810 709 876 749 q 679 596 744 669 q 592 435 592 496 q 644 390 592 390 q 776 460 704 390 q 893 632 847 529 m 1169 1163 l 1194 997 l 1169 997 l 1117 1085 l 950 997 l 894 997 l 1169 1163 z "},"":{"ha":871,"x_min":182,"x_max":1246,"o":"m 893 632 l 908 624 q 788 444 867 518 q 640 369 710 369 q 564 450 564 369 q 595 554 564 499 q 679 654 626 610 q 808 736 738 704 q 932 768 878 768 q 1008 741 981 768 q 1035 665 1035 714 q 979 480 1035 585 q 821 260 924 375 q 583 58 707 132 q 356 -15 458 -15 q 227 31 272 -15 q 182 164 182 78 q 257 416 182 286 q 476 669 332 546 q 774 867 619 793 q 1047 940 928 940 q 1159 908 1118 940 q 1200 818 1200 875 q 1183 749 1200 783 q 1134 687 1167 715 q 1076 658 1101 658 l 1060 663 q 1143 728 1111 685 q 1175 819 1175 772 q 1141 892 1175 865 q 1050 919 1107 919 q 768 824 922 919 q 472 564 614 729 q 356 417 410 492 q 271 292 301 343 q 221 128 221 204 q 257 38 221 69 q 357 6 293 6 q 649 128 485 6 q 903 398 793 236 q 1014 663 1014 560 q 933 749 1014 749 q 810 709 876 749 q 679 596 744 669 q 592 435 592 496 q 644 390 592 390 q 776 460 704 390 q 893 632 847 529 m 1213 1118 l 1246 1118 q 1176 1043 1213 1072 q 1114 1014 1139 1014 q 1068 1038 1093 1014 q 1044 1058 1050 1054 q 1031 1061 1038 1061 q 1003 1051 1019 1061 q 964 1017 988 1040 l 928 1017 q 1063 1117 1015 1117 q 1089 1110 1079 1117 q 1111 1089 1100 1099 q 1144 1069 1131 1069 q 1176 1084 1156 1069 q 1213 1118 1196 1099 z "},"":{"ha":871,"x_min":182,"x_max":1247,"o":"m 893 632 l 908 624 q 788 444 867 518 q 640 369 710 369 q 564 450 564 369 q 595 554 564 499 q 679 654 626 610 q 808 736 738 704 q 932 768 878 768 q 1008 741 981 768 q 1035 665 1035 714 q 979 480 1035 585 q 821 260 924 375 q 583 58 707 132 q 356 -15 458 -15 q 227 31 272 -15 q 182 164 182 78 q 257 416 182 286 q 476 669 332 546 q 774 867 619 793 q 1047 940 928 940 q 1159 908 1118 940 q 1200 818 1200 875 q 1183 749 1200 783 q 1134 687 1167 715 q 1076 658 1101 658 l 1060 663 q 1143 728 1111 685 q 1175 819 1175 772 q 1141 892 1175 865 q 1050 919 1107 919 q 768 824 922 919 q 472 564 614 729 q 356 417 410 492 q 271 292 301 343 q 221 128 221 204 q 257 38 221 69 q 357 6 293 6 q 649 128 485 6 q 903 398 793 236 q 1014 663 1014 560 q 933 749 1014 749 q 810 709 876 749 q 679 596 744 669 q 592 435 592 496 q 644 390 592 390 q 776 460 704 390 q 893 632 847 529 m 1000 1119 q 1028 1110 1017 1119 q 1039 1085 1039 1100 q 1018 1035 1039 1057 q 969 1013 997 1013 q 932 1050 932 1013 q 953 1099 932 1078 q 1000 1119 974 1119 m 1208 1119 q 1236 1110 1225 1119 q 1247 1085 1247 1100 q 1226 1035 1247 1057 q 1178 1013 1206 1013 q 1140 1050 1140 1013 q 1161 1099 1140 1078 q 1208 1119 1182 1119 z "},"":{"ha":601,"x_min":101,"x_max":725,"o":"m 372 556 l 422 386 l 713 557 l 725 532 l 429 358 l 483 178 l 457 169 l 406 342 l 114 169 l 101 194 l 399 368 l 344 547 l 372 556 z "},"":{"ha":885,"x_min":42,"x_max":1313,"o":"m 1172 800 l 1022 699 q 1032 650 1032 674 q 974 463 1032 571 q 815 244 917 356 q 351 -15 575 -15 q 176 129 206 -15 l 57 47 l 42 69 l 176 160 q 265 428 176 288 q 507 690 353 569 q 1046 932 819 932 q 1192 844 1163 932 l 1297 917 l 1313 894 l 1199 818 l 1200 803 q 1139 674 1200 728 q 1074 638 1100 638 l 1054 642 q 1172 800 1172 711 m 1006 688 l 899 614 q 792 442 875 522 q 638 361 710 361 q 572 396 597 361 l 221 158 l 219 132 q 256 41 219 74 q 357 8 293 8 q 803 264 575 8 q 1011 653 1011 497 q 1006 688 1011 665 m 875 597 l 596 411 q 640 385 611 385 q 763 445 697 385 q 875 597 829 506 m 228 196 l 564 422 l 563 447 q 593 544 563 492 q 675 642 624 596 q 805 724 735 692 q 928 756 875 756 q 973 750 958 756 q 1008 722 988 744 l 1171 831 q 1050 911 1150 911 q 793 830 939 911 q 519 615 647 749 q 396 474 465 558 q 297 341 326 389 q 252 262 267 293 q 228 196 238 231 m 594 443 l 990 710 q 929 736 965 736 q 733 642 842 736 q 594 443 625 547 z "},"":{"ha":1050,"x_min":354,"x_max":1451,"o":"m 1365 921 l 1451 921 l 1181 567 l 988 314 l 900 200 q 811 82 831 111 q 792 33 792 53 q 819 7 792 7 q 953 57 865 7 q 1138 188 1042 107 l 1151 171 l 1086 121 q 933 23 1008 61 q 814 -15 857 -15 q 771 1 788 -15 q 754 46 754 18 q 774 119 754 82 q 856 239 793 156 l 935 347 l 892 304 q 615 57 715 128 q 440 -14 515 -14 q 374 58 374 -14 q 405 167 374 113 q 526 328 436 222 l 764 606 q 874 747 849 706 q 899 828 899 788 q 862 892 899 867 q 765 917 825 917 q 500 824 624 917 q 376 624 376 731 q 399 565 376 586 q 460 544 421 544 q 557 576 504 544 q 654 660 610 607 q 744 851 719 736 l 764 849 q 653 615 739 707 q 457 524 567 524 q 383 551 413 524 q 354 624 354 579 q 482 839 354 742 q 765 936 610 936 q 893 899 844 936 q 942 799 942 861 q 928 726 942 760 q 875 639 914 692 q 821 569 853 608 q 750 483 789 529 l 521 218 q 434 107 463 151 q 406 40 406 63 q 444 7 406 7 q 590 65 501 7 q 804 244 679 124 q 922 363 854 292 q 1028 479 990 435 q 1196 690 1078 538 q 1300 829 1251 763 q 1365 921 1344 889 m 1169 1139 l 1225 992 l 1196 992 l 1053 1139 l 1169 1139 z "},"":{"ha":1050,"x_min":354,"x_max":1451,"o":"m 1365 921 l 1451 921 l 1181 567 l 988 314 l 900 200 q 811 82 831 111 q 792 33 792 53 q 819 7 792 7 q 953 57 865 7 q 1138 188 1042 107 l 1151 171 l 1086 121 q 933 23 1008 61 q 814 -15 857 -15 q 771 1 788 -15 q 754 46 754 18 q 774 119 754 82 q 856 239 793 156 l 935 347 l 892 304 q 615 57 715 128 q 440 -14 515 -14 q 374 58 374 -14 q 405 167 374 113 q 526 328 436 222 l 764 606 q 874 747 849 706 q 899 828 899 788 q 862 892 899 867 q 765 917 825 917 q 500 824 624 917 q 376 624 376 731 q 399 565 376 586 q 460 544 421 544 q 557 576 504 544 q 654 660 610 607 q 744 851 719 736 l 764 849 q 653 615 739 707 q 457 524 567 524 q 383 551 413 524 q 354 624 354 579 q 482 839 354 742 q 765 936 610 936 q 893 899 844 936 q 942 799 942 861 q 928 726 942 760 q 875 639 914 692 q 821 569 853 608 q 750 483 789 529 l 521 218 q 434 107 463 151 q 406 40 406 63 q 444 7 406 7 q 590 65 501 7 q 804 244 679 124 q 922 363 854 292 q 1028 479 990 435 q 1196 690 1078 538 q 1300 829 1251 763 q 1365 921 1344 889 m 1378 1138 l 1174 990 l 1138 990 l 1261 1138 l 1378 1138 z "},"":{"ha":1050,"x_min":354,"x_max":1451,"o":"m 1365 921 l 1451 921 l 1181 567 l 988 314 l 900 200 q 811 82 831 111 q 792 33 792 53 q 819 7 792 7 q 953 57 865 7 q 1138 188 1042 107 l 1151 171 l 1086 121 q 933 23 1008 61 q 814 -15 857 -15 q 771 1 788 -15 q 754 46 754 18 q 774 119 754 82 q 856 239 793 156 l 935 347 l 892 304 q 615 57 715 128 q 440 -14 515 -14 q 374 58 374 -14 q 405 167 374 113 q 526 328 436 222 l 764 606 q 874 747 849 706 q 899 828 899 788 q 862 892 899 867 q 765 917 825 917 q 500 824 624 917 q 376 624 376 731 q 399 565 376 586 q 460 544 421 544 q 557 576 504 544 q 654 660 610 607 q 744 851 719 736 l 764 849 q 653 615 739 707 q 457 524 567 524 q 383 551 413 524 q 354 624 354 579 q 482 839 354 742 q 765 936 610 936 q 893 899 844 936 q 942 799 942 861 q 928 726 942 760 q 875 639 914 692 q 821 569 853 608 q 750 483 789 529 l 521 218 q 434 107 463 151 q 406 40 406 63 q 444 7 406 7 q 590 65 501 7 q 804 244 679 124 q 922 363 854 292 q 1028 479 990 435 q 1196 690 1078 538 q 1300 829 1251 763 q 1365 921 1344 889 m 1296 1163 l 1321 997 l 1296 997 l 1243 1085 l 1076 997 l 1021 997 l 1296 1163 z "},"":{"ha":1050,"x_min":354,"x_max":1451,"o":"m 1365 921 l 1451 921 l 1181 567 l 988 314 l 900 200 q 811 82 831 111 q 792 33 792 53 q 819 7 792 7 q 953 57 865 7 q 1138 188 1042 107 l 1151 171 l 1086 121 q 933 23 1008 61 q 814 -15 857 -15 q 771 1 788 -15 q 754 46 754 18 q 774 119 754 82 q 856 239 793 156 l 935 347 l 892 304 q 615 57 715 128 q 440 -14 515 -14 q 374 58 374 -14 q 405 167 374 113 q 526 328 436 222 l 764 606 q 874 747 849 706 q 899 828 899 788 q 862 892 899 867 q 765 917 825 917 q 500 824 624 917 q 376 624 376 731 q 399 565 376 586 q 460 544 421 544 q 557 576 504 544 q 654 660 610 607 q 744 851 719 736 l 764 849 q 653 615 739 707 q 457 524 567 524 q 383 551 413 524 q 354 624 354 579 q 482 839 354 742 q 765 936 610 936 q 893 899 844 936 q 942 799 942 861 q 928 726 942 760 q 875 639 914 692 q 821 569 853 608 q 750 483 789 529 l 521 218 q 434 107 463 151 q 406 40 406 63 q 444 7 406 7 q 590 65 501 7 q 804 244 679 124 q 922 363 854 292 q 1028 479 990 435 q 1196 690 1078 538 q 1300 829 1251 763 q 1365 921 1344 889 m 1104 1119 q 1132 1110 1121 1119 q 1143 1085 1143 1100 q 1122 1035 1143 1057 q 1074 1013 1101 1013 q 1036 1050 1036 1013 q 1057 1099 1036 1078 q 1104 1119 1078 1119 m 1313 1119 q 1340 1110 1329 1119 q 1351 1085 1351 1100 q 1331 1035 1351 1057 q 1282 1013 1310 1013 q 1244 1050 1244 1013 q 1265 1099 1244 1078 q 1313 1119 1286 1119 z "},"":{"ha":1035,"x_min":158,"x_max":1504,"o":"m 1057 208 l 1069 192 q 1014 151 1054 178 q 910 88 944 107 q 854 58 875 69 q 813 38 833 47 q 747 14 793 29 q 612 -144 668 -87 q 492 -242 556 -200 q 244 -335 347 -335 q 158 -278 158 -335 q 202 -193 158 -239 q 324 -107 246 -147 q 476 -44 375 -79 l 610 -3 l 663 14 l 732 106 l 767 153 l 832 242 q 889 318 861 281 q 947 400 910 347 q 878 333 893 347 q 801 265 849 306 q 511 111 615 111 q 432 185 432 111 q 594 463 432 297 l 725 597 q 849 743 814 692 q 883 832 883 794 q 739 917 883 917 q 458 828 592 917 q 324 640 324 739 q 407 569 324 569 q 598 648 497 569 q 754 842 699 726 l 771 836 q 705 715 738 760 q 617 628 672 671 q 407 547 508 547 q 328 572 358 547 q 297 640 297 597 q 440 842 297 746 q 743 938 583 938 q 910 821 910 938 q 863 667 910 747 q 711 483 815 586 q 640 413 676 450 q 591 360 619 392 q 540 303 563 329 q 496 249 508 267 q 461 172 461 200 q 474 144 461 156 q 507 133 486 133 q 782 279 611 133 q 883 369 839 328 q 986 471 926 411 l 1122 614 l 1172 665 l 1221 718 l 1269 769 q 1350 853 1333 836 q 1426 926 1381 885 l 1504 926 l 1396 814 q 1144 538 1215 621 q 968 313 1064 443 l 857 164 q 812 105 835 135 q 769 46 789 75 q 902 106 836 69 q 1057 208 968 143 m 640 -15 l 567 -39 l 451 -76 q 267 -171 347 -111 q 188 -276 188 -231 q 239 -312 188 -312 q 427 -241 331 -312 q 640 -15 524 -169 m 1379 1138 l 1175 990 l 1139 990 l 1263 1138 l 1379 1138 z "},"":{"ha":1083,"x_min":56,"x_max":1332,"o":"m 960 407 l 968 389 q 897 301 897 353 q 947 263 897 263 q 1115 360 1033 263 q 1196 565 1196 458 q 1103 732 1196 681 q 1013 620 1047 668 q 871 399 979 572 q 695 166 775 244 q 507 40 615 88 q 257 -14 379 -14 q 108 15 161 -14 q 56 97 56 44 q 88 167 56 136 q 161 197 119 197 q 207 157 207 197 q 194 129 207 140 q 165 118 182 118 q 133 131 150 118 l 121 135 q 93 122 104 135 q 82 89 82 108 q 127 31 82 53 q 247 8 172 8 q 517 99 399 8 q 819 446 635 189 q 952 620 906 565 q 1072 746 999 675 q 986 772 1025 765 q 890 779 947 779 q 646 750 753 779 q 441 656 539 721 q 287 515 343 592 q 231 368 231 438 q 262 292 231 319 q 349 264 293 264 q 597 383 469 264 q 797 685 725 503 l 815 679 q 685 428 778 553 q 533 288 619 339 q 361 236 447 236 q 247 272 288 236 q 206 369 206 307 q 265 527 206 444 q 428 676 325 610 q 865 800 618 800 q 988 792 938 800 q 1089 761 1038 783 q 1217 867 1161 826 q 1332 939 1272 908 l 1332 917 q 1214 838 1246 864 q 1117 747 1182 813 q 1203 662 1169 719 q 1236 540 1236 604 q 1144 336 1236 432 q 949 240 1053 240 q 875 301 875 240 q 897 360 875 332 q 960 407 919 388 z "},"":{"ha":592,"x_min":-275,"x_max":925,"o":"m -275 -347 l 369 538 q 856 936 661 936 q 925 878 925 936 q 853 723 925 803 q 621 538 782 643 q 544 483 557 496 q 531 449 531 469 q 533 428 531 440 q 540 399 535 415 q 560 332 556 351 q 564 288 564 313 q 524 161 564 222 q 406 47 483 100 q 253 -14 317 -14 q 186 50 186 -14 q 204 100 186 78 q 246 122 222 122 q 266 113 257 122 q 275 92 275 104 q 267 69 275 78 q 240 53 260 61 q 221 28 221 44 q 256 1 221 1 q 344 39 293 1 q 433 131 396 76 q 510 379 510 244 l 508 443 q 524 488 508 471 q 608 553 539 504 q 886 876 886 747 q 840 917 886 917 q 504 625 717 917 l -200 -347 l -275 -347 z "},"":{"ha":615,"x_min":57,"x_max":674,"o":"m 663 421 l 436 122 q 394 60 407 83 q 381 24 381 38 q 403 4 381 4 q 508 56 433 4 q 661 182 582 107 l 674 169 q 594 97 643 138 q 510 32 546 57 q 401 -15 440 -15 q 353 47 353 -15 q 369 122 353 78 l 294 63 q 201 8 249 31 q 122 -14 153 -14 q 57 61 57 -14 q 203 301 57 175 q 347 397 269 360 q 479 435 425 435 q 540 381 540 435 l 536 346 l 590 421 l 663 421 m 483 415 q 372 366 442 415 q 217 226 303 317 q 124 114 158 167 q 89 35 89 61 q 121 6 89 6 q 321 110 196 6 q 464 256 407 179 q 521 378 521 332 q 483 415 521 415 m 488 649 l 529 496 l 501 496 l 385 649 l 488 649 z "},"":{"ha":615,"x_min":57,"x_max":717,"o":"m 663 421 l 436 122 q 394 60 407 83 q 381 24 381 38 q 403 4 381 4 q 508 56 433 4 q 661 182 582 107 l 674 169 q 594 97 643 138 q 510 32 546 57 q 401 -15 440 -15 q 353 47 353 -15 q 369 122 353 78 l 294 63 q 201 8 249 31 q 122 -14 153 -14 q 57 61 57 -14 q 203 301 57 175 q 347 397 269 360 q 479 435 425 435 q 540 381 540 435 l 536 346 l 590 421 l 663 421 m 483 415 q 372 366 442 415 q 217 226 303 317 q 124 114 158 167 q 89 35 89 61 q 121 6 89 6 q 321 110 196 6 q 464 256 407 179 q 521 378 521 332 q 483 415 521 415 m 717 649 l 496 496 l 457 496 l 585 649 l 717 649 z "},"":{"ha":615,"x_min":57,"x_max":674,"o":"m 663 421 l 436 122 q 394 60 407 83 q 381 24 381 38 q 403 4 381 4 q 508 56 433 4 q 661 182 582 107 l 674 169 q 594 97 643 138 q 510 32 546 57 q 401 -15 440 -15 q 353 47 353 -15 q 369 122 353 78 l 294 63 q 201 8 249 31 q 122 -14 153 -14 q 57 61 57 -14 q 203 301 57 175 q 347 397 269 360 q 479 435 425 435 q 540 381 540 435 l 536 346 l 590 421 l 663 421 m 483 415 q 372 366 442 415 q 217 226 303 317 q 124 114 158 167 q 89 35 89 61 q 121 6 89 6 q 321 110 196 6 q 464 256 407 179 q 521 378 521 332 q 483 415 521 415 m 614 646 l 639 483 l 614 483 l 563 568 l 397 483 l 344 483 l 614 646 z "},"":{"ha":615,"x_min":57,"x_max":683,"o":"m 663 421 l 436 122 q 394 60 407 83 q 381 24 381 38 q 403 4 381 4 q 508 56 433 4 q 661 182 582 107 l 674 169 q 594 97 643 138 q 510 32 546 57 q 401 -15 440 -15 q 353 47 353 -15 q 369 122 353 78 l 294 63 q 201 8 249 31 q 122 -14 153 -14 q 57 61 57 -14 q 203 301 57 175 q 347 397 269 360 q 479 435 425 435 q 540 381 540 435 l 536 346 l 590 421 l 663 421 m 483 415 q 372 366 442 415 q 217 226 303 317 q 124 114 158 167 q 89 35 89 61 q 121 6 89 6 q 321 110 196 6 q 464 256 407 179 q 521 378 521 332 q 483 415 521 415 m 650 603 l 683 603 q 553 500 603 500 q 529 506 540 500 q 502 529 518 511 q 472 547 486 547 q 407 501 446 547 l 371 501 q 500 601 460 601 q 521 597 513 601 q 549 573 529 592 q 583 554 568 554 q 650 603 606 554 z "},"":{"ha":615,"x_min":57,"x_max":682,"o":"m 663 421 l 436 122 q 394 60 407 83 q 381 24 381 38 q 403 4 381 4 q 508 56 433 4 q 661 182 582 107 l 674 169 q 594 97 643 138 q 510 32 546 57 q 401 -15 440 -15 q 353 47 353 -15 q 369 122 353 78 l 294 63 q 201 8 249 31 q 122 -14 153 -14 q 57 61 57 -14 q 203 301 57 175 q 347 397 269 360 q 479 435 425 435 q 540 381 540 435 l 536 346 l 590 421 l 663 421 m 483 415 q 372 366 442 415 q 217 226 303 317 q 124 114 158 167 q 89 35 89 61 q 121 6 89 6 q 321 110 196 6 q 464 256 407 179 q 521 378 521 332 q 483 415 521 415 m 486 600 q 517 572 517 600 q 498 527 517 547 q 457 507 479 507 q 424 538 424 507 q 442 581 424 563 q 486 600 461 600 m 651 600 q 682 568 682 600 q 664 526 682 546 q 622 507 646 507 q 589 538 589 507 q 608 581 589 561 q 651 600 628 600 z "},"":{"ha":615,"x_min":57,"x_max":674,"o":"m 663 421 l 436 122 q 394 60 407 83 q 381 24 381 38 q 403 4 381 4 q 508 56 433 4 q 661 182 582 107 l 674 169 q 594 97 643 138 q 510 32 546 57 q 401 -15 440 -15 q 353 47 353 -15 q 369 122 353 78 l 294 63 q 201 8 249 31 q 122 -14 153 -14 q 57 61 57 -14 q 203 301 57 175 q 347 397 269 360 q 479 435 425 435 q 540 381 540 435 l 536 346 l 590 421 l 663 421 m 483 415 q 372 366 442 415 q 217 226 303 317 q 124 114 158 167 q 89 35 89 61 q 121 6 89 6 q 321 110 196 6 q 464 256 407 179 q 521 378 521 332 q 483 415 521 415 m 568 663 q 624 643 603 663 q 644 589 644 624 q 613 515 644 547 q 536 483 581 483 q 485 504 507 483 q 463 556 463 525 q 494 629 463 596 q 568 663 526 663 m 571 633 q 519 608 543 633 q 496 556 496 583 q 536 511 496 511 q 589 536 565 511 q 613 594 613 561 q 601 622 613 611 q 571 633 590 633 z "},"":{"ha":732,"x_min":58,"x_max":828,"o":"m 642 421 l 586 340 q 786 436 700 436 q 828 404 828 436 q 731 288 828 349 q 481 183 635 226 q 415 99 438 136 q 392 40 392 63 q 435 3 392 3 q 588 52 492 3 q 783 183 683 101 l 796 171 q 597 35 693 85 q 438 -15 500 -15 q 360 65 360 -15 q 363 97 360 85 q 378 138 365 108 q 124 -12 228 -12 q 58 58 58 -12 q 225 322 58 190 q 353 401 283 369 q 471 432 422 432 q 513 418 496 432 q 529 382 529 404 q 514 321 529 361 l 586 421 l 642 421 m 471 414 q 371 369 433 414 q 229 242 308 325 q 124 117 160 169 q 88 35 88 64 q 125 4 88 4 q 242 50 171 4 q 389 175 313 96 q 510 375 510 301 q 471 414 510 414 m 499 208 q 709 294 617 236 q 801 401 801 353 q 779 418 801 418 q 713 399 753 418 q 632 344 674 379 q 593 310 615 331 q 549 265 571 289 l 499 208 z "},"":{"ha":425,"x_min":-83,"x_max":531,"o":"m 454 190 l 467 172 q 363 92 406 122 q 288 42 321 61 q 131 -14 188 -14 q 61 65 61 -14 q 111 208 61 135 q 254 351 161 282 q 368 417 308 392 q 474 442 428 442 q 531 389 531 442 q 508 328 531 356 q 458 300 486 300 q 422 331 422 300 q 434 358 422 347 q 465 369 446 369 q 507 397 507 374 q 475 421 507 421 q 257 275 392 421 q 139 132 183 197 q 94 38 94 67 q 128 7 94 7 q 276 60 189 7 q 353 109 321 85 q 454 190 386 133 m -78 -296 l -83 -275 q 8 -219 -36 -258 q 53 -157 53 -181 l 50 -149 q 44 -124 44 -132 q 65 -81 44 -100 q 110 -62 85 -62 q 138 -96 138 -62 q 79 -197 138 -142 q 15 -251 42 -233 q -69 -292 -12 -268 l -78 -296 z "},"":{"ha":436,"x_min":60,"x_max":524,"o":"m 490 186 l 504 168 q 299 33 393 81 q 136 -14 204 -14 q 60 61 60 -14 q 236 332 60 192 q 360 407 294 378 q 475 436 426 436 q 524 401 524 436 q 433 285 524 344 q 175 174 342 226 q 96 38 96 86 q 136 6 96 6 q 476 176 260 6 l 490 186 m 199 201 q 319 247 269 224 q 408 299 368 269 q 474 356 449 328 q 499 403 499 385 q 479 419 499 419 q 357 360 433 419 q 199 201 281 300 m 461 649 l 503 496 l 475 496 l 358 649 l 461 649 z "},"":{"ha":436,"x_min":60,"x_max":663,"o":"m 490 186 l 504 168 q 299 33 393 81 q 136 -14 204 -14 q 60 61 60 -14 q 236 332 60 192 q 360 407 294 378 q 475 436 426 436 q 524 401 524 436 q 433 285 524 344 q 175 174 342 226 q 96 38 96 86 q 136 6 96 6 q 476 176 260 6 l 490 186 m 199 201 q 319 247 269 224 q 408 299 368 269 q 474 356 449 328 q 499 403 499 385 q 479 419 499 419 q 357 360 433 419 q 199 201 281 300 m 663 649 l 442 496 l 403 496 l 531 649 l 663 649 z "},"":{"ha":436,"x_min":60,"x_max":560,"o":"m 490 186 l 504 168 q 299 33 393 81 q 136 -14 204 -14 q 60 61 60 -14 q 236 332 60 192 q 360 407 294 378 q 475 436 426 436 q 524 401 524 436 q 433 285 524 344 q 175 174 342 226 q 96 38 96 86 q 136 6 96 6 q 476 176 260 6 l 490 186 m 199 201 q 319 247 269 224 q 408 299 368 269 q 474 356 449 328 q 499 403 499 385 q 479 419 499 419 q 357 360 433 419 q 199 201 281 300 m 535 646 l 560 483 l 535 483 l 483 568 l 318 483 l 265 483 l 535 646 z "},"":{"ha":436,"x_min":60,"x_max":593,"o":"m 490 186 l 504 168 q 299 33 393 81 q 136 -14 204 -14 q 60 61 60 -14 q 236 332 60 192 q 360 407 294 378 q 475 436 426 436 q 524 401 524 436 q 433 285 524 344 q 175 174 342 226 q 96 38 96 86 q 136 6 96 6 q 476 176 260 6 l 490 186 m 199 201 q 319 247 269 224 q 408 299 368 269 q 474 356 449 328 q 499 403 499 385 q 479 419 499 419 q 357 360 433 419 q 199 201 281 300 m 397 600 q 428 572 428 600 q 409 527 428 547 q 368 507 390 507 q 335 538 335 507 q 353 581 335 563 q 397 600 372 600 m 563 600 q 593 568 593 600 q 575 526 593 546 q 533 507 557 507 q 500 538 500 507 q 519 581 500 561 q 563 600 539 600 z "},"":{"ha":289,"x_min":31,"x_max":375,"o":"m 346 421 l 117 119 q 90 86 106 106 q 75 64 82 76 q 58 22 58 36 q 78 6 58 6 q 188 56 114 6 q 290 139 235 89 l 308 156 l 339 182 l 353 168 q 182 28 246 69 q 75 -14 118 -14 q 31 40 31 -14 q 47 115 31 79 q 111 213 64 151 l 269 421 l 346 421 m 333 649 l 375 496 l 347 496 l 231 649 l 333 649 z "},"":{"ha":289,"x_min":31,"x_max":544,"o":"m 346 421 l 117 119 q 90 86 106 106 q 75 64 82 76 q 58 22 58 36 q 78 6 58 6 q 188 56 114 6 q 290 139 235 89 l 308 156 l 339 182 l 353 168 q 182 28 246 69 q 75 -14 118 -14 q 31 40 31 -14 q 47 115 31 79 q 111 213 64 151 l 269 421 l 346 421 m 544 649 l 324 496 l 285 496 l 413 649 l 544 649 z "},"":{"ha":289,"x_min":31,"x_max":458,"o":"m 346 421 l 117 119 q 90 86 106 106 q 75 64 82 76 q 58 22 58 36 q 78 6 58 6 q 188 56 114 6 q 290 139 235 89 l 308 156 l 339 182 l 353 168 q 182 28 246 69 q 75 -14 118 -14 q 31 40 31 -14 q 47 115 31 79 q 111 213 64 151 l 269 421 l 346 421 m 433 646 l 458 483 l 433 483 l 382 568 l 217 483 l 164 483 l 433 646 z "},"":{"ha":289,"x_min":31,"x_max":456,"o":"m 346 421 l 117 119 q 90 86 106 106 q 75 64 82 76 q 58 22 58 36 q 78 6 58 6 q 188 56 114 6 q 290 139 235 89 l 308 156 l 339 182 l 353 168 q 182 28 246 69 q 75 -14 118 -14 q 31 40 31 -14 q 47 115 31 79 q 111 213 64 151 l 269 421 l 346 421 m 297 600 q 328 572 328 600 q 309 527 328 547 q 268 507 290 507 q 235 538 235 507 q 253 581 235 563 q 297 600 272 600 m 425 600 q 456 568 456 600 q 438 526 456 546 q 396 507 419 507 q 363 538 363 507 q 382 581 363 561 q 425 600 401 600 z "},"":{"ha":519,"x_min":61,"x_max":686,"o":"m 500 425 l 526 632 l 372 576 l 374 597 l 529 654 l 551 833 l 575 833 l 553 663 l 686 711 l 683 689 l 550 640 l 522 397 q 451 221 513 301 q 506 199 472 199 l 531 201 l 531 179 l 499 175 q 438 201 468 175 q 356 109 386 139 q 297 56 326 79 q 143 -15 204 -15 q 61 65 61 -15 q 97 184 61 121 q 199 306 133 247 q 336 401 264 365 q 463 438 408 438 q 500 425 481 438 m 426 225 l 422 251 q 492 358 422 328 q 497 385 497 375 q 468 417 497 417 q 371 374 431 417 q 242 257 311 332 q 140 131 179 192 q 100 42 100 71 q 140 6 100 6 q 206 24 167 6 q 286 75 244 42 q 426 225 349 124 z "},"":{"ha":599,"x_min":-29,"x_max":661,"o":"m 357 421 l 222 235 q 329 330 288 296 q 408 387 371 364 q 477 422 446 410 q 529 435 508 435 q 578 386 578 435 q 504 239 578 325 l 401 117 q 340 22 340 43 q 361 6 340 6 q 475 55 397 6 q 647 186 553 104 l 661 169 q 470 28 539 69 q 361 -14 401 -14 q 310 40 310 -14 q 374 182 310 106 l 478 306 q 524 361 510 343 q 544 401 544 388 q 526 417 544 417 q 331 307 467 417 q 106 78 194 197 l 47 0 l -29 0 l 289 421 l 357 421 m 614 603 l 647 603 q 517 500 567 500 q 493 506 504 500 q 466 529 482 511 q 436 547 450 547 q 371 501 410 547 l 335 501 q 464 601 424 601 q 485 597 476 601 q 513 573 493 592 q 547 554 532 554 q 614 603 569 554 z "},"":{"ha":519,"x_min":61,"x_max":531,"o":"m 531 201 l 531 179 l 499 175 q 438 201 465 175 q 356 109 386 139 q 297 56 326 79 q 143 -15 204 -15 q 61 65 61 -15 q 97 184 61 121 q 199 306 133 247 q 336 401 264 365 q 463 438 408 438 q 518 386 518 438 q 500 307 518 351 q 451 221 482 263 q 506 199 472 199 l 531 201 m 426 225 l 422 253 q 440 316 422 288 q 492 358 458 344 l 497 385 q 468 417 497 417 q 371 374 431 417 q 242 257 311 332 q 140 131 179 192 q 100 42 100 71 q 140 6 100 6 q 206 24 167 6 q 286 75 244 42 q 426 225 350 125 m 465 649 l 507 496 l 479 496 l 363 649 l 465 649 z "},"":{"ha":519,"x_min":61,"x_max":676,"o":"m 531 201 l 531 179 l 499 175 q 438 201 465 175 q 356 109 386 139 q 297 56 326 79 q 143 -15 204 -15 q 61 65 61 -15 q 97 184 61 121 q 199 306 133 247 q 336 401 264 365 q 463 438 408 438 q 518 386 518 438 q 500 307 518 351 q 451 221 482 263 q 506 199 472 199 l 531 201 m 426 225 l 422 253 q 440 316 422 288 q 492 358 458 344 l 497 385 q 468 417 497 417 q 371 374 431 417 q 242 257 311 332 q 140 131 179 192 q 100 42 100 71 q 140 6 100 6 q 206 24 167 6 q 286 75 244 42 q 426 225 350 125 m 676 649 l 456 496 l 417 496 l 544 649 l 676 649 z "},"":{"ha":519,"x_min":61,"x_max":578,"o":"m 531 201 l 531 179 l 499 175 q 438 201 465 175 q 356 109 386 139 q 297 56 326 79 q 143 -15 204 -15 q 61 65 61 -15 q 97 184 61 121 q 199 306 133 247 q 336 401 264 365 q 463 438 408 438 q 518 386 518 438 q 500 307 518 351 q 451 221 482 263 q 506 199 472 199 l 531 201 m 426 225 l 422 253 q 440 316 422 288 q 492 358 458 344 l 497 385 q 468 417 497 417 q 371 374 431 417 q 242 257 311 332 q 140 131 179 192 q 100 42 100 71 q 140 6 100 6 q 206 24 167 6 q 286 75 244 42 q 426 225 350 125 m 553 646 l 578 483 l 553 483 l 501 568 l 336 483 l 283 483 l 553 646 z "},"":{"ha":519,"x_min":61,"x_max":644,"o":"m 531 201 l 531 179 l 499 175 q 438 201 465 175 q 356 109 386 139 q 297 56 326 79 q 143 -15 204 -15 q 61 65 61 -15 q 97 184 61 121 q 199 306 133 247 q 336 401 264 365 q 463 438 408 438 q 518 386 518 438 q 500 307 518 351 q 451 221 482 263 q 506 199 472 199 l 531 201 m 426 225 l 422 253 q 440 316 422 288 q 492 358 458 344 l 497 385 q 468 417 497 417 q 371 374 431 417 q 242 257 311 332 q 140 131 179 192 q 100 42 100 71 q 140 6 100 6 q 206 24 167 6 q 286 75 244 42 q 426 225 350 125 m 611 603 l 644 603 q 514 500 564 500 q 490 506 501 500 q 463 529 479 511 q 433 547 447 547 q 368 501 407 547 l 332 501 q 461 601 421 601 q 482 597 474 601 q 510 573 490 592 q 544 554 529 554 q 611 603 567 554 z "},"":{"ha":519,"x_min":61,"x_max":617,"o":"m 531 201 l 531 179 l 499 175 q 438 201 465 175 q 356 109 386 139 q 297 56 326 79 q 143 -15 204 -15 q 61 65 61 -15 q 97 184 61 121 q 199 306 133 247 q 336 401 264 365 q 463 438 408 438 q 518 386 518 438 q 500 307 518 351 q 451 221 482 263 q 506 199 472 199 l 531 201 m 426 225 l 422 253 q 440 316 422 288 q 492 358 458 344 l 497 385 q 468 417 497 417 q 371 374 431 417 q 242 257 311 332 q 140 131 179 192 q 100 42 100 71 q 140 6 100 6 q 206 24 167 6 q 286 75 244 42 q 426 225 350 125 m 421 600 q 451 572 451 600 q 433 527 451 547 q 392 507 414 507 q 358 538 358 507 q 377 581 358 563 q 421 600 396 600 m 586 600 q 617 568 617 600 q 599 526 617 546 q 557 507 581 507 q 524 538 524 507 q 543 581 524 561 q 586 600 563 600 z "},"":{"ha":601,"x_min":175,"x_max":656,"o":"m 193 378 l 656 378 l 639 353 l 175 353 l 193 378 m 332 275 q 364 261 350 275 q 378 228 378 247 q 364 196 378 210 q 331 182 350 182 q 298 195 311 182 q 285 228 285 208 q 299 261 285 247 q 332 275 313 275 m 500 546 q 532 532 518 546 q 546 499 546 518 q 532 467 546 481 q 499 453 518 453 q 466 466 479 453 q 453 499 453 479 q 467 532 453 518 q 500 546 481 546 z "},"":{"ha":525,"x_min":-21,"x_max":597,"o":"m 531 201 l 531 181 l 499 176 q 465 182 478 176 q 438 204 453 188 l 404 164 q 268 39 344 90 q 138 -12 192 -12 q 63 43 75 -12 l -14 -8 l -21 8 l 61 64 q 101 193 61 126 q 218 324 142 260 q 345 406 274 372 q 461 439 417 439 q 503 425 488 439 q 517 389 519 411 l 515 378 l 586 426 l 597 411 l 515 354 q 488 277 499 300 q 453 222 476 254 q 500 196 467 196 q 531 201 514 196 m 121 106 l 449 328 q 465 347 458 342 q 492 363 472 353 q 497 383 497 374 q 467 418 497 418 q 392 389 439 418 q 294 313 344 360 q 210 226 244 267 q 121 106 176 185 m 431 294 l 106 75 l 99 44 q 142 8 99 8 q 277 70 196 8 q 425 225 358 132 l 422 251 q 431 294 422 275 z "},"":{"ha":578,"x_min":33,"x_max":635,"o":"m 622 421 l 435 168 q 385 100 424 153 q 356 56 369 79 q 343 24 343 33 q 364 6 343 6 q 457 50 394 6 q 519 96 490 72 q 622 182 542 114 l 635 168 q 456 27 518 68 q 360 -14 394 -14 q 314 46 314 -14 q 319 86 314 67 q 343 150 325 106 q 196 31 267 75 q 81 -14 125 -14 q 33 39 33 -14 q 51 119 33 79 q 114 214 69 158 l 276 421 l 356 421 l 114 111 q 61 26 61 43 q 86 6 61 6 q 261 100 147 6 q 478 329 375 194 l 547 421 l 622 421 m 457 649 l 499 496 l 471 496 l 354 649 l 457 649 z "},"":{"ha":578,"x_min":33,"x_max":676,"o":"m 622 421 l 435 168 q 385 100 424 153 q 356 56 369 79 q 343 24 343 33 q 364 6 343 6 q 457 50 394 6 q 519 96 490 72 q 622 182 542 114 l 635 168 q 456 27 518 68 q 360 -14 394 -14 q 314 46 314 -14 q 319 86 314 67 q 343 150 325 106 q 196 31 267 75 q 81 -14 125 -14 q 33 39 33 -14 q 51 119 33 79 q 114 214 69 158 l 276 421 l 356 421 l 114 111 q 61 26 61 43 q 86 6 61 6 q 261 100 147 6 q 478 329 375 194 l 547 421 l 622 421 m 676 649 l 456 496 l 417 496 l 544 649 l 676 649 z "},"":{"ha":578,"x_min":33,"x_max":635,"o":"m 622 421 l 435 168 q 385 100 424 153 q 356 56 369 79 q 343 24 343 33 q 364 6 343 6 q 457 50 394 6 q 519 96 490 72 q 622 182 542 114 l 635 168 q 456 27 518 68 q 360 -14 394 -14 q 314 46 314 -14 q 319 86 314 67 q 343 150 325 106 q 196 31 267 75 q 81 -14 125 -14 q 33 39 33 -14 q 51 119 33 79 q 114 214 69 158 l 276 421 l 356 421 l 114 111 q 61 26 61 43 q 86 6 61 6 q 261 100 147 6 q 478 329 375 194 l 547 421 l 622 421 m 586 646 l 611 483 l 586 483 l 535 568 l 369 483 l 317 483 l 586 646 z "},"":{"ha":578,"x_min":33,"x_max":646,"o":"m 622 421 l 435 168 q 385 100 424 153 q 356 56 369 79 q 343 24 343 33 q 364 6 343 6 q 457 50 394 6 q 519 96 490 72 q 622 182 542 114 l 635 168 q 456 27 518 68 q 360 -14 394 -14 q 314 46 314 -14 q 319 86 314 67 q 343 150 325 106 q 196 31 267 75 q 81 -14 125 -14 q 33 39 33 -14 q 51 119 33 79 q 114 214 69 158 l 276 421 l 356 421 l 114 111 q 61 26 61 43 q 86 6 61 6 q 261 100 147 6 q 478 329 375 194 l 547 421 l 622 421 m 450 600 q 481 572 481 600 q 462 527 481 547 q 421 507 443 507 q 388 538 388 507 q 406 581 388 563 q 450 600 425 600 m 615 600 q 646 568 646 600 q 628 526 646 546 q 586 507 610 507 q 553 538 553 507 q 572 581 553 561 q 615 600 592 600 z "},"":{"ha":588,"x_min":-193,"x_max":692,"o":"m 632 179 l 642 164 q 479 63 553 101 q 299 -17 406 25 q 206 -135 235 -101 q 140 -204 178 -168 q -10 -322 63 -281 q -137 -364 -82 -364 q -193 -322 -193 -364 q -28 -142 -193 -246 q 126 -61 36 -101 q 156 -47 146 -51 q 199 -29 178 -36 l 214 -24 l 231 -17 l 365 164 q 208 33 278 78 q 94 -12 138 -12 q 43 47 43 -12 q 132 226 43 115 l 286 421 l 365 421 l 114 101 q 82 56 90 72 q 74 28 74 40 q 97 7 74 7 q 166 31 124 7 q 265 100 208 54 q 403 225 349 168 q 525 374 457 282 l 560 421 l 638 421 l 319 13 q 632 179 472 68 m 207 -47 q -42 -176 50 -107 q -126 -255 -94 -215 q -158 -321 -158 -294 q -128 -344 -158 -344 q 8 -275 -69 -344 q 207 -47 86 -206 m 692 649 l 471 496 l 432 496 l 560 649 l 692 649 z "},"":{"ha":600,"x_min":-301,"x_max":679,"o":"m 679 833 l 229 242 q 536 433 431 433 q 586 388 586 433 q 511 238 586 321 l 415 128 q 362 61 378 85 q 346 25 346 38 q 365 6 346 6 q 522 85 408 6 q 560 113 533 92 q 653 186 588 133 l 665 171 q 644 151 653 158 q 600 118 635 144 q 450 16 501 44 q 363 -12 399 -12 q 318 46 318 -12 q 382 182 318 107 l 503 322 q 542 371 532 356 q 553 399 551 386 q 535 415 553 415 q 357 328 471 415 q 215 201 275 264 q 74 35 154 139 l -221 -353 l -301 -353 l 611 833 l 679 833 z "},"":{"ha":588,"x_min":-193,"x_max":646,"o":"m 632 179 l 642 164 q 479 63 553 101 q 299 -17 406 25 q 206 -135 235 -101 q 140 -204 178 -168 q -10 -322 63 -281 q -137 -364 -82 -364 q -193 -322 -193 -364 q -28 -142 -193 -246 q 126 -61 36 -101 q 156 -47 146 -51 q 199 -29 178 -36 l 214 -24 l 231 -17 l 365 164 q 208 33 278 78 q 94 -12 138 -12 q 43 47 43 -12 q 132 226 43 115 l 286 421 l 365 421 l 114 101 q 82 56 90 72 q 74 28 74 40 q 97 7 74 7 q 166 31 124 7 q 265 100 208 54 q 403 225 349 168 q 525 374 457 282 l 560 421 l 638 421 l 319 13 q 632 179 472 68 m 207 -47 q -42 -176 50 -107 q -126 -255 -94 -215 q -158 -321 -158 -294 q -128 -344 -158 -344 q 8 -275 -69 -344 q 207 -47 86 -206 m 450 600 q 481 572 481 600 q 462 527 481 547 q 421 507 443 507 q 388 538 388 507 q 406 581 388 563 q 450 600 425 600 m 615 600 q 646 568 646 600 q 628 526 646 546 q 586 507 610 507 q 553 538 553 507 q 572 581 553 561 q 615 600 592 600 z "},"":{"ha":625,"x_min":397,"x_max":672,"o":"m 631 633 l 672 633 q 494 488 604 488 q 424 515 450 488 q 397 588 397 543 l 401 625 l 435 625 l 433 606 q 504 538 433 538 q 631 633 578 538 z "},"":{"ha":694,"x_min":538,"x_max":631,"o":"m 600 600 q 631 572 631 600 q 612 527 631 547 q 571 507 593 507 q 538 538 538 507 q 556 581 538 563 q 600 600 575 600 z "},"":{"ha":289,"x_min":31,"x_max":353,"o":"m 346 421 l 117 119 q 90 86 106 106 q 75 64 82 76 q 58 22 58 36 q 78 6 58 6 q 188 56 114 6 q 290 139 235 89 l 308 156 l 339 182 l 353 168 q 182 28 246 69 q 75 -14 118 -14 q 31 40 31 -14 q 47 115 31 79 q 111 213 64 151 l 269 421 l 346 421 z "},"":{"ha":694,"x_min":524,"x_max":710,"o":"m 617 668 q 683 641 656 668 q 710 575 710 614 q 683 509 710 536 q 617 482 656 482 q 551 509 578 482 q 524 575 524 536 q 551 641 524 614 q 617 668 578 668 m 617 638 q 572 619 590 638 q 554 575 554 601 q 572 531 554 549 q 617 513 590 513 q 661 531 643 513 q 679 575 679 549 q 661 619 679 601 q 617 638 643 638 z "},"":{"ha":694,"x_min":240,"x_max":414,"o":"m 304 -36 l 414 0 q 308 -76 342 -42 q 275 -146 275 -111 q 325 -193 275 -193 q 376 -169 349 -193 l 396 -194 q 318 -226 357 -226 q 263 -206 285 -226 q 240 -150 240 -185 q 304 -36 240 -92 z "},"":{"ha":694,"x_min":522,"x_max":817,"o":"m 547 483 l 522 646 l 547 646 l 599 561 l 764 646 l 817 646 l 547 483 z "},"":{"ha":1046,"x_min":19,"x_max":1465,"o":"m 1021 943 l 1017 925 q 924 942 982 935 q 829 949 867 949 q 549 870 663 949 q 436 678 436 792 q 529 526 436 582 q 783 471 622 471 l 840 472 q 985 656 921 585 q 1132 800 1049 728 q 1274 899 1204 864 q 1396 935 1344 935 q 1465 868 1465 935 q 1405 734 1465 811 q 1249 593 1344 657 q 910 456 1099 492 l 843 350 l 1038 392 l 1043 367 l 825 321 q 683 165 760 229 q 504 53 607 101 q 704 11 625 11 q 855 52 778 11 q 1044 192 932 93 l 1060 178 q 848 26 940 71 q 654 -18 756 -18 q 550 -10 592 -18 q 432 25 508 -1 q 183 -14 294 -14 q 63 3 107 -14 q 19 49 19 19 q 66 104 19 82 q 186 126 113 126 q 268 119 222 126 q 351 101 314 113 l 471 64 q 599 151 554 108 q 725 304 644 193 l 513 258 l 508 285 l 747 335 l 788 394 l 825 451 q 701 453 746 451 q 599 472 657 456 q 458 552 508 497 q 408 681 408 607 q 530 887 408 801 q 822 972 651 972 q 922 964 865 972 q 1021 943 979 956 m 922 479 q 1086 529 1018 500 q 1236 614 1154 558 q 1384 747 1326 676 q 1442 868 1442 818 q 1394 914 1442 914 q 1157 776 1297 914 q 1049 657 1100 721 q 922 479 999 593 m 394 40 q 359 51 378 44 q 319 65 340 58 q 230 89 279 79 q 144 99 181 99 q 74 85 103 99 q 46 53 46 72 q 83 19 46 32 q 183 7 119 7 q 267 13 233 7 q 394 40 300 18 z "},"":{"ha":382,"x_min":22,"x_max":883,"o":"m 314 342 l 290 325 l 256 285 l 425 328 l 429 304 l 235 256 l 179 182 l 135 121 q 83 26 83 47 q 107 6 83 6 q 372 186 174 6 l 385 169 q 217 35 292 85 q 104 -14 142 -14 q 51 50 51 -14 q 69 126 51 90 q 140 239 86 163 l 28 213 l 22 235 l 160 267 l 168 278 q 844 910 643 910 q 883 878 883 910 q 757 692 883 811 q 539 507 650 594 q 453 442 507 482 q 361 376 399 403 l 338 360 l 314 342 m 332 382 q 572 560 467 475 q 744 713 676 644 q 851 871 851 822 q 833 890 851 890 q 633 749 774 890 q 564 672 594 707 q 467 553 525 626 q 388 454 421 496 q 332 382 368 431 z "},"":{"ha":667,"x_min":-278,"x_max":874,"o":"m 160 132 l -206 -371 l -278 -371 l 118 174 q 108 204 110 189 l 103 200 l 89 217 l 118 240 q 139 265 126 254 q 182 299 151 276 l 224 329 l 329 467 q 683 847 542 739 q 833 924 782 924 q 874 885 874 924 q 675 622 874 807 q 585 542 635 585 q 531 496 556 517 l 411 401 l 282 300 l 174 151 q 240 132 204 132 q 336 152 294 132 q 453 231 378 172 l 471 244 l 571 331 l 639 421 l 717 421 l 488 119 q 453 74 460 83 q 438 49 446 65 q 429 24 429 33 q 454 6 429 6 q 608 88 500 6 l 732 186 l 768 217 l 782 200 l 746 169 q 558 26 625 67 q 446 -14 490 -14 q 400 44 400 -14 q 417 118 400 82 q 479 213 433 154 l 511 254 l 482 228 l 467 214 q 350 132 399 154 q 236 110 301 110 q 196 115 210 110 q 160 132 182 119 m 335 372 q 454 461 411 426 q 592 579 504 501 q 718 697 674 651 q 793 785 763 743 q 840 878 840 849 q 819 899 840 899 q 644 769 763 899 q 335 372 525 640 m 828 661 q 867 624 867 661 q 849 582 867 601 q 806 563 831 563 q 779 574 790 563 q 768 603 768 585 q 787 642 768 624 q 828 661 806 661 z "},"":{"ha":743,"x_min":-278,"x_max":1243,"o":"m 160 132 l -206 -371 l -278 -371 l 118 174 q 108 204 110 189 l 103 199 l 89 215 l 118 240 q 139 265 128 254 q 182 299 150 275 l 224 329 l 276 396 q 383 532 344 482 q 451 617 428 589 q 676 841 574 760 q 833 922 778 922 q 874 883 874 922 q 675 621 874 806 q 564 521 593 546 q 411 400 504 469 l 383 379 l 357 358 l 282 300 l 174 151 q 240 132 204 132 q 365 165 310 132 q 571 331 419 197 q 743 538 619 396 q 1020 814 903 719 q 1204 908 1138 908 q 1243 876 1243 908 q 1210 796 1243 844 q 1117 690 1176 747 q 1013 599 1064 643 q 899 506 961 554 q 813 444 856 475 q 722 376 779 421 l 699 358 l 674 342 l 650 324 q 581 236 610 274 q 494 119 546 190 q 443 28 443 47 q 468 6 440 6 q 629 88 517 6 l 754 186 l 790 215 l 803 199 l 768 169 q 578 28 650 71 q 463 -14 507 -14 q 411 50 411 -14 q 428 126 411 92 q 511 253 446 161 q 360 138 414 167 q 243 110 307 110 q 200 114 215 110 q 160 132 185 118 m 335 372 q 455 460 404 419 q 592 578 506 501 q 793 783 742 713 q 840 878 840 847 q 819 897 840 897 q 642 767 763 897 q 335 372 521 636 m 692 382 q 932 558 829 476 q 1104 711 1035 640 q 1211 869 1211 821 q 1193 889 1211 889 q 993 747 1133 889 q 903 649 938 690 q 826 553 894 638 l 692 382 z "},"":{"ha":1101,"x_min":107,"x_max":1446,"o":"m 1082 474 l 1088 463 q 1012 429 1049 439 q 924 419 975 419 l 885 421 q 728 224 804 297 q 518 68 651 150 q 767 39 676 39 q 992 78 917 39 q 1106 218 1067 118 l 1125 213 q 995 44 1086 103 q 775 -15 904 -15 q 665 -5 718 -15 q 479 44 611 6 q 239 -15 356 -15 q 142 0 178 -15 q 107 43 107 15 q 152 93 107 74 q 271 113 197 113 q 354 106 311 113 q 490 76 397 99 q 586 156 546 115 q 685 269 626 196 q 803 429 760 365 l 767 432 q 647 399 696 432 l 636 410 q 703 457 667 443 q 797 471 740 471 l 833 469 q 922 585 894 551 q 1001 675 949 619 q 1056 731 1036 711 q 1093 765 1076 751 q 967 785 1029 765 q 825 843 919 799 q 722 885 757 875 q 646 894 688 894 q 485 840 556 894 q 414 717 414 786 q 449 649 414 674 q 543 624 483 624 q 667 653 607 624 q 767 735 726 682 l 779 725 q 546 599 689 599 q 433 631 476 599 q 390 715 390 663 q 481 867 390 801 q 689 932 571 932 q 788 919 744 932 q 904 868 831 907 q 1025 810 992 822 q 1118 788 1058 797 q 1274 890 1196 851 q 1404 929 1351 929 q 1446 897 1446 929 q 1349 806 1446 850 q 1146 761 1253 761 l 1125 761 q 1092 725 1106 742 q 1056 680 1085 715 q 1018 629 1028 644 q 933 501 983 576 l 907 463 l 983 458 q 1022 460 1014 458 q 1082 474 1031 461 m 1149 783 q 1333 821 1243 783 q 1422 899 1422 858 q 1404 910 1422 910 q 1288 875 1358 910 q 1149 783 1217 840 m 451 56 q 264 90 342 90 q 172 78 210 90 q 133 46 133 65 q 161 17 133 28 q 233 6 189 6 q 340 18 285 6 q 451 56 394 31 m 965 989 l 940 1154 l 965 1154 l 1018 1067 l 1186 1154 l 1240 1154 l 965 989 z "},"":{"ha":588,"x_min":29,"x_max":754,"o":"m 535 343 l 243 119 q 353 144 308 144 q 390 132 375 144 q 406 100 406 119 q 375 42 406 71 q 364 26 369 36 q 361 24 364 25 q 374 15 369 15 q 410 30 383 15 q 464 64 436 44 q 504 93 492 83 q 568 144 524 108 l 589 161 l 594 167 l 600 171 l 607 175 l 618 160 q 535 90 579 124 q 446 29 490 56 q 335 -14 375 -14 q 292 18 292 -14 q 336 89 292 44 q 353 114 353 108 q 338 125 353 125 q 281 115 317 125 q 211 90 246 106 q 143 51 176 74 q 74 0 126 40 q 46 -14 56 -14 q 29 -1 29 -14 q 40 16 29 6 q 74 40 50 26 l 169 94 l 496 343 q 432 332 458 332 q 386 338 401 332 q 354 360 371 343 l 126 172 l 115 188 l 346 378 l 346 392 q 364 435 346 415 q 401 454 382 454 q 425 431 425 454 q 375 371 425 403 q 436 350 397 350 q 473 352 458 350 q 522 365 488 354 q 650 440 607 440 q 667 428 667 440 q 624 380 667 407 q 535 343 581 353 m 485 483 l 460 646 l 485 646 l 536 561 l 701 646 l 754 646 l 485 483 z "},"":{"ha":926,"x_min":53,"x_max":874,"o":"m 53 0 l 450 926 l 478 926 l 874 0 l 53 0 m 93 26 l 833 26 l 464 892 l 93 26 z "},"":{"ha":926,"x_min":260,"x_max":981,"o":"m 621 963 l 981 464 l 621 -36 l 260 464 l 621 963 m 621 839 l 347 464 l 621 88 l 893 464 l 621 839 z "},"":{"ha":578,"x_min":-207,"x_max":633,"o":"m 622 421 l 433 168 q 372 84 381 99 q 353 51 364 69 q 342 22 342 32 q 363 4 342 4 q 456 49 390 4 q 519 96 485 68 q 622 182 546 117 l 633 168 q 455 26 517 67 q 358 -15 393 -15 q 313 44 313 -15 q 317 84 313 67 q 343 150 322 101 q 196 29 267 74 q 79 -15 125 -15 q 33 39 33 -15 l -115 -204 l -207 -204 l 275 421 l 354 421 l 113 111 q 61 25 61 46 q 86 4 61 4 q 259 99 146 4 q 476 329 372 194 l 547 421 l 622 421 z "},"":{"ha":694,"x_min":175,"x_max":778,"o":"m 519 568 l 596 731 l 625 731 l 550 568 l 778 568 l 778 544 l 538 544 l 463 382 l 778 382 l 778 358 l 450 358 l 365 176 l 336 176 l 421 358 l 175 358 l 175 382 l 433 382 l 507 544 l 175 544 l 175 568 l 519 568 z "},"":{"ha":926,"x_min":157,"x_max":1028,"o":"m 592 451 q 475 313 529 353 q 353 272 421 272 q 211 329 265 272 q 157 476 157 386 q 212 620 157 565 q 354 675 267 675 q 476 633 419 675 q 592 496 532 592 q 710 634 656 594 q 833 674 764 674 q 974 617 921 674 q 1028 471 1028 561 q 974 327 1028 382 q 835 272 921 272 q 709 313 764 272 q 592 451 654 353 m 608 474 q 720 338 668 378 q 836 299 772 299 q 953 347 907 299 q 999 474 999 396 q 953 600 999 551 q 835 649 907 649 q 658 546 736 649 l 624 499 l 608 474 m 576 472 q 465 608 517 568 q 349 649 413 649 q 232 600 278 649 q 186 474 186 551 q 232 347 186 396 q 350 299 278 299 q 526 400 449 299 l 561 449 l 576 472 z "},"":{"ha":694,"x_min":129,"x_max":731,"o":"m 731 769 l 731 742 l 161 497 l 731 253 l 731 224 l 129 482 l 129 511 l 731 769 m 731 182 l 731 156 l 129 156 l 129 182 l 731 182 z "},"":{"ha":694,"x_min":129,"x_max":731,"o":"m 129 224 l 129 253 l 699 497 l 129 742 l 129 769 l 731 511 l 731 482 l 129 224 m 129 156 l 129 182 l 731 182 l 731 156 l 129 156 z "},"":{"ha":694,"x_min":218,"x_max":793,"o":"m 306 910 l 310 939 q 685 697 558 899 q 764 515 735 618 q 793 311 793 411 q 743 115 793 193 q 640 17 704 53 q 504 -18 575 -18 q 302 74 386 -18 q 218 294 218 167 q 303 517 218 426 q 514 608 389 608 q 749 468 671 608 q 306 910 650 853 m 519 583 q 326 501 404 583 q 247 293 247 418 q 324 92 247 176 q 506 7 400 7 q 692 90 619 7 q 765 300 765 172 q 697 504 765 425 q 519 583 629 583 z "},"":{"ha":926,"x_min":251,"x_max":1018,"o":"m 1006 1042 l 1006 753 l 978 753 l 978 1014 l 281 1014 l 635 378 l 281 -321 l 990 -321 l 990 -62 l 1018 -62 l 1018 -347 l 251 -347 l 251 -315 l 603 378 l 251 1014 l 251 1042 l 1006 1042 z "},"":{"ha":926,"x_min":250,"x_max":1083,"o":"m 250 1042 l 1083 1042 l 1083 1015 l 978 1015 l 978 -321 l 1083 -321 l 1083 -347 l 833 -347 l 833 -321 l 950 -321 l 950 1015 l 382 1015 l 382 -321 l 499 -321 l 499 -347 l 250 -347 l 250 -321 l 354 -321 l 354 1015 l 250 1015 l 250 1042 z "},"":{"ha":696,"x_min":156,"x_max":799,"o":"m 256 0 l 256 638 l 156 638 l 156 664 l 799 664 l 799 638 l 700 638 l 700 0 l 672 0 l 672 638 l 283 638 l 283 0 l 256 0 z "},"":{"ha":694,"x_min":360,"x_max":668,"o":"m 360 -332 l 374 -307 q 424 -321 400 -321 q 494 -271 482 -321 q 500 -169 500 -250 l 500 861 q 501 951 500 938 q 510 983 503 965 q 606 1042 532 1042 q 635 1039 622 1042 q 668 1026 647 1036 l 656 1001 q 604 1015 628 1015 q 533 965 546 1015 q 528 864 528 944 l 528 -167 l 528 -193 q 526 -256 528 -240 q 518 -290 525 -272 q 422 -347 496 -347 q 393 -344 406 -347 q 360 -332 381 -342 z "},"":{"ha":926,"x_min":233,"x_max":1081,"o":"m 233 0 l 233 26 l 538 26 q 312 229 390 107 q 233 499 233 351 q 354 819 233 690 q 657 949 475 949 q 959 819 838 949 q 1081 497 1081 689 q 1001 229 1081 351 q 776 26 922 107 l 1081 26 l 1081 0 l 729 0 l 729 26 q 837 95 797 65 q 914 163 876 125 q 1053 499 1053 310 q 940 801 1053 679 q 657 922 826 922 q 374 801 488 922 q 261 499 261 679 q 443 122 261 279 q 501 77 468 100 q 585 26 535 54 l 585 0 l 233 0 z "},"":{"ha":926,"x_min":278,"x_max":1204,"o":"m 1204 1149 l 1204 1122 l 908 1122 l 544 0 l 525 0 l 379 451 l 278 451 l 278 478 l 400 478 l 475 246 l 478 236 l 485 219 l 490 203 l 496 185 l 510 142 l 535 64 l 556 132 l 567 165 l 593 244 l 608 290 l 622 335 l 651 425 l 682 515 l 711 606 l 888 1149 l 1204 1149 z "},"":{"ha":601,"x_min":-18,"x_max":867,"o":"m 601 621 l 589 621 q 535 612 574 621 q 463 593 497 603 q 441 588 451 589 q 419 585 431 586 q 389 619 389 585 q 406 660 389 644 q 449 675 422 675 q 474 672 463 675 q 516 658 486 669 q 566 643 546 647 q 615 639 586 639 q 668 726 647 688 q 700 789 685 758 q 762 895 738 868 q 819 922 786 922 q 851 899 851 922 q 828 845 851 876 q 790 800 804 814 q 728 742 758 771 q 678 690 699 714 q 638 639 657 667 q 764 660 690 639 q 828 675 818 675 q 867 643 867 675 q 851 600 867 617 q 810 583 836 583 q 788 586 800 583 q 746 599 775 589 q 681 617 706 613 q 624 621 657 621 q 579 535 600 583 q 542 499 551 510 q 500 450 533 489 l 513 449 q 626 471 553 449 q 670 485 658 482 q 692 488 682 488 q 729 454 729 488 q 714 411 729 428 q 671 394 699 394 q 647 396 654 394 q 604 409 640 397 q 541 426 568 421 q 486 432 514 432 q 444 370 460 399 q 393 279 428 342 q 341 198 368 235 q 267 108 314 161 q 189 19 219 56 q 124 -62 164 -11 l 10 -218 l -18 -218 q 124 -24 81 -86 q 222 131 168 39 q 280 218 261 194 q 368 314 299 242 q 417 369 403 351 q 463 432 442 403 l 451 432 q 399 424 435 432 q 331 406 363 415 q 281 396 299 396 q 250 431 250 396 q 307 486 250 486 q 379 471 333 486 q 423 457 400 464 q 476 450 446 450 q 505 496 497 482 q 524 540 513 510 q 559 572 549 561 q 601 621 569 582 z "},"":{"ha":794,"x_min":131,"x_max":1153,"o":"m 308 -15 q 180 31 225 -15 q 135 164 135 78 q 210 416 135 286 q 428 669 285 546 q 726 867 572 793 q 1000 940 881 940 q 1112 908 1071 940 q 1153 818 1153 875 q 1136 749 1153 783 q 1087 687 1119 715 q 1029 658 1054 658 l 1013 663 q 1096 728 1064 685 q 1128 819 1128 772 q 1094 892 1128 865 q 1003 919 1060 919 q 720 824 875 919 q 425 564 565 729 q 224 292 293 413 q 174 128 174 204 q 210 38 174 69 q 310 6 246 6 q 601 128 438 6 q 651 168 622 144 q 700 213 671 183 l 714 199 q 505 42 613 99 q 308 -15 397 -15 m 164 497 l 185 521 l 811 521 l 792 497 l 164 497 m 131 449 l 150 474 l 771 474 l 751 449 l 131 449 z "},"":{"ha":926,"x_min":293,"x_max":986,"o":"m 299 153 l 415 274 q 338 476 338 365 q 415 678 338 588 l 293 799 l 313 818 l 433 699 q 639 779 524 779 q 844 699 757 779 l 967 818 l 986 799 l 864 678 q 942 475 942 590 q 864 274 942 363 l 986 153 l 967 133 l 844 254 q 640 176 754 176 q 438 254 528 176 l 317 133 l 299 153 m 640 753 q 447 672 526 753 q 367 476 367 590 q 447 283 367 364 q 640 203 528 203 q 832 283 751 203 q 913 476 913 364 q 833 672 913 592 q 640 753 754 753 z "},"":{"ha":347,"x_min":0,"x_max":0,"o":""},"":{"ha":349,"x_min":-128,"x_max":794,"o":"m 794 839 l -110 -65 l -128 -43 l 775 863 l 794 839 z "},"":{"ha":794,"x_min":131,"x_max":1153,"o":"m 131 450 l 150 472 l 247 472 l 264 496 l 164 496 l 185 519 l 282 519 q 428 668 346 597 q 726 867 572 793 q 1000 940 881 940 q 1112 908 1071 940 q 1153 818 1153 875 q 1136 749 1153 783 q 1087 687 1119 715 q 1029 658 1054 658 l 1013 663 q 1096 728 1064 685 q 1128 819 1128 772 q 1094 892 1128 865 q 1003 919 1060 919 q 720 824 875 919 q 425 564 565 729 l 388 521 l 811 521 l 792 497 l 368 497 l 350 474 l 771 474 l 751 450 l 332 450 q 269 364 299 406 q 224 292 240 322 q 174 128 174 204 q 210 38 174 69 q 310 6 246 6 q 601 128 438 6 q 651 168 622 144 q 700 213 671 183 l 714 199 q 505 42 613 99 q 308 -15 397 -15 q 180 31 225 -15 q 135 164 135 78 q 231 450 135 301 l 131 450 z "}}}
